{"glyphs":{"0":{"ha":1042,"x_min":0,"x_max":868,"o":"m 694 694 l 868 694 l 868 174 l 694 174 l 694 0 l 174 0 l 174 174 l 0 174 l 0 694 l 174 694 l 174 868 l 694 868 l 694 694 m 694 688 l 174 688 l 174 181 l 694 181 l 694 688 z "},"1":{"ha":521,"x_min":0,"x_max":347,"o":"m 0 868 l 347 868 l 347 0 l 174 0 l 174 694 l 0 694 l 0 868 z "},"2":{"ha":1042,"x_min":0,"x_max":868,"o":"m 0 347 l 174 347 l 174 521 l 694 521 l 694 694 l 0 694 l 0 868 l 694 868 l 694 694 l 868 694 l 868 347 l 174 347 l 174 174 l 868 174 l 868 0 l 0 0 l 0 347 z "},"3":{"ha":1042,"x_min":0,"x_max":868,"o":"m 694 694 l 868 694 l 868 521 l 694 521 l 694 347 l 868 347 l 868 174 l 694 174 l 694 0 l 0 0 l 0 174 l 694 174 l 694 347 l 174 347 l 174 521 l 694 521 l 694 694 l 0 694 l 0 868 l 694 868 l 694 694 z "},"4":{"ha":1042,"x_min":0,"x_max":868,"o":"m 694 868 l 868 868 l 868 0 l 694 0 l 694 347 l 0 347 l 0 868 l 174 868 l 174 521 l 694 521 l 694 868 z "},"5":{"ha":1042,"x_min":0,"x_max":868,"o":"m 868 694 l 174 694 l 174 521 l 694 521 l 694 347 l 868 347 l 868 174 l 694 174 l 694 0 l 0 0 l 0 174 l 694 174 l 694 347 l 0 347 l 0 868 l 868 868 l 868 694 z "},"6":{"ha":1042,"x_min":0,"x_max":868,"o":"m 694 347 l 694 347 l 694 347 l 694 347 l 694 347 m 868 347 l 868 174 l 694 174 l 694 0 l 174 0 l 174 174 l 0 174 l 0 694 l 174 694 l 174 521 l 694 521 l 694 347 l 868 347 m 174 340 l 174 181 l 694 181 l 694 340 l 174 340 m 694 868 l 694 694 l 174 694 l 174 868 l 694 868 z "},"7":{"ha":868,"x_min":0,"x_max":694,"o":"m 347 0 l 347 347 l 521 347 l 521 694 l 0 694 l 0 868 l 694 868 l 694 347 l 521 347 l 521 0 l 347 0 z "},"8":{"ha":1042,"x_min":0,"x_max":868,"o":"m 868 521 l 694 521 l 694 347 l 868 347 l 868 174 l 694 174 l 694 0 l 174 0 l 174 174 l 0 174 l 0 347 l 174 347 l 174 521 l 0 521 l 0 694 l 174 694 l 174 868 l 694 868 l 694 694 l 868 694 l 868 521 m 694 528 l 694 688 l 174 688 l 174 528 l 694 528 m 694 340 l 174 340 l 174 181 l 694 181 l 694 340 z "},"9":{"ha":1042,"x_min":0,"x_max":868,"o":"m 174 521 l 174 521 l 174 521 l 174 521 l 174 521 m 0 521 l 0 694 l 174 694 l 174 868 l 694 868 l 694 694 l 868 694 l 868 174 l 694 174 l 694 347 l 174 347 l 174 521 l 0 521 m 694 528 l 694 688 l 174 688 l 174 528 l 694 528 m 174 0 l 174 174 l 694 174 l 694 0 l 174 0 z "}," ":{"ha":521,"x_min":0,"x_max":0,"o":""},"!":{"ha":521,"x_min":174,"x_max":347,"o":"m 174 174 l 347 174 l 347 0 l 174 0 l 174 174 m 347 868 l 347 347 l 174 347 l 174 868 l 347 868 z "},"\"":{"ha":694,"x_min":0,"x_max":521,"o":"m 521 868 l 521 521 l 347 521 l 347 868 l 521 868 m 174 521 l 0 521 l 0 868 l 174 868 l 174 521 z "},"#":{"ha":1042,"x_min":0,"x_max":868,"o":"m 868 521 l 694 521 l 694 347 l 868 347 l 868 174 l 694 174 l 694 0 l 521 0 l 521 174 l 347 174 l 347 0 l 174 0 l 174 174 l 0 174 l 0 347 l 174 347 l 174 521 l 0 521 l 0 694 l 174 694 l 174 868 l 347 868 l 347 694 l 521 694 l 521 868 l 694 868 l 694 694 l 868 694 l 868 521 m 347 521 l 347 347 l 521 347 l 521 521 l 347 521 z "},"$":{"ha":1042,"x_min":0,"x_max":868,"o":"m 347 0 l 0 0 l 0 174 l 694 174 l 694 347 l 174 347 l 174 521 l 0 521 l 0 694 l 174 694 l 174 868 l 347 868 l 347 1042 l 521 1042 l 521 868 l 868 868 l 868 694 l 174 694 l 174 521 l 694 521 l 694 347 l 868 347 l 868 174 l 694 174 l 694 0 l 521 0 l 521 -174 l 347 -174 l 347 0 z "},"%":{"ha":1042,"x_min":0,"x_max":868,"o":"m 694 868 l 868 868 l 868 694 l 694 694 l 694 521 l 521 521 l 521 347 l 347 347 l 347 174 l 174 174 l 174 0 l 0 0 l 0 174 l 174 174 l 174 347 l 347 347 l 347 521 l 521 521 l 521 694 l 694 694 l 694 868 m 174 868 l 174 694 l 0 694 l 0 868 l 174 868 m 694 0 l 694 174 l 868 174 l 868 0 l 694 0 z "},"&":{"ha":1215,"x_min":0,"x_max":1042,"o":"m 694 521 l 694 347 l 174 347 l 174 174 l 868 174 l 868 347 l 1042 347 l 1042 174 l 868 174 l 868 0 l 174 0 l 174 174 l 0 174 l 0 347 l 174 347 l 174 521 l 0 521 l 0 694 l 174 694 l 174 868 l 694 868 l 694 694 l 868 694 l 868 521 l 694 521 m 694 528 l 694 688 l 174 688 l 174 528 l 694 528 z "},"'":{"ha":347,"x_min":0,"x_max":174,"o":"m 174 868 l 174 521 l 0 521 l 0 868 l 174 868 z "},"(":{"ha":521,"x_min":0,"x_max":347,"o":"m 347 1042 l 347 868 l 174 868 l 174 0 l 347 0 l 347 -174 l 174 -174 l 174 0 l 0 0 l 0 868 l 174 868 l 174 1042 l 347 1042 z "},")":{"ha":521,"x_min":0,"x_max":347,"o":"m 0 1042 l 174 1042 l 174 868 l 347 868 l 347 0 l 174 0 l 174 -174 l 0 -174 l 0 0 l 174 0 l 174 868 l 0 868 l 0 1042 z "},"*":{"ha":1042,"x_min":0,"x_max":868,"o":"m 174 868 l 347 868 l 347 694 l 521 694 l 521 868 l 694 868 l 694 694 l 521 694 l 521 521 l 868 521 l 868 347 l 521 347 l 521 174 l 694 174 l 694 0 l 521 0 l 521 174 l 347 174 l 347 0 l 174 0 l 174 174 l 347 174 l 347 347 l 0 347 l 0 521 l 347 521 l 347 694 l 174 694 l 174 868 z "},"+":{"ha":1042,"x_min":0,"x_max":868,"o":"m 868 521 l 868 347 l 521 347 l 521 0 l 347 0 l 347 347 l 0 347 l 0 521 l 347 521 l 347 868 l 521 868 l 521 521 l 868 521 z "},",":{"ha":521,"x_min":0,"x_max":347,"o":"m 0 -174 l 174 -174 l 174 174 l 347 174 l 347 -174 l 174 -174 l 174 -347 l 0 -347 l 0 -174 z "},"‐":{"ha":694,"x_min":0,"x_max":521,"o":"m 0 347 l 0 521 l 521 521 l 521 347 l 0 347 z "},".":{"ha":347,"x_min":0,"x_max":174,"o":"m 0 174 l 174 174 l 174 0 l 0 0 l 0 174 z "},"/":{"ha":1042,"x_min":0,"x_max":868,"o":"m 694 868 l 868 868 l 868 694 l 694 694 l 694 521 l 521 521 l 521 347 l 347 347 l 347 174 l 174 174 l 174 0 l 0 0 l 0 174 l 174 174 l 174 347 l 347 347 l 347 521 l 521 521 l 521 694 l 694 694 l 694 868 z "},":":{"ha":694,"x_min":174,"x_max":347,"o":"m 174 347 l 347 347 l 347 174 l 174 174 l 174 347 m 174 694 l 347 694 l 347 521 l 174 521 l 174 694 z "},";":{"ha":694,"x_min":0,"x_max":347,"o":"m 174 694 l 347 694 l 347 521 l 174 521 l 174 694 m 0 -174 l 174 -174 l 174 174 l 347 174 l 347 -174 l 174 -174 l 174 -347 l 0 -347 l 0 -174 z "},"<":{"ha":694,"x_min":0,"x_max":521,"o":"m 521 868 l 521 694 l 347 694 l 347 521 l 174 521 l 174 347 l 347 347 l 347 174 l 521 174 l 521 0 l 347 0 l 347 174 l 174 174 l 174 347 l 0 347 l 0 521 l 174 521 l 174 694 l 347 694 l 347 868 l 521 868 z "},"=":{"ha":1042,"x_min":0,"x_max":868,"o":"m 0 694 l 868 694 l 868 521 l 0 521 l 0 694 m 0 174 l 0 347 l 868 347 l 868 174 l 0 174 z "},">":{"ha":694,"x_min":0,"x_max":521,"o":"m 0 868 l 174 868 l 174 694 l 347 694 l 347 521 l 521 521 l 521 347 l 347 347 l 347 174 l 174 174 l 174 0 l 0 0 l 0 174 l 174 174 l 174 347 l 347 347 l 347 521 l 174 521 l 174 694 l 0 694 l 0 868 z "},"?":{"ha":868,"x_min":0,"x_max":694,"o":"m 174 347 l 174 521 l 521 521 l 521 694 l 0 694 l 0 868 l 521 868 l 521 694 l 694 694 l 694 521 l 521 521 l 521 347 l 174 347 m 174 0 l 174 174 l 347 174 l 347 0 l 174 0 z "},"@":{"ha":1042,"x_min":0,"x_max":868,"o":"m 694 0 l 174 0 l 174 174 l 0 174 l 0 694 l 174 694 l 174 868 l 694 868 l 694 694 l 868 694 l 868 347 l 347 347 l 347 521 l 694 521 l 694 694 l 174 694 l 174 174 l 694 174 l 694 0 z "},"A":{"ha":1042,"x_min":0,"x_max":868,"o":"m 694 694 l 868 694 l 868 0 l 694 0 l 694 347 l 174 347 l 174 0 l 0 0 l 0 694 l 174 694 l 174 868 l 694 868 l 694 694 m 694 688 l 174 688 l 174 521 l 694 521 l 694 688 z "},"B":{"ha":1042,"x_min":0,"x_max":868,"o":"m 868 521 l 694 521 l 694 347 l 868 347 l 868 174 l 694 174 l 694 0 l 0 0 l 0 868 l 694 868 l 694 694 l 868 694 l 868 521 m 688 174 l 688 347 l 174 347 l 174 174 l 688 174 m 688 521 l 688 694 l 174 694 l 174 521 l 688 521 z "},"C":{"ha":1042,"x_min":0,"x_max":868,"o":"m 694 347 l 868 347 l 868 174 l 694 174 l 694 0 l 174 0 l 174 174 l 0 174 l 0 694 l 174 694 l 174 868 l 694 868 l 694 694 l 868 694 l 868 521 l 694 521 l 694 694 l 174 694 l 174 174 l 694 174 l 694 347 z "},"D":{"ha":1042,"x_min":0,"x_max":868,"o":"m 694 694 l 868 694 l 868 174 l 694 174 l 694 0 l 0 0 l 0 868 l 694 868 l 694 694 m 688 694 l 174 694 l 174 174 l 688 174 l 688 694 z "},"E":{"ha":1042,"x_min":0,"x_max":868,"o":"m 868 694 l 174 694 l 174 521 l 694 521 l 694 347 l 174 347 l 174 174 l 868 174 l 868 0 l 0 0 l 0 868 l 868 868 l 868 694 z "},"F":{"ha":1042,"x_min":0,"x_max":868,"o":"m 868 694 l 174 694 l 174 521 l 694 521 l 694 347 l 174 347 l 174 0 l 0 0 l 0 868 l 868 868 l 868 694 z "},"G":{"ha":1042,"x_min":0,"x_max":868,"o":"m 868 521 l 868 0 l 174 0 l 174 174 l 0 174 l 0 694 l 174 694 l 174 868 l 868 868 l 868 694 l 174 694 l 174 174 l 694 174 l 694 347 l 347 347 l 347 521 l 868 521 z "},"H":{"ha":1042,"x_min":0,"x_max":868,"o":"m 694 868 l 868 868 l 868 0 l 694 0 l 694 347 l 174 347 l 174 0 l 0 0 l 0 868 l 174 868 l 174 521 l 694 521 l 694 868 z "},"I":{"ha":347,"x_min":0,"x_max":174,"o":"m 0 868 l 174 868 l 174 0 l 0 0 l 0 868 z "},"J":{"ha":868,"x_min":0,"x_max":694,"o":"m 0 347 l 174 347 l 174 174 l 521 174 l 521 868 l 694 868 l 694 174 l 521 174 l 521 0 l 174 0 l 174 174 l 0 174 l 0 347 z "},"K":{"ha":1042,"x_min":0,"x_max":868,"o":"m 174 521 l 521 521 l 521 694 l 694 694 l 694 868 l 868 868 l 868 694 l 694 694 l 694 521 l 521 521 l 521 347 l 694 347 l 694 174 l 868 174 l 868 0 l 694 0 l 694 174 l 521 174 l 521 347 l 174 347 l 174 0 l 0 0 l 0 868 l 174 868 l 174 521 z "},"L":{"ha":868,"x_min":0,"x_max":694,"o":"m 174 174 l 694 174 l 694 0 l 0 0 l 0 868 l 174 868 l 174 174 z "},"M":{"ha":1042,"x_min":0,"x_max":868,"o":"m 694 868 l 868 868 l 868 0 l 694 0 l 694 521 l 521 521 l 521 347 l 347 347 l 347 521 l 174 521 l 174 0 l 0 0 l 0 868 l 174 868 l 174 694 l 347 694 l 347 521 l 521 521 l 521 694 l 694 694 l 694 868 z "},"N":{"ha":1042,"x_min":0,"x_max":868,"o":"m 694 174 l 521 174 l 521 347 l 347 347 l 347 521 l 174 521 l 174 0 l 0 0 l 0 868 l 174 868 l 174 694 l 347 694 l 347 521 l 521 521 l 521 347 l 694 347 l 694 868 l 868 868 l 868 0 l 694 0 l 694 174 z "},"O":{"ha":1042,"x_min":0,"x_max":868,"o":"m 694 694 l 868 694 l 868 174 l 694 174 l 694 0 l 174 0 l 174 174 l 0 174 l 0 694 l 174 694 l 174 868 l 694 868 l 694 694 m 694 688 l 174 688 l 174 181 l 694 181 l 694 688 z "},"P":{"ha":1042,"x_min":0,"x_max":868,"o":"m 694 694 l 868 694 l 868 521 l 694 521 l 694 347 l 174 347 l 174 0 l 0 0 l 0 868 l 694 868 l 694 694 m 174 521 l 688 521 l 688 694 l 174 694 l 174 521 z "},"Q":{"ha":1042,"x_min":0,"x_max":868,"o":"m 694 688 l 174 688 l 174 181 l 694 181 l 694 688 m 694 0 l 868 0 l 868 -174 l 694 -174 l 694 0 l 174 0 l 174 174 l 0 174 l 0 694 l 174 694 l 174 868 l 694 868 l 694 694 l 868 694 l 868 174 l 694 174 l 694 0 z "},"R":{"ha":1042,"x_min":0,"x_max":868,"o":"m 688 521 l 688 694 l 174 694 l 174 521 l 688 521 m 868 694 l 868 521 l 694 521 l 694 174 l 868 174 l 868 0 l 694 0 l 694 174 l 521 174 l 521 347 l 174 347 l 174 0 l 0 0 l 0 868 l 694 868 l 694 694 l 868 694 z "},"S":{"ha":1042,"x_min":0,"x_max":868,"o":"m 174 868 l 868 868 l 868 694 l 174 694 l 174 521 l 694 521 l 694 347 l 868 347 l 868 174 l 694 174 l 694 0 l 0 0 l 0 174 l 694 174 l 694 347 l 174 347 l 174 521 l 0 521 l 0 694 l 174 694 l 174 868 z "},"T":{"ha":1042,"x_min":0,"x_max":868,"o":"m 868 868 l 868 694 l 521 694 l 521 0 l 347 0 l 347 694 l 0 694 l 0 868 l 868 868 z "},"U":{"ha":1042,"x_min":0,"x_max":868,"o":"m 694 0 l 174 0 l 174 174 l 0 174 l 0 868 l 174 868 l 174 174 l 694 174 l 694 868 l 868 868 l 868 174 l 694 174 l 694 0 z "},"V":{"ha":1042,"x_min":0,"x_max":868,"o":"m 0 868 l 174 868 l 174 347 l 347 347 l 347 174 l 521 174 l 521 347 l 694 347 l 694 868 l 868 868 l 868 347 l 694 347 l 694 174 l 521 174 l 521 0 l 347 0 l 347 174 l 174 174 l 174 347 l 0 347 l 0 868 z "},"W":{"ha":1389,"x_min":0,"x_max":1215,"o":"m 1042 868 l 1215 868 l 1215 174 l 1042 174 l 1042 0 l 694 0 l 694 174 l 521 174 l 521 0 l 174 0 l 174 174 l 0 174 l 0 868 l 174 868 l 174 174 l 521 174 l 521 868 l 694 868 l 694 174 l 1042 174 l 1042 868 z "},"X":{"ha":1042,"x_min":0,"x_max":868,"o":"m 868 868 l 868 694 l 694 694 l 694 521 l 521 521 l 521 347 l 694 347 l 694 174 l 868 174 l 868 0 l 694 0 l 694 174 l 521 174 l 521 347 l 347 347 l 347 174 l 174 174 l 174 0 l 0 0 l 0 174 l 174 174 l 174 347 l 347 347 l 347 521 l 174 521 l 174 694 l 0 694 l 0 868 l 174 868 l 174 694 l 347 694 l 347 521 l 521 521 l 521 694 l 694 694 l 694 868 l 868 868 z "},"Y":{"ha":1042,"x_min":0,"x_max":868,"o":"m 694 868 l 868 868 l 868 694 l 694 694 l 694 521 l 521 521 l 521 0 l 347 0 l 347 521 l 174 521 l 174 694 l 0 694 l 0 868 l 174 868 l 174 694 l 347 694 l 347 521 l 521 521 l 521 694 l 694 694 l 694 868 z "},"Z":{"ha":1042,"x_min":0,"x_max":868,"o":"m 694 694 l 694 521 l 521 521 l 521 347 l 347 347 l 347 174 l 868 174 l 868 0 l 0 0 l 0 174 l 174 174 l 174 347 l 347 347 l 347 521 l 521 521 l 521 694 l 0 694 l 0 868 l 868 868 l 868 694 l 694 694 z "},"[":{"ha":521,"x_min":0,"x_max":347,"o":"m 347 868 l 174 868 l 174 0 l 347 0 l 347 -174 l 0 -174 l 0 1042 l 347 1042 l 347 868 z "},"\\":{"ha":1042,"x_min":0,"x_max":868,"o":"m 174 868 l 174 694 l 347 694 l 347 521 l 521 521 l 521 347 l 694 347 l 694 174 l 868 174 l 868 0 l 694 0 l 694 174 l 521 174 l 521 347 l 347 347 l 347 521 l 174 521 l 174 694 l 0 694 l 0 868 l 174 868 z "},"]":{"ha":521,"x_min":0,"x_max":347,"o":"m 0 868 l 0 1042 l 347 1042 l 347 -174 l 0 -174 l 0 0 l 174 0 l 174 868 l 0 868 z "},"^":{"ha":694,"x_min":-4,"x_max":517,"o":"m 343 694 l 169 694 l 169 521 l -4 521 l -4 694 l 169 694 l 169 868 l 343 868 l 343 694 l 517 694 l 517 521 l 343 521 l 343 694 z "},"_":{"ha":1042,"x_min":0,"x_max":868,"o":"m 0 0 l 868 0 l 868 -174 l 0 -174 l 0 0 z "},"`":{"ha":521,"x_min":0,"x_max":347,"o":"m 174 694 l 347 694 l 347 521 l 174 521 l 174 694 l 0 694 l 0 868 l 174 868 l 174 694 z "},"a":{"ha":868,"x_min":0,"x_max":694,"o":"m 174 174 l 0 174 l 0 521 l 174 521 l 174 694 l 521 694 l 521 521 l 694 521 l 694 0 l 174 0 l 174 174 m 521 514 l 174 514 l 174 181 l 521 181 l 521 514 z "},"b":{"ha":868,"x_min":0,"x_max":694,"o":"m 521 174 l 521 0 l 0 0 l 0 868 l 174 868 l 174 694 l 521 694 l 521 521 l 694 521 l 694 174 l 521 174 m 514 521 l 174 521 l 174 174 l 514 174 l 514 521 z "},"c":{"ha":868,"x_min":0,"x_max":694,"o":"m 694 0 l 174 0 l 174 174 l 0 174 l 0 521 l 174 521 l 174 694 l 694 694 l 694 521 l 174 521 l 174 174 l 694 174 l 694 0 z "},"d":{"ha":868,"x_min":0,"x_max":694,"o":"m 174 174 l 0 174 l 0 521 l 174 521 l 174 694 l 521 694 l 521 868 l 694 868 l 694 0 l 174 0 l 174 174 m 181 521 l 181 174 l 521 174 l 521 521 l 181 521 z "},"e":{"ha":868,"x_min":0,"x_max":694,"o":"m 174 174 l 0 174 l 0 521 l 174 521 l 174 694 l 694 694 l 694 347 l 521 347 l 521 174 l 694 174 l 694 0 l 174 0 l 174 174 m 347 181 l 347 354 l 521 354 l 521 514 l 174 514 l 174 181 l 347 181 z "},"f":{"ha":521,"x_min":0,"x_max":347,"o":"m 347 868 l 347 694 l 174 694 l 174 521 l 347 521 l 347 347 l 174 347 l 174 0 l 0 0 l 0 694 l 174 694 l 174 868 l 347 868 z "},"g":{"ha":868,"x_min":0,"x_max":694,"o":"m 521 514 l 174 514 l 174 181 l 521 181 l 521 514 m 521 694 l 521 521 l 694 521 l 694 -174 l 521 -174 l 521 -347 l 174 -347 l 174 -174 l 521 -174 q 521 0 521 -171 l 174 0 q 174 174 174 3 l 0 174 l 0 521 l 174 521 l 174 694 l 521 694 z "},"h":{"ha":868,"x_min":0,"x_max":694,"o":"m 521 521 l 174 521 l 174 0 l 0 0 l 0 868 l 174 868 l 174 694 l 521 694 l 521 521 l 694 521 l 694 0 l 521 0 l 521 521 z "},"i":{"ha":347,"x_min":0,"x_max":174,"o":"m 0 0 l 0 521 l 174 521 l 174 0 l 0 0 m 0 868 l 174 868 l 174 694 l 0 694 l 0 868 z "},"j":{"ha":521,"x_min":0,"x_max":347,"o":"m 0 -174 l 174 -174 l 174 521 l 347 521 l 347 -174 l 174 -174 l 174 -347 l 0 -347 l 0 -174 m 174 868 l 347 868 l 347 694 l 174 694 l 174 868 z "},"k":{"ha":868,"x_min":0,"x_max":694,"o":"m 521 0 l 521 347 l 347 347 l 347 174 l 174 174 l 174 0 l 0 0 l 0 868 l 174 868 l 174 347 l 347 347 l 347 521 l 521 521 l 521 694 l 694 694 l 694 521 l 521 521 l 521 347 l 694 347 l 694 0 l 521 0 z "},"l":{"ha":347,"x_min":0,"x_max":174,"o":"m 0 868 l 174 868 l 174 0 l 0 0 l 0 868 z "},"m":{"ha":1389,"x_min":0,"x_max":1215,"o":"m 694 694 l 1042 694 l 1042 521 l 1215 521 l 1215 0 l 1042 0 l 1042 521 l 694 521 l 694 0 l 521 0 l 521 521 l 174 521 l 174 0 l 0 0 l 0 694 l 521 694 l 521 521 l 694 521 l 694 694 z "},"n":{"ha":868,"x_min":0,"x_max":694,"o":"m 0 694 l 521 694 l 521 521 l 694 521 l 694 0 l 521 0 l 521 521 l 174 521 l 174 0 l 0 0 l 0 694 z "},"o":{"ha":868,"x_min":0,"x_max":694,"o":"m 521 174 l 521 0 l 174 0 l 174 174 l 0 174 l 0 521 l 174 521 l 174 694 l 521 694 l 521 521 l 694 521 l 694 174 l 521 174 m 521 514 l 174 514 l 174 181 l 521 181 l 521 514 z "},"p":{"ha":868,"x_min":0,"x_max":694,"o":"m 521 521 l 694 521 l 694 174 l 521 174 l 521 0 l 174 0 l 174 -347 l 0 -347 l 0 694 l 521 694 l 521 521 m 521 181 l 521 514 l 174 514 l 174 181 l 521 181 z "},"q":{"ha":868,"x_min":0,"x_max":694,"o":"m 174 521 l 174 694 l 694 694 l 694 -347 l 521 -347 l 521 0 l 174 0 l 174 174 l 0 174 l 0 521 l 174 521 m 174 181 l 521 181 l 521 514 l 174 514 l 174 181 z "},"r":{"ha":694,"x_min":0,"x_max":521,"o":"m 174 694 l 174 521 l 347 521 l 347 694 l 521 694 l 521 521 l 347 521 l 347 347 l 174 347 l 174 0 l 0 0 l 0 694 l 174 694 z "},"s":{"ha":868,"x_min":0,"x_max":694,"o":"m 694 521 l 347 521 l 347 347 l 694 347 l 694 174 l 521 174 l 521 0 l 0 0 l 0 174 l 347 174 l 347 347 l 0 347 l 0 521 l 174 521 l 174 694 l 694 694 l 694 521 z "},"t":{"ha":694,"x_min":0,"x_max":521,"o":"m 521 694 l 521 521 l 347 521 l 347 0 l 174 0 l 174 521 l 0 521 l 0 694 l 174 694 l 174 868 l 347 868 l 347 694 l 521 694 z "},"u":{"ha":868,"x_min":0,"x_max":694,"o":"m 521 694 l 694 694 l 694 0 l 174 0 l 174 174 l 0 174 l 0 694 l 174 694 l 174 174 l 521 174 l 521 694 z "},"v":{"ha":868,"x_min":0,"x_max":694,"o":"m 174 0 l 174 174 l 0 174 l 0 694 l 174 694 l 174 174 l 521 174 l 521 694 l 694 694 l 694 174 l 521 174 l 521 0 l 174 0 z "},"w":{"ha":1389,"x_min":0,"x_max":1215,"o":"m 694 0 l 694 174 l 521 174 l 521 0 l 174 0 l 174 174 l 0 174 l 0 694 l 174 694 l 174 174 l 521 174 l 521 694 l 694 694 l 694 174 l 1042 174 l 1042 694 l 1215 694 l 1215 174 l 1042 174 l 1042 0 l 694 0 z "},"x":{"ha":868,"x_min":0,"x_max":694,"o":"m 694 694 l 694 521 l 521 521 l 521 174 l 694 174 l 694 0 l 521 0 l 521 174 l 174 174 l 174 0 l 0 0 l 0 174 l 174 174 l 174 521 l 0 521 l 0 694 l 174 694 l 174 521 l 521 521 l 521 694 l 694 694 z "},"y":{"ha":868,"x_min":0,"x_max":694,"o":"m 174 -347 l 174 -174 l 521 -174 l 521 0 l 174 0 l 174 174 l 0 174 l 0 694 l 174 694 l 174 174 l 521 174 l 521 694 l 694 694 l 694 -174 l 521 -174 l 521 -347 l 174 -347 z "},"z":{"ha":868,"x_min":0,"x_max":694,"o":"m 347 347 l 347 521 l 0 521 l 0 694 l 694 694 l 694 521 l 521 521 l 521 347 l 347 347 l 347 174 l 694 174 l 694 0 l 0 0 l 0 174 l 174 174 l 174 347 l 347 347 z "},"{":{"ha":694,"x_min":0,"x_max":521,"o":"m 347 0 l 174 0 l 174 347 l 0 347 l 0 521 l 174 521 l 174 868 l 347 868 l 347 1042 l 521 1042 l 521 868 l 347 868 l 347 521 l 174 521 l 174 347 l 347 347 l 347 0 l 521 0 l 521 -174 l 347 -174 l 347 0 z "},"|":{"ha":694,"x_min":174,"x_max":347,"o":"m 174 1042 l 347 1042 l 347 -174 l 174 -174 l 174 1042 z "},"}":{"ha":694,"x_min":0,"x_max":521,"o":"m 0 0 l 174 0 l 174 347 l 347 347 l 347 521 l 174 521 l 174 868 l 0 868 l 0 1042 l 174 1042 l 174 868 l 347 868 l 347 521 l 521 521 l 521 347 l 347 347 l 347 0 l 174 0 l 174 -174 l 0 -174 l 0 0 z "},"~":{"ha":868,"x_min":0,"x_max":694,"o":"m 521 694 l 694 694 l 694 521 l 521 521 l 521 347 l 347 347 l 347 521 l 174 521 l 174 347 l 0 347 l 0 521 l 174 521 l 174 694 l 347 694 l 347 521 l 521 521 l 521 694 z "},"Ä":{"ha":1042,"x_min":0,"x_max":868,"o":"m 174 1215 l 347 1215 l 347 1042 l 174 1042 l 174 1215 m 521 1215 l 694 1215 l 694 1042 l 521 1042 l 521 1215 m 694 694 l 868 694 l 868 0 l 694 0 l 694 347 l 174 347 l 174 0 l 0 0 l 0 694 l 174 694 l 174 868 l 694 868 l 694 694 m 694 688 l 174 688 l 174 521 l 694 521 l 694 688 z "},"Å":{"ha":1042,"x_min":0,"x_max":868,"o":"m 694 688 l 174 688 l 174 521 l 694 521 l 694 688 m 521 1042 l 521 868 l 694 868 l 694 694 l 868 694 l 868 0 l 694 0 l 694 347 l 174 347 l 174 0 l 0 0 l 0 694 l 174 694 l 174 868 l 347 868 l 347 1042 l 174 1042 l 174 1215 l 347 1215 l 347 1389 l 521 1389 l 521 1215 l 694 1215 l 694 1042 l 521 1042 m 347 1049 l 521 1049 l 521 1208 l 347 1208 l 347 1049 z "},"Ç":{"ha":1042,"x_min":0,"x_max":868,"o":"m 174 -174 l 347 -174 l 347 0 l 174 0 l 174 174 l 0 174 l 0 694 l 174 694 l 174 868 l 694 868 l 694 694 l 868 694 l 868 521 l 694 521 l 694 694 l 174 694 l 174 174 l 694 174 l 694 347 l 868 347 l 868 174 l 694 174 l 694 0 l 521 0 l 521 -174 l 347 -174 l 347 -347 l 174 -347 l 174 -174 z "},"É":{"ha":1042,"x_min":0,"x_max":868,"o":"m 521 1215 l 521 1389 l 694 1389 l 694 1215 l 521 1215 l 521 1042 l 347 1042 l 347 1215 l 521 1215 m 868 694 l 174 694 l 174 521 l 694 521 l 694 347 l 174 347 l 174 174 l 868 174 l 868 0 l 0 0 l 0 868 l 868 868 l 868 694 z "},"Ñ":{"ha":1042,"x_min":0,"x_max":868,"o":"m 694 1390 l 868 1390 l 868 1217 l 694 1217 l 694 1043 l 521 1043 l 521 1217 l 347 1217 l 347 1043 l 174 1043 l 174 1217 l 347 1217 l 347 1390 l 521 1390 l 521 1217 l 694 1217 l 694 1390 m 694 174 l 521 174 l 521 347 l 347 347 l 347 521 l 174 521 l 174 0 l 0 0 l 0 868 l 174 868 l 174 694 l 347 694 l 347 521 l 521 521 l 521 347 l 694 347 l 694 868 l 868 868 l 868 0 l 694 0 l 694 174 z "},"Ö":{"ha":1042,"x_min":0,"x_max":868,"o":"m 694 694 l 868 694 l 868 174 l 694 174 l 694 0 l 174 0 l 174 174 l 0 174 l 0 694 l 174 694 l 174 868 l 694 868 l 694 694 m 694 683 l 174 683 l 174 178 l 694 178 l 694 683 m 174 1215 l 347 1215 l 347 1042 l 174 1042 l 174 1215 m 521 1215 l 694 1215 l 694 1042 l 521 1042 l 521 1215 z "},"Ü":{"ha":1042,"x_min":0,"x_max":868,"o":"m 694 0 l 174 0 l 174 174 l 0 174 l 0 868 l 174 868 l 174 174 l 694 174 l 694 868 l 868 868 l 868 174 l 694 174 l 694 0 m 174 1215 l 347 1215 l 347 1042 l 174 1042 l 174 1215 m 521 1215 l 694 1215 l 694 1042 l 521 1042 l 521 1215 z "},"á":{"ha":868,"x_min":0,"x_max":694,"o":"m 347 1042 l 347 1215 l 521 1215 l 521 1042 l 347 1042 l 347 868 l 174 868 l 174 1042 l 347 1042 m 174 174 l 0 174 l 0 521 l 174 521 l 174 694 l 521 694 l 521 521 l 694 521 l 694 0 l 174 0 l 174 174 m 521 514 l 174 514 l 174 181 l 521 181 l 521 514 z "},"à":{"ha":868,"x_min":0,"x_max":694,"o":"m 347 1042 l 174 1042 l 174 1215 l 347 1215 l 347 1042 l 521 1042 l 521 868 l 347 868 l 347 1042 m 174 174 l 0 174 l 0 521 l 174 521 l 174 694 l 521 694 l 521 521 l 694 521 l 694 0 l 174 0 l 174 174 m 521 514 l 174 514 l 174 181 l 521 181 l 521 514 z "},"â":{"ha":868,"x_min":0,"x_max":694,"o":"m 521 1042 l 174 1042 l 174 868 l 0 868 l 0 1042 l 174 1042 l 174 1215 l 521 1215 l 521 1042 l 694 1042 l 694 868 l 521 868 l 521 1042 m 174 174 l 0 174 l 0 521 l 174 521 l 174 694 l 521 694 l 521 521 l 694 521 l 694 0 l 174 0 l 174 174 m 521 514 l 174 514 l 174 181 l 521 181 l 521 514 z "},"ä":{"ha":868,"x_min":0,"x_max":694,"o":"m 0 1042 l 174 1042 l 174 868 l 0 868 l 0 1042 m 521 1042 l 694 1042 l 694 868 l 521 868 l 521 1042 m 174 174 l 0 174 l 0 521 l 174 521 l 174 694 l 521 694 l 521 521 l 694 521 l 694 0 l 174 0 l 174 174 m 521 514 l 174 514 l 174 181 l 521 181 l 521 514 z "},"ã":{"ha":868,"x_min":0,"x_max":694,"o":"m 521 1215 l 694 1215 l 694 1042 l 521 1042 l 521 868 l 347 868 l 347 1042 l 174 1042 l 174 868 l 0 868 l 0 1042 l 174 1042 l 174 1215 l 347 1215 l 347 1042 l 521 1042 l 521 1215 m 174 174 l 0 174 l 0 521 l 174 521 l 174 694 l 521 694 l 521 521 l 694 521 l 694 0 l 174 0 l 174 174 m 521 514 l 174 514 l 174 181 l 521 181 l 521 514 z "},"å":{"ha":868,"x_min":0,"x_max":694,"o":"m 521 514 l 174 514 l 174 181 l 521 181 l 521 514 m 521 694 l 521 521 l 694 521 l 694 0 l 174 0 l 174 174 l 0 174 l 0 521 l 174 521 l 174 694 l 0 694 l 0 868 l 174 868 l 174 1042 l 521 1042 l 521 868 l 694 868 l 694 694 l 521 694 m 174 701 l 521 701 l 521 861 l 174 861 l 174 701 z "},"ç":{"ha":868,"x_min":0,"x_max":694,"o":"m 174 -174 l 347 -174 l 347 0 l 174 0 l 174 174 l 0 174 l 0 521 l 174 521 l 174 694 l 694 694 l 694 521 l 174 521 l 174 174 l 694 174 l 694 0 l 521 0 l 521 -174 l 347 -174 l 347 -347 l 174 -347 l 174 -174 z "},"é":{"ha":868,"x_min":0,"x_max":694,"o":"m 347 1042 l 347 1215 l 521 1215 l 521 1042 l 347 1042 l 347 868 l 174 868 l 174 1042 l 347 1042 m 174 174 l 0 174 l 0 521 l 174 521 l 174 694 l 694 694 l 694 347 l 521 347 l 521 174 l 694 174 l 694 0 l 174 0 l 174 174 m 347 181 l 347 354 l 521 354 l 521 514 l 174 514 l 174 181 l 347 181 z "},"è":{"ha":868,"x_min":0,"x_max":694,"o":"m 347 1042 l 174 1042 l 174 1215 l 347 1215 l 347 1042 l 521 1042 l 521 868 l 347 868 l 347 1042 m 174 174 l 0 174 l 0 521 l 174 521 l 174 694 l 694 694 l 694 347 l 521 347 l 521 174 l 694 174 l 694 0 l 174 0 l 174 174 m 347 181 l 347 354 l 521 354 l 521 514 l 174 514 l 174 181 l 347 181 z "},"ê":{"ha":868,"x_min":0,"x_max":694,"o":"m 521 1042 l 174 1042 l 174 868 l 0 868 l 0 1042 l 174 1042 l 174 1215 l 521 1215 l 521 1042 l 694 1042 l 694 868 l 521 868 l 521 1042 m 174 174 l 0 174 l 0 521 l 174 521 l 174 694 l 694 694 l 694 347 l 521 347 l 521 174 l 694 174 l 694 0 l 174 0 l 174 174 m 347 181 l 347 354 l 521 354 l 521 514 l 174 514 l 174 181 l 347 181 z "},"ë":{"ha":868,"x_min":0,"x_max":694,"o":"m 0 1043 l 174 1043 l 174 869 l 0 869 l 0 1043 m 521 1042 l 694 1042 l 694 868 l 521 868 l 521 1042 m 174 174 l 0 174 l 0 521 l 174 521 l 174 694 l 694 694 l 694 347 l 521 347 l 521 174 l 694 174 l 694 0 l 174 0 l 174 174 m 347 181 l 347 354 l 521 354 l 521 514 l 174 514 l 174 181 l 347 181 z "},"í":{"ha":347,"x_min":0,"x_max":347,"o":"m 174 868 l 174 1042 l 347 1042 l 347 868 l 174 868 l 174 694 l 0 694 l 0 868 l 174 868 m 0 0 l 0 521 l 174 521 l 174 0 l 0 0 z "},"ì":{"ha":347,"x_min":-174,"x_max":174,"o":"m 0 868 l -174 868 l -174 1042 l 0 1042 l 0 868 l 174 868 l 174 694 l 0 694 l 0 868 m 0 0 l 0 521 l 174 521 l 174 0 l 0 0 z "},"î":{"ha":347,"x_min":-174,"x_max":347,"o":"m 174 868 l 0 868 l 0 694 l -174 694 l -174 868 l 0 868 l 0 1042 l 174 1042 l 174 868 l 347 868 l 347 694 l 174 694 l 174 868 m 0 0 l 0 521 l 174 521 l 174 0 l 0 0 z "},"ï":{"ha":347,"x_min":-174,"x_max":347,"o":"m -174 868 l 0 868 l 0 694 l -174 694 l -174 868 m 174 868 l 347 868 l 347 694 l 174 694 l 174 868 m 0 0 l 0 521 l 174 521 l 174 0 l 0 0 z "},"ñ":{"ha":868,"x_min":0,"x_max":694,"o":"m 521 1215 l 694 1215 l 694 1042 l 521 1042 l 521 868 l 347 868 l 347 1042 l 174 1042 l 174 868 l 0 868 l 0 1042 l 174 1042 l 174 1215 l 347 1215 l 347 1042 l 521 1042 l 521 1215 m 0 694 l 521 694 l 521 521 l 694 521 l 694 0 l 521 0 l 521 521 l 174 521 l 174 0 l 0 0 l 0 694 z "},"ó":{"ha":868,"x_min":0,"x_max":694,"o":"m 347 1042 l 347 1215 l 521 1215 l 521 1042 l 347 1042 l 347 868 l 174 868 l 174 1042 l 347 1042 m 521 174 l 521 0 l 174 0 l 174 174 l 0 174 l 0 521 l 174 521 l 174 694 l 521 694 l 521 521 l 694 521 l 694 174 l 521 174 m 521 514 l 174 514 l 174 181 l 521 181 l 521 514 z "},"ò":{"ha":868,"x_min":0,"x_max":694,"o":"m 347 1042 l 174 1042 l 174 1215 l 347 1215 l 347 1042 l 521 1042 l 521 868 l 347 868 l 347 1042 m 521 174 l 521 0 l 174 0 l 174 174 l 0 174 l 0 521 l 174 521 l 174 694 l 521 694 l 521 521 l 694 521 l 694 174 l 521 174 m 521 514 l 174 514 l 174 181 l 521 181 l 521 514 z "},"ô":{"ha":868,"x_min":0,"x_max":694,"o":"m 521 1042 l 174 1042 l 174 868 l 0 868 l 0 1042 l 174 1042 l 174 1215 l 521 1215 l 521 1042 l 694 1042 l 694 868 l 521 868 l 521 1042 m 521 174 l 521 0 l 174 0 l 174 174 l 0 174 l 0 521 l 174 521 l 174 694 l 521 694 l 521 521 l 694 521 l 694 174 l 521 174 m 521 514 l 174 514 l 174 181 l 521 181 l 521 514 z "},"ö":{"ha":868,"x_min":0,"x_max":694,"o":"m 521 174 l 521 0 l 174 0 l 174 174 l 0 174 l 0 521 l 174 521 l 174 694 l 521 694 l 521 521 l 694 521 l 694 174 l 521 174 m 521 514 l 174 514 l 174 181 l 521 181 l 521 514 m 0 1042 l 174 1042 l 174 868 l 0 868 l 0 1042 m 521 1042 l 694 1042 l 694 868 l 521 868 l 521 1042 z "},"õ":{"ha":868,"x_min":0,"x_max":694,"o":"m 521 1215 l 694 1215 l 694 1042 l 521 1042 l 521 868 l 347 868 l 347 1042 l 174 1042 l 174 868 l 0 868 l 0 1042 l 174 1042 l 174 1215 l 347 1215 l 347 1042 l 521 1042 l 521 1215 m 521 174 l 521 0 l 174 0 l 174 174 l 0 174 l 0 521 l 174 521 l 174 694 l 521 694 l 521 521 l 694 521 l 694 174 l 521 174 m 521 514 l 174 514 l 174 181 l 521 181 l 521 514 z "},"ú":{"ha":868,"x_min":0,"x_max":694,"o":"m 347 1042 l 347 1215 l 521 1215 l 521 1042 l 347 1042 l 347 868 l 174 868 l 174 1042 l 347 1042 m 521 694 l 694 694 l 694 0 l 174 0 l 174 174 l 0 174 l 0 694 l 174 694 l 174 174 l 521 174 l 521 694 z "},"ù":{"ha":868,"x_min":0,"x_max":694,"o":"m 347 1042 l 174 1042 l 174 1215 l 347 1215 l 347 1042 l 521 1042 l 521 868 l 347 868 l 347 1042 m 521 694 l 694 694 l 694 0 l 174 0 l 174 174 l 0 174 l 0 694 l 174 694 l 174 174 l 521 174 l 521 694 z "},"û":{"ha":868,"x_min":0,"x_max":694,"o":"m 521 1042 l 174 1042 l 174 868 l 0 868 l 0 1042 l 174 1042 l 174 1215 l 521 1215 l 521 1042 l 694 1042 l 694 868 l 521 868 l 521 1042 m 521 694 l 694 694 l 694 0 l 174 0 l 174 174 l 0 174 l 0 694 l 174 694 l 174 174 l 521 174 l 521 694 z "},"ü":{"ha":868,"x_min":0,"x_max":694,"o":"m 521 694 l 694 694 l 694 0 l 174 0 l 174 174 l 0 174 l 0 694 l 174 694 l 174 174 l 521 174 l 521 694 m 0 1042 l 174 1042 l 174 868 l 0 868 l 0 1042 m 521 1042 l 694 1042 l 694 868 l 521 868 l 521 1042 z "},"†":{"ha":694,"x_min":0,"x_max":521,"o":"m 347 521 l 521 521 l 521 347 l 347 347 l 347 0 l 174 0 l 174 347 l 0 347 l 0 521 l 174 521 l 174 694 l 347 694 l 347 521 z "},"°":{"ha":694,"x_min":0,"x_max":521,"o":"m 347 521 l 347 347 l 174 347 l 174 521 l 0 521 l 0 694 l 174 694 l 174 868 l 347 868 l 347 694 l 521 694 l 521 521 l 347 521 m 174 528 l 347 528 l 347 688 l 174 688 l 174 528 z "},"¢":{"ha":868,"x_min":0,"x_max":694,"o":"m 521 0 l 521 -174 l 347 -174 l 347 0 l 174 0 l 174 174 l 0 174 l 0 521 l 174 521 l 174 694 l 347 694 l 347 868 l 521 868 l 521 694 l 694 694 l 694 521 l 174 521 l 174 174 l 694 174 l 694 0 l 521 0 z "},"£":{"ha":1042,"x_min":0,"x_max":868,"o":"m 0 521 l 174 521 l 174 868 l 347 868 l 347 1042 l 521 1042 l 521 868 l 694 868 l 694 694 l 521 694 l 521 868 l 347 868 l 347 521 l 521 521 l 521 347 l 347 347 l 347 174 l 694 174 l 694 347 l 868 347 l 868 174 l 694 174 l 694 0 l 0 0 l 0 174 l 174 174 l 174 347 l 0 347 l 0 521 z "},"§":{"ha":694,"x_min":0,"x_max":521,"o":"m 174 349 l 347 349 l 347 518 l 174 518 l 174 349 m 174 1042 l 347 1042 l 347 868 l 174 868 l 174 694 l 347 694 l 347 521 l 521 521 l 521 347 l 347 347 l 347 174 l 521 174 l 521 0 l 347 0 l 347 -174 l 174 -174 l 174 0 l 347 0 l 347 174 l 174 174 l 174 347 l 0 347 l 0 521 l 174 521 l 174 694 l 0 694 l 0 868 l 174 868 l 174 1042 z "},"•":{"ha":347,"x_min":0,"x_max":174,"o":"m 0 521 l 174 521 l 174 347 l 0 347 l 0 521 z "},"¶":{"ha":1042,"x_min":0,"x_max":868,"o":"m 521 694 l 521 521 l 694 521 l 694 694 l 521 694 m 347 521 l 347 694 l 181 694 l 181 521 l 347 521 m 347 347 l 174 347 l 174 521 l 0 521 l 0 694 l 174 694 l 174 868 l 868 868 l 868 0 l 694 0 l 694 347 l 521 347 l 521 0 l 347 0 l 347 347 z "},"ß":{"ha":868,"x_min":0,"x_max":694,"o":"m 0 694 l 174 694 l 174 0 l 0 0 l 0 694 m 347 521 l 521 521 l 521 694 l 694 694 l 694 521 l 521 521 l 521 347 l 694 347 l 694 174 l 521 174 l 521 0 l 347 0 l 347 174 l 521 174 l 521 347 l 347 347 l 347 521 m 521 694 l 174 694 l 174 868 l 521 868 l 521 694 z "},"®":{"ha":1042,"x_min":0,"x_max":868,"o":"m 694 694 l 868 694 l 868 174 l 694 174 l 694 0 l 174 0 l 174 174 l 0 174 l 0 694 l 174 694 l 174 868 l 694 868 l 694 694 m 347 181 l 347 521 l 694 521 l 694 688 l 174 688 l 174 181 l 347 181 z "},"©":{"ha":1042,"x_min":0,"x_max":868,"o":"m 868 694 l 868 174 l 694 174 l 694 0 l 174 0 l 174 174 l 0 174 l 0 694 l 174 694 l 174 868 l 694 868 l 694 694 l 868 694 m 347 521 l 694 521 l 694 688 l 174 688 l 174 181 l 694 181 l 694 347 l 347 347 l 347 521 z "},"™":{"ha":1563,"x_min":0,"x_max":1389,"o":"m 1042 868 l 1215 868 l 1215 694 l 1389 694 l 1389 347 l 1215 347 l 1215 694 l 1042 694 l 1042 347 l 868 347 l 868 694 l 694 694 l 694 347 l 521 347 l 521 694 l 347 694 l 347 347 l 174 347 l 174 694 l 0 694 l 0 868 l 521 868 l 521 694 l 694 694 l 694 868 l 868 868 l 868 694 l 1042 694 l 1042 868 z "},"´":{"ha":521,"x_min":0,"x_max":347,"o":"m 174 694 l 174 521 l 0 521 l 0 694 l 174 694 l 174 868 l 347 868 l 347 694 l 174 694 z "},"¨":{"ha":868,"x_min":174,"x_max":694,"o":"m 174 868 l 347 868 l 347 694 l 174 694 l 174 868 m 521 868 l 694 868 l 694 694 l 521 694 l 521 868 z "},"Æ":{"ha":1736,"x_min":0,"x_max":1563,"o":"m 868 694 l 868 521 l 1389 521 l 1389 347 l 868 347 l 868 174 l 1563 174 l 1563 0 l 694 0 l 694 347 l 174 347 l 174 0 l 0 0 l 0 694 l 174 694 l 174 868 l 1563 868 l 1563 694 l 868 694 m 694 692 l 181 692 l 181 521 l 694 521 l 694 692 z "},"Ø":{"ha":1042,"x_min":0,"x_max":868,"o":"m 694 694 l 868 694 l 868 174 l 694 174 l 694 0 l 174 0 l 174 174 l 0 174 l 0 694 l 174 694 l 174 868 l 694 868 l 694 694 m 354 347 l 354 174 l 688 174 l 688 521 l 528 521 l 528 347 l 354 347 m 174 347 l 347 347 l 347 521 l 521 521 l 521 688 l 174 688 l 174 347 z "},"±":{"ha":1042,"x_min":0,"x_max":868,"o":"m 0 0 l 347 0 l 347 347 l 0 347 l 0 521 l 347 521 l 347 868 l 521 868 l 521 521 l 868 521 l 868 347 l 521 347 l 521 0 l 868 0 l 868 -174 l 0 -174 l 0 0 z "},"¥":{"ha":1042,"x_min":0,"x_max":868,"o":"m 694 868 l 868 868 l 868 694 l 694 694 l 694 521 l 521 521 l 521 347 l 694 347 l 694 174 l 521 174 l 521 0 l 347 0 l 347 174 l 174 174 l 174 347 l 347 347 l 347 521 l 174 521 l 174 694 l 0 694 l 0 868 l 174 868 l 174 694 l 347 694 l 347 521 l 521 521 l 521 694 l 694 694 l 694 868 z "},"μ":{"ha":1042,"x_min":0,"x_max":868,"o":"m 694 174 l 868 174 l 868 0 l 694 0 l 694 174 l 521 174 l 521 0 l 174 0 l 174 -347 l 0 -347 l 0 694 l 174 694 l 174 174 l 521 174 l 521 694 l 694 694 l 694 174 z "},"ª":{"ha":694,"x_min":0,"x_max":521,"o":"m 521 0 l 0 0 l 0 174 l 521 174 l 521 0 m 174 528 l 347 528 l 347 688 l 174 688 l 174 528 m 174 347 l 174 521 l 0 521 l 0 694 l 174 694 l 174 868 l 347 868 l 347 694 l 521 694 l 521 347 l 174 347 z "},"º":{"ha":694,"x_min":0,"x_max":521,"o":"m 521 0 l 0 0 l 0 174 l 521 174 l 521 0 m 347 521 l 347 347 l 174 347 l 174 521 l 0 521 l 0 694 l 174 694 l 174 868 l 347 868 l 347 694 l 521 694 l 521 521 l 347 521 m 174 528 l 347 528 l 347 688 l 174 688 l 174 528 z "},"æ":{"ha":1389,"x_min":0,"x_max":1215,"o":"m 521 514 l 174 514 l 174 181 l 521 181 l 521 514 m 174 0 l 174 174 l 0 174 l 0 521 l 174 521 l 174 694 l 521 694 l 521 521 l 694 521 l 694 694 l 1215 694 l 1215 347 l 1042 347 l 1042 174 l 1215 174 l 1215 0 l 174 0 m 868 181 l 868 354 l 1042 354 l 1042 514 l 694 514 l 694 181 l 868 181 z "},"ø":{"ha":868,"x_min":0,"x_max":694,"o":"m 521 174 l 521 0 l 174 0 l 174 174 l 0 174 l 0 521 l 174 521 l 174 694 l 521 694 l 521 521 l 694 521 l 694 174 l 521 174 m 347 514 l 174 514 l 174 347 l 347 347 l 347 181 l 521 181 l 521 347 l 347 347 l 347 514 z "},"¿":{"ha":868,"x_min":0,"x_max":694,"o":"m 521 521 l 521 347 l 174 347 l 174 174 l 694 174 l 694 0 l 174 0 l 174 174 l 0 174 l 0 347 l 174 347 l 174 521 l 521 521 m 521 868 l 521 694 l 347 694 l 347 868 l 521 868 z "},"¡":{"ha":521,"x_min":0,"x_max":174,"o":"m 174 694 l 0 694 l 0 868 l 174 868 l 174 694 m 0 0 l 0 521 l 174 521 l 174 0 l 0 0 z "},"¬":{"ha":1042,"x_min":0,"x_max":868,"o":"m 868 521 l 868 0 l 694 0 l 694 347 l 0 347 l 0 521 l 868 521 z "},"ƒ":{"ha":694,"x_min":0,"x_max":521,"o":"m 0 0 l 174 0 l 174 694 l 347 694 l 347 868 l 521 868 l 521 694 l 347 694 l 347 521 l 521 521 l 521 347 l 347 347 l 347 0 l 174 0 l 174 -174 l 0 -174 l 0 0 z "},"«":{"ha":1042,"x_min":0,"x_max":868,"o":"m 174 521 l 174 694 l 347 694 l 347 521 l 174 521 l 174 347 l 347 347 l 347 174 l 174 174 l 174 347 l 0 347 l 0 521 l 174 521 m 694 521 l 694 694 l 868 694 l 868 521 l 694 521 l 694 347 l 868 347 l 868 174 l 694 174 l 694 347 l 521 347 l 521 521 l 694 521 z "},"»":{"ha":1042,"x_min":0,"x_max":868,"o":"m 694 521 l 868 521 l 868 347 l 694 347 l 694 174 l 521 174 l 521 347 l 694 347 l 694 521 l 521 521 l 521 694 l 694 694 l 694 521 m 174 521 l 347 521 l 347 347 l 174 347 l 174 174 l 0 174 l 0 347 l 174 347 l 174 521 l 0 521 l 0 694 l 174 694 l 174 521 z "},"…":{"ha":1042,"x_min":0,"x_max":868,"o":"m 0 174 l 174 174 l 174 0 l 0 0 l 0 174 m 347 174 l 521 174 l 521 0 l 347 0 l 347 174 m 694 174 l 868 174 l 868 0 l 694 0 l 694 174 z "}," ":{"ha":521,"x_min":0,"x_max":0,"o":""},"À":{"ha":1042,"x_min":0,"x_max":868,"o":"m 347 1215 l 521 1215 l 521 1042 l 347 1042 l 347 1215 l 174 1215 l 174 1389 l 347 1389 l 347 1215 m 694 694 l 868 694 l 868 0 l 694 0 l 694 347 l 174 347 l 174 0 l 0 0 l 0 694 l 174 694 l 174 868 l 694 868 l 694 694 m 694 688 l 174 688 l 174 521 l 694 521 l 694 688 z "},"Ã":{"ha":1042,"x_min":0,"x_max":868,"o":"m 694 1390 l 868 1390 l 868 1217 l 694 1217 l 694 1043 l 521 1043 l 521 1217 l 347 1217 l 347 1043 l 174 1043 l 174 1217 l 347 1217 l 347 1390 l 521 1390 l 521 1217 l 694 1217 l 694 1390 m 694 694 l 868 694 l 868 0 l 694 0 l 694 347 l 174 347 l 174 0 l 0 0 l 0 694 l 174 694 l 174 868 l 694 868 l 694 694 m 694 688 l 174 688 l 174 521 l 694 521 l 694 688 z "},"Õ":{"ha":1042,"x_min":0,"x_max":868,"o":"m 694 1390 l 868 1390 l 868 1217 l 694 1217 l 694 1043 l 521 1043 l 521 1217 l 347 1217 l 347 1043 l 174 1043 l 174 1217 l 347 1217 l 347 1390 l 521 1390 l 521 1217 l 694 1217 l 694 1390 m 694 694 l 868 694 l 868 174 l 694 174 l 694 0 l 174 0 l 174 174 l 0 174 l 0 694 l 174 694 l 174 868 l 694 868 l 694 694 m 694 688 l 174 688 l 174 181 l 694 181 l 694 688 z "},"Œ":{"ha":1736,"x_min":0,"x_max":1563,"o":"m 694 181 l 694 688 l 174 688 l 174 181 l 694 181 m 1563 694 l 868 694 l 868 521 l 1389 521 l 1389 347 l 868 347 l 868 174 l 1563 174 l 1563 0 l 174 0 l 174 174 l 0 174 l 0 694 l 174 694 l 174 868 l 1563 868 l 1563 694 z "},"œ":{"ha":1389,"x_min":0,"x_max":1215,"o":"m 521 514 l 174 514 l 174 181 l 521 181 l 521 514 m 694 174 l 521 174 l 521 0 l 174 0 l 174 174 l 0 174 l 0 521 l 174 521 l 174 694 l 521 694 l 521 521 l 694 521 l 694 694 l 1215 694 l 1215 347 l 1042 347 l 1042 174 l 1215 174 l 1215 0 l 694 0 l 694 174 m 868 181 l 868 354 l 1042 354 l 1042 514 l 694 514 l 694 181 l 868 181 z "},"–":{"ha":694,"x_min":0,"x_max":521,"o":"m 521 347 l 0 347 l 0 521 l 521 521 l 521 347 z "},"—":{"ha":868,"x_min":0,"x_max":694,"o":"m 694 347 l 0 347 l 0 521 l 694 521 l 694 347 z "},"“":{"ha":694,"x_min":0,"x_max":521,"o":"m 521 868 l 521 521 l 347 521 l 347 868 l 521 868 m 174 521 l 0 521 l 0 868 l 174 868 l 174 521 z "},"”":{"ha":694,"x_min":0,"x_max":521,"o":"m 521 868 l 521 521 l 347 521 l 347 868 l 521 868 m 174 521 l 0 521 l 0 868 l 174 868 l 174 521 z "},"‘":{"ha":347,"x_min":0,"x_max":174,"o":"m 174 521 l 0 521 l 0 868 l 174 868 l 174 521 z "},"’":{"ha":347,"x_min":0,"x_max":174,"o":"m 174 521 l 0 521 l 0 868 l 174 868 l 174 521 z "},"÷":{"ha":1042,"x_min":0,"x_max":868,"o":"m 868 347 l 0 347 l 0 521 l 868 521 l 868 347 m 521 694 l 347 694 l 347 868 l 521 868 l 521 694 m 521 0 l 347 0 l 347 174 l 521 174 l 521 0 z "},"ÿ":{"ha":868,"x_min":0,"x_max":694,"o":"m 0 1043 l 174 1043 l 174 869 l 0 869 l 0 1043 m 521 1042 l 694 1042 l 694 868 l 521 868 l 521 1042 m 174 -347 l 174 -174 l 521 -174 l 521 0 l 174 0 l 174 174 l 0 174 l 0 694 l 174 694 l 174 174 l 521 174 l 521 694 l 694 694 l 694 -174 l 521 -174 l 521 -347 l 174 -347 z "},"Ÿ":{"ha":1042,"x_min":0,"x_max":868,"o":"m 174 1215 l 347 1215 l 347 1042 l 174 1042 l 174 1215 m 521 1215 l 694 1215 l 694 1042 l 521 1042 l 521 1215 m 694 868 l 868 868 l 868 694 l 694 694 l 694 521 l 521 521 l 521 0 l 347 0 l 347 521 l 174 521 l 174 694 l 0 694 l 0 868 l 174 868 l 174 694 l 347 694 l 347 521 l 521 521 l 521 694 l 694 694 l 694 868 z "},"¤":{"ha":1215,"x_min":0,"x_max":1042,"o":"m 0 347 l 0 521 l 174 521 l 174 694 l 347 694 l 347 868 l 868 868 l 868 694 l 1042 694 l 1042 521 l 868 521 l 868 694 l 347 694 l 347 521 l 694 521 l 694 347 l 347 347 l 347 174 l 868 174 l 868 347 l 1042 347 l 1042 174 l 868 174 l 868 0 l 347 0 l 347 174 l 174 174 l 174 347 l 0 347 z "},"‹":{"ha":521,"x_min":0,"x_max":347,"o":"m 174 694 l 347 694 l 347 521 l 174 521 l 174 347 l 347 347 l 347 174 l 174 174 l 174 347 l 0 347 l 0 521 l 174 521 l 174 694 z "},"›":{"ha":521,"x_min":0,"x_max":347,"o":"m 0 694 l 174 694 l 174 521 l 347 521 l 347 347 l 174 347 l 174 174 l 0 174 l 0 347 l 174 347 l 174 521 l 0 521 l 0 694 z "},"‡":{"ha":694,"x_min":0,"x_max":521,"o":"m 521 521 l 347 521 l 347 347 l 521 347 l 521 174 l 347 174 l 347 -174 l 174 -174 l 174 174 l 0 174 l 0 347 l 174 347 l 174 521 l 0 521 l 0 694 l 174 694 l 174 1042 l 347 1042 l 347 694 l 521 694 l 521 521 z "},"·":{"ha":347,"x_min":0,"x_max":174,"o":"m 0 521 l 174 521 l 174 347 l 0 347 l 0 521 z "},"‚":{"ha":347,"x_min":-174,"x_max":174,"o":"m -174 -174 l 0 -174 l 0 174 l 174 174 l 174 -174 l 0 -174 l 0 -347 l -174 -347 l -174 -174 z "},"„":{"ha":694,"x_min":-174,"x_max":521,"o":"m 174 -174 l 347 -174 l 347 174 l 521 174 l 521 -174 l 347 -174 l 347 -347 l 174 -347 l 174 -174 l 0 -174 l 0 -347 l -174 -347 l -174 -174 l 0 -174 l 0 174 l 174 174 l 174 -174 z "},"‰":{"ha":1042,"x_min":0,"x_max":868,"o":"m 347 0 l 347 174 l 174 174 l 174 0 l 0 0 l 0 174 l 174 174 l 174 347 l 347 347 l 347 521 l 521 521 l 521 694 l 694 694 l 694 868 l 868 868 l 868 694 l 694 694 l 694 521 l 521 521 l 521 347 l 347 347 l 347 174 l 521 174 l 521 0 l 347 0 m 174 868 l 174 694 l 0 694 l 0 868 l 174 868 m 694 0 l 694 174 l 868 174 l 868 0 l 694 0 z "},"Â":{"ha":1042,"x_min":0,"x_max":868,"o":"m 521 1215 l 347 1215 l 347 1042 l 174 1042 l 174 1215 l 347 1215 l 347 1389 l 521 1389 l 521 1215 l 694 1215 l 694 1042 l 521 1042 l 521 1215 m 694 694 l 868 694 l 868 0 l 694 0 l 694 347 l 174 347 l 174 0 l 0 0 l 0 694 l 174 694 l 174 868 l 694 868 l 694 694 m 694 688 l 174 688 l 174 521 l 694 521 l 694 688 z "},"Ê":{"ha":1042,"x_min":0,"x_max":868,"o":"m 868 694 l 174 694 l 174 521 l 694 521 l 694 347 l 174 347 l 174 174 l 868 174 l 868 0 l 0 0 l 0 868 l 868 868 l 868 694 m 521 1215 l 347 1215 l 347 1042 l 174 1042 l 174 1215 l 347 1215 l 347 1389 l 521 1389 l 521 1215 l 694 1215 l 694 1042 l 521 1042 l 521 1215 z "},"Á":{"ha":1042,"x_min":0,"x_max":868,"o":"m 521 1215 l 521 1389 l 694 1389 l 694 1215 l 521 1215 l 521 1042 l 347 1042 l 347 1215 l 521 1215 m 694 694 l 868 694 l 868 0 l 694 0 l 694 347 l 174 347 l 174 0 l 0 0 l 0 694 l 174 694 l 174 868 l 694 868 l 694 694 m 694 688 l 174 688 l 174 521 l 694 521 l 694 688 z "},"Ë":{"ha":1042,"x_min":0,"x_max":868,"o":"m 868 694 l 174 694 l 174 521 l 694 521 l 694 347 l 174 347 l 174 174 l 868 174 l 868 0 l 0 0 l 0 868 l 868 868 l 868 694 m 174 1215 l 347 1215 l 347 1042 l 174 1042 l 174 1215 m 521 1215 l 694 1215 l 694 1042 l 521 1042 l 521 1215 z "},"È":{"ha":1042,"x_min":0,"x_max":868,"o":"m 868 694 l 174 694 l 174 521 l 694 521 l 694 347 l 174 347 l 174 174 l 868 174 l 868 0 l 0 0 l 0 868 l 868 868 l 868 694 m 347 1215 l 521 1215 l 521 1042 l 347 1042 l 347 1215 l 174 1215 l 174 1389 l 347 1389 l 347 1215 z "},"Í":{"ha":347,"x_min":0,"x_max":347,"o":"m 174 1215 l 174 1389 l 347 1389 l 347 1215 l 174 1215 l 174 1042 l 0 1042 l 0 1215 l 174 1215 m 0 0 l 0 868 l 174 868 l 174 0 l 0 0 z "},"Î":{"ha":347,"x_min":-174,"x_max":347,"o":"m 174 1215 l 0 1215 l 0 1042 l -174 1042 l -174 1215 l 0 1215 l 0 1389 l 174 1389 l 174 1215 l 347 1215 l 347 1042 l 174 1042 l 174 1215 m 0 0 l 0 868 l 174 868 l 174 0 l 0 0 z "},"Ï":{"ha":347,"x_min":-174,"x_max":347,"o":"m -174 1215 l 0 1215 l 0 1042 l -174 1042 l -174 1215 m 174 1215 l 347 1215 l 347 1042 l 174 1042 l 174 1215 m 0 0 l 0 868 l 174 868 l 174 0 l 0 0 z "},"Ì":{"ha":347,"x_min":-174,"x_max":174,"o":"m 0 1215 l -174 1215 l -174 1389 l 0 1389 l 0 1215 l 174 1215 l 174 1042 l 0 1042 l 0 1215 m 0 0 l 0 868 l 174 868 l 174 0 l 0 0 z "},"Ó":{"ha":1042,"x_min":0,"x_max":868,"o":"m 521 1215 l 521 1389 l 694 1389 l 694 1215 l 521 1215 l 521 1042 l 347 1042 l 347 1215 l 521 1215 m 694 694 l 868 694 l 868 174 l 694 174 l 694 0 l 174 0 l 174 174 l 0 174 l 0 694 l 174 694 l 174 868 l 694 868 l 694 694 m 694 688 l 174 688 l 174 181 l 694 181 l 694 688 z "},"Ô":{"ha":1042,"x_min":0,"x_max":868,"o":"m 521 1215 l 347 1215 l 347 1042 l 174 1042 l 174 1215 l 347 1215 l 347 1389 l 521 1389 l 521 1215 l 694 1215 l 694 1042 l 521 1042 l 521 1215 m 694 694 l 868 694 l 868 174 l 694 174 l 694 0 l 174 0 l 174 174 l 0 174 l 0 694 l 174 694 l 174 868 l 694 868 l 694 694 m 694 688 l 174 688 l 174 181 l 694 181 l 694 688 z "},"Ò":{"ha":1042,"x_min":0,"x_max":868,"o":"m 347 1215 l 521 1215 l 521 1042 l 347 1042 l 347 1215 l 174 1215 l 174 1389 l 347 1389 l 347 1215 m 694 694 l 868 694 l 868 174 l 694 174 l 694 0 l 174 0 l 174 174 l 0 174 l 0 694 l 174 694 l 174 868 l 694 868 l 694 694 m 694 688 l 174 688 l 174 181 l 694 181 l 694 688 z "},"Ú":{"ha":1042,"x_min":0,"x_max":868,"o":"m 521 1215 l 521 1389 l 694 1389 l 694 1215 l 521 1215 l 521 1042 l 347 1042 l 347 1215 l 521 1215 m 694 0 l 174 0 l 174 174 l 0 174 l 0 868 l 174 868 l 174 174 l 694 174 l 694 868 l 868 868 l 868 174 l 694 174 l 694 0 z "},"Û":{"ha":1042,"x_min":0,"x_max":868,"o":"m 521 1215 l 347 1215 l 347 1042 l 174 1042 l 174 1215 l 347 1215 l 347 1389 l 521 1389 l 521 1215 l 694 1215 l 694 1042 l 521 1042 l 521 1215 m 694 0 l 174 0 l 174 174 l 0 174 l 0 868 l 174 868 l 174 174 l 694 174 l 694 868 l 868 868 l 868 174 l 694 174 l 694 0 z "},"Ù":{"ha":1042,"x_min":0,"x_max":868,"o":"m 347 1215 l 521 1215 l 521 1042 l 347 1042 l 347 1215 l 174 1215 l 174 1389 l 347 1389 l 347 1215 m 694 0 l 174 0 l 174 174 l 0 174 l 0 868 l 174 868 l 174 174 l 694 174 l 694 868 l 868 868 l 868 174 l 694 174 l 694 0 z "},"ˆ":{"ha":694,"x_min":-4,"x_max":517,"o":"m 343 694 l 169 694 l 169 521 l -4 521 l -4 694 l 169 694 l 169 868 l 343 868 l 343 694 l 517 694 l 517 521 l 343 521 l 343 694 z "},"˜":{"ha":868,"x_min":0,"x_max":694,"o":"m 521 694 l 694 694 l 694 521 l 521 521 l 521 347 l 347 347 l 347 521 l 174 521 l 174 347 l 0 347 l 0 521 l 174 521 l 174 694 l 347 694 l 347 521 l 521 521 l 521 694 z "},"¯":{"ha":694,"x_min":0,"x_max":521,"o":"m 521 694 l 0 694 l 0 868 l 521 868 l 521 694 z "},"¸":{"ha":521,"x_min":0,"x_max":347,"o":"m 174 -174 l 174 -347 l 0 -347 l 0 -174 l 174 -174 l 174 0 l 347 0 l 347 -174 l 174 -174 z "},"Š":{"ha":1042,"x_min":0,"x_max":868,"o":"m 174 868 l 868 868 l 868 694 l 174 694 l 174 521 l 694 521 l 694 347 l 868 347 l 868 174 l 694 174 l 694 0 l 0 0 l 0 174 l 694 174 l 694 347 l 174 347 l 174 521 l 0 521 l 0 694 l 174 694 l 174 868 m 521 1215 l 521 1389 l 694 1389 l 694 1215 l 521 1215 l 521 1042 l 347 1042 l 347 1215 l 174 1215 l 174 1389 l 347 1389 l 347 1215 l 521 1215 z "},"š":{"ha":868,"x_min":0,"x_max":694,"o":"m 694 521 l 347 521 l 347 347 l 694 347 l 694 174 l 521 174 l 521 0 l 0 0 l 0 174 l 347 174 l 347 347 l 0 347 l 0 521 l 174 521 l 174 694 l 694 694 l 694 521 m 521 1042 l 521 1215 l 694 1215 l 694 1042 l 521 1042 l 521 868 l 174 868 l 174 1042 l 0 1042 l 0 1215 l 174 1215 l 174 1042 l 521 1042 z "},"¦":{"ha":347,"x_min":0,"x_max":174,"o":"m 174 868 l 174 521 l 0 521 l 0 868 l 174 868 m 174 347 l 174 0 l 0 0 l 0 347 l 174 347 z "},"Ð":{"ha":1215,"x_min":0,"x_max":1042,"o":"m 347 521 l 521 521 l 521 347 l 347 347 l 347 174 l 861 174 l 861 694 l 347 694 l 347 521 m 0 521 l 174 521 l 174 868 l 868 868 l 868 694 l 1042 694 l 1042 174 l 868 174 l 868 0 l 174 0 l 174 347 l 0 347 l 0 521 z "},"ð":{"ha":868,"x_min":0,"x_max":694,"o":"m 181 521 l 181 174 l 521 174 l 521 521 l 181 521 m 174 1042 l 347 1042 l 347 868 l 521 868 l 521 1042 l 694 1042 l 694 868 l 521 868 l 521 694 l 694 694 l 694 0 l 174 0 l 174 174 l 0 174 l 0 521 l 174 521 l 174 694 l 347 694 l 347 868 l 174 868 l 174 1042 z "},"Ý":{"ha":1042,"x_min":0,"x_max":868,"o":"m 347 1042 l 347 1215 l 521 1215 l 521 1389 l 694 1389 l 694 1215 l 521 1215 l 521 1042 l 347 1042 m 694 868 l 868 868 l 868 694 l 694 694 l 694 521 l 521 521 l 521 0 l 347 0 l 347 521 l 174 521 l 174 694 l 0 694 l 0 868 l 174 868 l 174 694 l 347 694 l 347 521 l 521 521 l 521 694 l 694 694 l 694 868 z "},"ý":{"ha":868,"x_min":0,"x_max":694,"o":"m 174 868 l 174 1042 l 347 1042 l 347 1215 l 521 1215 l 521 1042 l 347 1042 l 347 868 l 174 868 m 174 -347 l 174 -174 l 521 -174 l 521 0 l 174 0 l 174 174 l 0 174 l 0 694 l 174 694 l 174 174 l 521 174 l 521 694 l 694 694 l 694 -174 l 521 -174 l 521 -347 l 174 -347 z "},"Þ":{"ha":868,"x_min":0,"x_max":694,"o":"m 174 347 l 514 347 l 514 521 l 174 521 l 174 347 m 0 868 l 174 868 l 174 694 l 521 694 l 521 521 l 694 521 l 694 347 l 521 347 l 521 174 l 174 174 l 174 0 l 0 0 l 0 868 z "},"þ":{"ha":868,"x_min":0,"x_max":694,"o":"m 174 174 l 514 174 l 514 347 l 174 347 l 174 174 m 0 868 l 174 868 l 174 521 l 521 521 l 521 347 l 694 347 l 694 174 l 521 174 l 521 0 l 174 0 l 174 -347 l 0 -347 l 0 868 z "},"­":{"ha":868,"x_min":0,"x_max":694,"o":"m 0 347 l 0 521 l 694 521 l 694 347 l 0 347 z "},"×":{"ha":868,"x_min":0,"x_max":694,"o":"m 694 694 l 694 521 l 521 521 l 521 174 l 694 174 l 694 0 l 521 0 l 521 174 l 174 174 l 174 0 l 0 0 l 0 174 l 174 174 l 174 521 l 0 521 l 0 694 l 174 694 l 174 521 l 521 521 l 521 694 l 694 694 z "},"¹":{"ha":347,"x_min":0,"x_max":174,"o":"m 0 868 l 174 868 l 174 174 l 0 174 l 0 868 z "},"²":{"ha":694,"x_min":0,"x_max":521,"o":"m 0 868 l 347 868 l 347 694 l 521 694 l 521 521 l 347 521 l 347 347 l 521 347 l 521 174 l 0 174 l 0 347 l 174 347 l 174 521 l 347 521 l 347 694 l 0 694 l 0 868 z "},"³":{"ha":694,"x_min":0,"x_max":521,"o":"m 347 694 l 521 694 l 521 347 l 347 347 l 347 174 l 0 174 l 0 347 l 347 347 l 347 521 l 174 521 l 174 694 l 0 694 l 0 868 l 347 868 l 347 694 z "},"½":{"ha":1389,"x_min":0,"x_max":1215,"o":"m 174 868 l 174 347 l 347 347 l 347 521 l 521 521 l 521 694 l 694 694 l 694 868 l 868 868 l 868 694 l 1042 694 l 1042 521 l 1215 521 l 1215 347 l 1042 347 l 1042 174 l 1215 174 l 1215 0 l 694 0 l 694 174 l 868 174 l 868 347 l 1042 347 l 1042 521 l 521 521 l 521 347 l 347 347 l 347 174 l 174 174 l 174 0 l 0 0 l 0 174 l 174 174 l 174 347 l 0 347 l 0 868 l 174 868 z "},"¼":{"ha":1389,"x_min":0,"x_max":1215,"o":"m 694 868 l 868 868 l 868 694 l 694 694 l 694 521 l 868 521 l 868 347 l 1042 347 l 1042 494 l 1215 494 l 1215 0 l 1042 0 l 1042 174 l 694 174 l 694 521 l 521 521 l 521 347 l 347 347 l 347 174 l 174 174 l 174 0 l 0 0 l 0 174 l 174 174 l 174 347 l 0 347 l 0 868 l 174 868 l 174 347 l 347 347 l 347 521 l 521 521 l 521 694 l 694 694 l 694 868 z "},"¾":{"ha":1563,"x_min":0,"x_max":1389,"o":"m 347 694 l 521 694 l 521 521 l 694 521 l 694 694 l 868 694 l 868 868 l 1042 868 l 1042 694 l 868 694 l 868 521 l 1042 521 l 1042 347 l 1215 347 l 1215 521 l 1389 521 l 1389 0 l 1215 0 l 1215 174 l 868 174 l 868 521 l 694 521 l 694 347 l 521 347 l 521 174 l 347 174 l 347 0 l 174 0 l 174 174 l 0 174 l 0 347 l 347 347 l 347 521 l 174 521 l 174 694 l 0 694 l 0 868 l 347 868 l 347 694 z "},"-":{"ha":868,"x_min":0,"x_max":694,"o":"m 0 347 l 0 521 l 694 521 l 694 347 l 0 347 z "},"µ":{"ha":1042,"x_min":0,"x_max":868,"o":"m 694 174 l 868 174 l 868 0 l 694 0 l 694 174 l 521 174 l 521 0 l 174 0 l 174 -347 l 0 -347 l 0 694 l 174 694 l 174 174 l 521 174 l 521 694 l 694 694 l 694 174 z "},"Ā":{"ha":1042,"x_min":0,"x_max":868,"o":"m 694 1215 l 694 1042 l 174 1042 l 174 1215 l 694 1215 m 694 694 l 868 694 l 868 0 l 694 0 l 694 347 l 174 347 l 174 0 l 0 0 l 0 694 l 174 694 l 174 868 l 694 868 l 694 694 m 694 688 l 174 688 l 174 521 l 694 521 l 694 688 z "},"ā":{"ha":868,"x_min":0,"x_max":694,"o":"m 174 174 l 0 174 l 0 521 l 174 521 l 174 694 l 521 694 l 521 521 l 694 521 l 694 0 l 174 0 l 174 174 m 521 514 l 174 514 l 174 181 l 521 181 l 521 514 m 694 1042 l 694 868 l 0 868 l 0 1042 l 694 1042 z "},"Ă":{"ha":1042,"x_min":0,"x_max":868,"o":"m 521 1215 l 521 1389 l 694 1389 l 694 1215 l 521 1215 l 521 1042 l 347 1042 l 347 1215 l 174 1215 l 174 1389 l 347 1389 l 347 1215 l 521 1215 m 694 694 l 868 694 l 868 0 l 694 0 l 694 347 l 174 347 l 174 0 l 0 0 l 0 694 l 174 694 l 174 868 l 694 868 l 694 694 m 694 688 l 174 688 l 174 521 l 694 521 l 694 688 z "},"ă":{"ha":868,"x_min":0,"x_max":694,"o":"m 174 174 l 0 174 l 0 521 l 174 521 l 174 694 l 521 694 l 521 521 l 694 521 l 694 0 l 174 0 l 174 174 m 521 514 l 174 514 l 174 181 l 521 181 l 521 514 m 521 1042 l 521 1215 l 694 1215 l 694 1042 l 521 1042 l 521 868 l 174 868 l 174 1042 l 0 1042 l 0 1215 l 174 1215 l 174 1042 l 521 1042 z "},"Ą":{"ha":1042,"x_min":0,"x_max":868,"o":"m 694 688 l 174 688 l 174 521 l 694 521 l 694 688 m 694 -174 l 868 -174 l 868 -347 l 694 -347 l 694 -174 l 521 -174 l 521 0 l 694 0 l 694 347 l 174 347 l 174 0 l 0 0 l 0 694 l 174 694 l 174 868 l 694 868 l 694 694 l 868 694 l 868 0 l 694 0 l 694 -174 z "},"ą":{"ha":868,"x_min":0,"x_max":694,"o":"m 521 514 l 174 514 l 174 181 l 521 181 l 521 514 m 521 -174 l 347 -174 l 347 0 l 174 0 l 174 174 l 0 174 l 0 521 l 174 521 l 174 694 l 521 694 l 521 521 l 694 521 l 694 0 l 521 0 l 521 -174 l 694 -174 l 694 -347 l 521 -347 l 521 -174 z "},"Ć":{"ha":1042,"x_min":0,"x_max":868,"o":"m 694 347 l 868 347 l 868 174 l 694 174 l 694 0 l 174 0 l 174 174 l 0 174 l 0 694 l 174 694 l 174 868 l 694 868 l 694 694 l 868 694 l 868 521 l 694 521 l 694 694 l 174 694 l 174 174 l 694 174 l 694 347 m 521 1215 l 521 1389 l 694 1389 l 694 1215 l 521 1215 l 521 1042 l 347 1042 l 347 1215 l 521 1215 z "},"ć":{"ha":868,"x_min":0,"x_max":694,"o":"m 347 1042 l 347 1215 l 521 1215 l 521 1042 l 347 1042 l 347 868 l 174 868 l 174 1042 l 347 1042 m 694 0 l 174 0 l 174 174 l 0 174 l 0 521 l 174 521 l 174 694 l 694 694 l 694 521 l 174 521 l 174 174 l 694 174 l 694 0 z "},"Ĉ":{"ha":1042,"x_min":0,"x_max":868,"o":"m 521 1215 l 347 1215 l 347 1042 l 174 1042 l 174 1215 l 347 1215 l 347 1389 l 521 1389 l 521 1215 l 694 1215 l 694 1042 l 521 1042 l 521 1215 m 694 347 l 868 347 l 868 174 l 694 174 l 694 0 l 174 0 l 174 174 l 0 174 l 0 694 l 174 694 l 174 868 l 694 868 l 694 694 l 868 694 l 868 521 l 694 521 l 694 694 l 174 694 l 174 174 l 694 174 l 694 347 z "},"ĉ":{"ha":868,"x_min":0,"x_max":694,"o":"m 694 0 l 174 0 l 174 174 l 0 174 l 0 521 l 174 521 l 174 694 l 694 694 l 694 521 l 174 521 l 174 174 l 694 174 l 694 0 m 521 1042 l 174 1042 l 174 868 l 0 868 l 0 1042 l 174 1042 l 174 1215 l 521 1215 l 521 1042 l 694 1042 l 694 868 l 521 868 l 521 1042 z "},"Ċ":{"ha":1042,"x_min":0,"x_max":868,"o":"m 694 347 l 868 347 l 868 174 l 694 174 l 694 0 l 174 0 l 174 174 l 0 174 l 0 694 l 174 694 l 174 868 l 694 868 l 694 694 l 868 694 l 868 521 l 694 521 l 694 694 l 174 694 l 174 174 l 694 174 l 694 347 m 347 1215 l 521 1215 l 521 1042 l 347 1042 l 347 1215 z "},"ċ":{"ha":1042,"x_min":0,"x_max":694,"o":"m 347 1042 l 521 1042 l 521 868 l 347 868 l 347 1042 m 694 0 l 174 0 l 174 174 l 0 174 l 0 521 l 174 521 l 174 694 l 694 694 l 694 521 l 174 521 l 174 174 l 694 174 l 694 0 z "},"Č":{"ha":1042,"x_min":0,"x_max":868,"o":"m 694 347 l 868 347 l 868 174 l 694 174 l 694 0 l 174 0 l 174 174 l 0 174 l 0 694 l 174 694 l 174 868 l 694 868 l 694 694 l 868 694 l 868 521 l 694 521 l 694 694 l 174 694 l 174 174 l 694 174 l 694 347 m 521 1215 l 521 1389 l 694 1389 l 694 1215 l 521 1215 l 521 1042 l 347 1042 l 347 1215 l 174 1215 l 174 1389 l 347 1389 l 347 1215 l 521 1215 z "},"č":{"ha":868,"x_min":0,"x_max":694,"o":"m 694 0 l 174 0 l 174 174 l 0 174 l 0 521 l 174 521 l 174 694 l 694 694 l 694 521 l 174 521 l 174 174 l 694 174 l 694 0 m 521 1042 l 521 1215 l 694 1215 l 694 1042 l 521 1042 l 521 868 l 174 868 l 174 1042 l 0 1042 l 0 1215 l 174 1215 l 174 1042 l 521 1042 z "},"Ď":{"ha":1042,"x_min":0,"x_max":868,"o":"m 694 694 l 868 694 l 868 174 l 694 174 l 694 0 l 0 0 l 0 868 l 694 868 l 694 694 m 688 694 l 174 694 l 174 174 l 688 174 l 688 694 m 521 1215 l 521 1389 l 694 1389 l 694 1215 l 521 1215 l 521 1042 l 347 1042 l 347 1215 l 174 1215 l 174 1389 l 347 1389 l 347 1215 l 521 1215 z "},"ď":{"ha":1215,"x_min":0,"x_max":1042,"o":"m 174 174 l 0 174 l 0 521 l 174 521 l 174 694 l 521 694 l 521 868 l 694 868 l 694 0 l 174 0 l 174 174 m 181 521 l 181 174 l 521 174 l 521 521 l 181 521 m 1042 868 l 1042 521 l 868 521 l 868 868 l 1042 868 z "},"Đ":{"ha":1215,"x_min":0,"x_max":1042,"o":"m 347 521 l 521 521 l 521 347 l 347 347 l 347 174 l 861 174 l 861 694 l 347 694 l 347 521 m 0 521 l 174 521 l 174 868 l 868 868 l 868 694 l 1042 694 l 1042 174 l 868 174 l 868 0 l 174 0 l 174 347 l 0 347 l 0 521 z "},"đ":{"ha":868,"x_min":0,"x_max":694,"o":"m 181 521 l 181 174 l 521 174 l 521 521 l 181 521 m 174 1042 l 347 1042 l 347 868 l 521 868 l 521 1042 l 694 1042 l 694 868 l 521 868 l 521 694 l 694 694 l 694 0 l 174 0 l 174 174 l 0 174 l 0 521 l 174 521 l 174 694 l 347 694 l 347 868 l 174 868 l 174 1042 z "},"Ē":{"ha":1042,"x_min":0,"x_max":868,"o":"m 868 694 l 174 694 l 174 521 l 694 521 l 694 347 l 174 347 l 174 174 l 868 174 l 868 0 l 0 0 l 0 868 l 868 868 l 868 694 m 694 1215 l 694 1042 l 174 1042 l 174 1215 l 694 1215 z "},"ē":{"ha":868,"x_min":0,"x_max":694,"o":"m 174 174 l 0 174 l 0 521 l 174 521 l 174 694 l 694 694 l 694 347 l 521 347 l 521 174 l 694 174 l 694 0 l 174 0 l 174 174 m 347 181 l 347 354 l 521 354 l 521 514 l 174 514 l 174 181 l 347 181 m 694 1042 l 694 868 l 0 868 l 0 1042 l 694 1042 z "},"Ĕ":{"ha":1042,"x_min":0,"x_max":868,"o":"m 868 694 l 174 694 l 174 521 l 694 521 l 694 347 l 174 347 l 174 174 l 868 174 l 868 0 l 0 0 l 0 868 l 868 868 l 868 694 m 521 1215 l 521 1389 l 694 1389 l 694 1215 l 521 1215 l 521 1042 l 347 1042 l 347 1215 l 174 1215 l 174 1389 l 347 1389 l 347 1215 l 521 1215 z "},"ĕ":{"ha":868,"x_min":0,"x_max":694,"o":"m 174 174 l 0 174 l 0 521 l 174 521 l 174 694 l 694 694 l 694 347 l 521 347 l 521 174 l 694 174 l 694 0 l 174 0 l 174 174 m 347 181 l 347 354 l 521 354 l 521 514 l 174 514 l 174 181 l 347 181 m 521 1042 l 521 1215 l 694 1215 l 694 1042 l 521 1042 l 521 868 l 174 868 l 174 1042 l 0 1042 l 0 1215 l 174 1215 l 174 1042 l 521 1042 z "},"Ė":{"ha":1042,"x_min":0,"x_max":868,"o":"m 868 694 l 174 694 l 174 521 l 694 521 l 694 347 l 174 347 l 174 174 l 868 174 l 868 0 l 0 0 l 0 868 l 868 868 l 868 694 m 347 1215 l 521 1215 l 521 1042 l 347 1042 l 347 1215 z "},"ė":{"ha":868,"x_min":0,"x_max":694,"o":"m 174 174 l 0 174 l 0 521 l 174 521 l 174 694 l 694 694 l 694 347 l 521 347 l 521 174 l 694 174 l 694 0 l 174 0 l 174 174 m 347 181 l 347 354 l 521 354 l 521 514 l 174 514 l 174 181 l 347 181 m 347 1042 l 521 1042 l 521 868 l 347 868 l 347 1042 z "},"Ę":{"ha":1042,"x_min":0,"x_max":868,"o":"m 694 -174 l 521 -174 l 521 0 l 0 0 l 0 868 l 868 868 l 868 694 l 174 694 l 174 521 l 694 521 l 694 347 l 174 347 l 174 174 l 868 174 l 868 0 l 694 0 l 694 -174 l 868 -174 l 868 -347 l 694 -347 l 694 -174 z "},"ę":{"ha":868,"x_min":0,"x_max":694,"o":"m 347 181 l 347 354 l 521 354 l 521 514 l 174 514 l 174 181 l 347 181 m 521 -174 l 347 -174 l 347 0 l 174 0 l 174 174 l 0 174 l 0 521 l 174 521 l 174 694 l 694 694 l 694 347 l 521 347 l 521 174 l 694 174 l 694 0 l 521 0 l 521 -174 l 694 -174 l 694 -347 l 521 -347 l 521 -174 z "},"Ě":{"ha":1042,"x_min":0,"x_max":868,"o":"m 868 694 l 174 694 l 174 521 l 694 521 l 694 347 l 174 347 l 174 174 l 868 174 l 868 0 l 0 0 l 0 868 l 868 868 l 868 694 m 521 1215 l 521 1389 l 694 1389 l 694 1215 l 521 1215 l 521 1042 l 347 1042 l 347 1215 l 174 1215 l 174 1389 l 347 1389 l 347 1215 l 521 1215 z "},"ě":{"ha":868,"x_min":0,"x_max":694,"o":"m 174 174 l 0 174 l 0 521 l 174 521 l 174 694 l 694 694 l 694 347 l 521 347 l 521 174 l 694 174 l 694 0 l 174 0 l 174 174 m 347 181 l 347 354 l 521 354 l 521 514 l 174 514 l 174 181 l 347 181 m 521 1042 l 521 1215 l 694 1215 l 694 1042 l 521 1042 l 521 868 l 174 868 l 174 1042 l 0 1042 l 0 1215 l 174 1215 l 174 1042 l 521 1042 z "},"Ĝ":{"ha":1042,"x_min":0,"x_max":868,"o":"m 868 521 l 868 0 l 174 0 l 174 174 l 0 174 l 0 694 l 174 694 l 174 868 l 868 868 l 868 694 l 174 694 l 174 174 l 694 174 l 694 347 l 347 347 l 347 521 l 868 521 m 521 1215 l 347 1215 l 347 1042 l 174 1042 l 174 1215 l 347 1215 l 347 1389 l 521 1389 l 521 1215 l 694 1215 l 694 1042 l 521 1042 l 521 1215 z "},"ĝ":{"ha":868,"x_min":0,"x_max":694,"o":"m 521 514 l 174 514 l 174 181 l 521 181 l 521 514 m 521 694 l 521 521 l 694 521 l 694 -174 l 521 -174 l 521 -347 l 174 -347 l 174 -174 l 521 -174 q 521 0 521 -171 l 174 0 q 174 174 174 3 l 0 174 l 0 521 l 174 521 l 174 694 l 521 694 m 521 1042 l 174 1042 l 174 868 l 0 868 l 0 1042 l 174 1042 l 174 1215 l 521 1215 l 521 1042 l 694 1042 l 694 868 l 521 868 l 521 1042 z "},"Ğ":{"ha":1042,"x_min":0,"x_max":868,"o":"m 868 521 l 868 0 l 174 0 l 174 174 l 0 174 l 0 694 l 174 694 l 174 868 l 868 868 l 868 694 l 174 694 l 174 174 l 694 174 l 694 347 l 347 347 l 347 521 l 868 521 m 521 1215 l 521 1389 l 694 1389 l 694 1215 l 521 1215 l 521 1042 l 347 1042 l 347 1215 l 174 1215 l 174 1389 l 347 1389 l 347 1215 l 521 1215 z "},"ğ":{"ha":868,"x_min":0,"x_max":694,"o":"m 521 514 l 174 514 l 174 181 l 521 181 l 521 514 m 521 694 l 521 521 l 694 521 l 694 -174 l 521 -174 l 521 -347 l 174 -347 l 174 -174 l 521 -174 q 521 0 521 -171 l 174 0 q 174 174 174 3 l 0 174 l 0 521 l 174 521 l 174 694 l 521 694 m 521 1042 l 521 1215 l 694 1215 l 694 1042 l 521 1042 l 521 868 l 174 868 l 174 1042 l 0 1042 l 0 1215 l 174 1215 l 174 1042 l 521 1042 z "},"Ġ":{"ha":1042,"x_min":0,"x_max":868,"o":"m 868 521 l 868 0 l 174 0 l 174 174 l 0 174 l 0 694 l 174 694 l 174 868 l 868 868 l 868 694 l 174 694 l 174 174 l 694 174 l 694 347 l 347 347 l 347 521 l 868 521 m 347 1215 l 521 1215 l 521 1042 l 347 1042 l 347 1215 z "},"ġ":{"ha":868,"x_min":0,"x_max":694,"o":"m 521 514 l 174 514 l 174 181 l 521 181 l 521 514 m 521 694 l 521 521 l 694 521 l 694 -174 l 521 -174 l 521 -347 l 174 -347 l 174 -174 l 521 -174 q 521 0 521 -171 l 174 0 q 174 174 174 3 l 0 174 l 0 521 l 174 521 l 174 694 l 521 694 m 347 1042 l 521 1042 l 521 868 l 347 868 l 347 1042 z "},"Ģ":{"ha":1042,"x_min":0,"x_max":868,"o":"m 521 -174 l 521 -347 l 347 -347 l 347 -174 l 521 -174 l 521 0 l 174 0 l 174 174 l 0 174 l 0 694 l 174 694 l 174 868 l 868 868 l 868 694 l 174 694 l 174 174 l 694 174 l 694 347 l 347 347 l 347 521 l 868 521 l 868 0 l 694 0 l 694 -174 l 521 -174 z "},"ģ":{"ha":868,"x_min":0,"x_max":694,"o":"m 521 514 l 174 514 l 174 181 l 521 181 l 521 514 m 521 694 l 521 521 l 694 521 l 694 -174 l 521 -174 l 521 -347 l 174 -347 l 174 -174 l 521 -174 q 521 0 521 -171 l 174 0 q 174 174 174 3 l 0 174 l 0 521 l 174 521 l 174 694 l 521 694 m 347 1042 l 347 868 l 174 868 l 174 1042 l 347 1042 l 347 1215 l 521 1215 l 521 1042 l 347 1042 z "},"Ĥ":{"ha":1042,"x_min":0,"x_max":868,"o":"m 694 868 l 868 868 l 868 0 l 694 0 l 694 347 l 174 347 l 174 0 l 0 0 l 0 868 l 174 868 l 174 521 l 694 521 l 694 868 m 521 1215 l 347 1215 l 347 1042 l 174 1042 l 174 1215 l 347 1215 l 347 1389 l 521 1389 l 521 1215 l 694 1215 l 694 1042 l 521 1042 l 521 1215 z "},"ĥ":{"ha":868,"x_min":0,"x_max":694,"o":"m 521 521 l 174 521 l 174 0 l 0 0 l 0 868 l 174 868 l 174 694 l 521 694 l 521 521 l 694 521 l 694 0 l 521 0 l 521 521 m 521 1215 l 174 1215 l 174 1042 l 0 1042 l 0 1215 l 174 1215 l 174 1389 l 521 1389 l 521 1215 l 694 1215 l 694 1042 l 521 1042 l 521 1215 z "},"Ħ":{"ha":1389,"x_min":0,"x_max":1215,"o":"m 868 694 l 347 694 l 347 521 l 868 521 l 868 694 m 1215 868 l 1215 694 l 1042 694 l 1042 0 l 868 0 l 868 347 l 347 347 l 347 0 l 174 0 l 174 694 l 0 694 l 0 868 l 1215 868 z "},"ħ":{"ha":1042,"x_min":0,"x_max":868,"o":"m 694 868 l 694 694 l 347 694 l 347 521 l 694 521 l 694 347 l 868 347 l 868 0 l 694 0 l 694 347 l 347 347 l 347 0 l 174 0 l 174 694 l 0 694 l 0 868 l 694 868 z "},"Ĩ":{"ha":347,"x_min":-174,"x_max":521,"o":"m 0 1215 l 0 1389 l 174 1389 l 174 1215 l 347 1215 l 347 1389 l 521 1389 l 521 1215 l 347 1215 l 347 1042 l 174 1042 l 174 1215 l 0 1215 l 0 1042 l -174 1042 l -174 1215 l 0 1215 m 0 868 l 174 868 l 174 0 l 0 0 l 0 868 z "},"ĩ":{"ha":347,"x_min":-174,"x_max":521,"o":"m 347 1042 l 521 1042 l 521 868 l 347 868 l 347 694 l 174 694 l 174 868 l 0 868 l 0 694 l -174 694 l -174 868 l 0 868 l 0 1042 l 174 1042 l 174 868 l 347 868 l 347 1042 m 0 0 l 0 521 l 174 521 l 174 0 l 0 0 z "},"Ī":{"ha":347,"x_min":-174,"x_max":347,"o":"m 347 1215 l 347 1042 l -174 1042 l -174 1215 l 347 1215 m 0 868 l 174 868 l 174 0 l 0 0 l 0 868 z "},"ī":{"ha":347,"x_min":-174,"x_max":347,"o":"m 0 0 l 0 521 l 174 521 l 174 0 l 0 0 m -174 868 l 347 868 l 347 694 l -174 694 l -174 868 z "},"Ĭ":{"ha":347,"x_min":-174,"x_max":347,"o":"m 174 1215 l 174 1389 l 347 1389 l 347 1215 l 174 1215 l 174 1042 l 0 1042 l 0 1215 l -174 1215 l -174 1389 l 0 1389 l 0 1215 l 174 1215 m 0 868 l 174 868 l 174 0 l 0 0 l 0 868 z "},"ĭ":{"ha":347,"x_min":-174,"x_max":347,"o":"m 0 0 l 0 521 l 174 521 l 174 0 l 0 0 m 174 868 l 174 1042 l 347 1042 l 347 868 l 174 868 l 174 694 l 0 694 l 0 868 l -174 868 l -174 1042 l 0 1042 l 0 868 l 174 868 z "},"Į":{"ha":521,"x_min":0,"x_max":347,"o":"m 174 -174 l 0 -174 l 0 0 l 174 0 l 174 868 l 347 868 l 347 0 l 174 0 l 174 -174 l 347 -174 l 347 -347 l 174 -347 l 174 -174 z "},"į":{"ha":521,"x_min":0,"x_max":347,"o":"m 174 0 l 174 521 l 347 521 l 347 0 l 174 0 l 174 -174 l 347 -174 l 347 -347 l 174 -347 l 174 -174 l 0 -174 l 0 0 l 174 0 m 174 868 l 347 868 l 347 694 l 174 694 l 174 868 z "},"İ":{"ha":347,"x_min":0,"x_max":174,"o":"m 0 868 l 174 868 l 174 0 l 0 0 l 0 868 m 0 1215 l 174 1215 l 174 1042 l 0 1042 l 0 1215 z "},"ı":{"ha":347,"x_min":0,"x_max":174,"o":"m 0 0 l 0 521 l 174 521 l 174 0 l 0 0 z "},"Ĳ":{"ha":868,"x_min":0,"x_max":694,"o":"m 0 868 l 174 868 l 174 0 l 0 0 l 0 868 m 521 174 l 521 0 l 347 0 l 347 174 l 521 174 l 521 868 l 694 868 l 694 174 l 521 174 z "},"ĳ":{"ha":694,"x_min":0,"x_max":521,"o":"m 0 0 l 0 521 l 174 521 l 174 0 l 0 0 m 0 868 l 174 868 l 174 694 l 0 694 l 0 868 m 347 -174 l 347 521 l 521 521 l 521 -174 l 347 -174 m 174 -347 l 174 -174 l 347 -174 l 347 -347 l 174 -347 m 347 868 l 521 868 l 521 694 l 347 694 l 347 868 z "},"Ĵ":{"ha":694,"x_min":0,"x_max":694,"o":"m 347 174 l 347 0 l 0 0 l 0 174 l 347 174 l 347 868 l 521 868 l 521 174 l 347 174 m 521 1215 l 347 1215 l 347 1042 l 174 1042 l 174 1215 l 347 1215 l 347 1389 l 521 1389 l 521 1215 l 694 1215 l 694 1042 l 521 1042 l 521 1215 z "},"ĵ":{"ha":521,"x_min":0,"x_max":521,"o":"m 174 -174 l 174 521 l 347 521 l 347 -174 l 174 -174 m 0 -347 l 0 -174 l 174 -174 l 174 -347 l 0 -347 m 347 868 l 174 868 l 174 694 l 0 694 l 0 868 l 174 868 l 174 1042 l 347 1042 l 347 868 l 521 868 l 521 694 l 347 694 l 347 868 z "},"Ķ":{"ha":1042,"x_min":0,"x_max":868,"o":"m 174 521 l 521 521 l 521 694 l 694 694 l 694 868 l 868 868 l 868 694 l 694 694 l 694 521 l 521 521 l 521 347 l 694 347 l 694 174 l 868 174 l 868 0 l 694 0 l 694 174 l 521 174 l 521 347 l 174 347 l 174 0 l 0 0 l 0 868 l 174 868 l 174 521 m 347 -174 l 347 -347 l 174 -347 l 174 -174 l 347 -174 l 347 0 l 521 0 l 521 -174 l 347 -174 z "},"ķ":{"ha":1042,"x_min":0,"x_max":694,"o":"m 521 0 l 521 347 l 347 347 l 347 174 l 174 174 l 174 0 l 347 0 l 347 -174 l 174 -174 l 174 -347 l 0 -347 l 0 -174 l 174 -174 l 174 0 l 0 0 l 0 868 l 174 868 l 174 347 l 347 347 l 347 521 l 521 521 l 521 694 l 694 694 l 694 521 l 521 521 l 521 347 l 694 347 l 694 0 l 521 0 z "},"ĸ":{"ha":868,"x_min":0,"x_max":694,"o":"m 521 0 l 521 347 l 347 347 l 347 174 l 174 174 l 174 0 l 0 0 l 0 694 l 174 694 l 174 347 l 347 347 l 347 521 l 521 521 l 521 694 l 694 694 l 694 521 l 521 521 l 521 347 l 694 347 l 694 0 l 521 0 z "},"Ĺ":{"ha":868,"x_min":0,"x_max":694,"o":"m 174 174 l 694 174 l 694 0 l 0 0 l 0 868 l 174 868 l 174 174 m 174 1215 l 174 1042 l 0 1042 l 0 1215 l 174 1215 l 174 1389 l 347 1389 l 347 1215 l 174 1215 z "},"ĺ":{"ha":347,"x_min":0,"x_max":347,"o":"m 0 868 l 174 868 l 174 0 l 0 0 l 0 868 m 174 1215 l 174 1042 l 0 1042 l 0 1215 l 174 1215 l 174 1389 l 347 1389 l 347 1215 l 174 1215 z "},"Ļ":{"ha":868,"x_min":0,"x_max":694,"o":"m 347 -174 l 347 -347 l 174 -347 l 174 -174 l 347 -174 l 347 0 l 0 0 l 0 868 l 174 868 l 174 174 l 694 174 l 694 0 l 521 0 l 521 -174 l 347 -174 z "},"ļ":{"ha":174,"x_min":-174,"x_max":174,"o":"m 0 -174 l 0 -347 l -174 -347 l -174 -174 l 0 -174 l 0 0 l -174 0 l -174 868 l 0 868 l 0 0 l 174 0 l 174 -174 l 0 -174 z "},"Ľ":{"ha":868,"x_min":0,"x_max":694,"o":"m 174 174 l 694 174 l 694 0 l 0 0 l 0 868 l 174 868 l 174 174 m 521 694 l 521 521 l 347 521 l 347 694 l 521 694 l 521 868 l 694 868 l 694 694 l 521 694 z "},"ľ":{"ha":868,"x_min":0,"x_max":694,"o":"m 521 694 l 521 521 l 347 521 l 347 694 l 521 694 l 521 868 l 694 868 l 694 694 l 521 694 m 0 868 l 174 868 l 174 0 l 0 0 l 0 868 z "},"Ŀ":{"ha":1042,"x_min":0,"x_max":868,"o":"m 174 174 l 694 174 l 694 0 l 0 0 l 0 868 l 174 868 l 174 174 m 694 521 l 868 521 l 868 347 l 694 347 l 694 521 z "},"ŀ":{"ha":694,"x_min":0,"x_max":521,"o":"m 0 868 l 174 868 l 174 0 l 0 0 l 0 868 m 347 521 l 521 521 l 521 347 l 347 347 l 347 521 z "},"Ł":{"ha":1042,"x_min":0,"x_max":868,"o":"m 347 174 l 868 174 l 868 0 l 174 0 l 174 174 l 0 174 l 0 347 l 174 347 l 174 868 l 347 868 l 347 694 l 521 694 l 521 521 l 347 521 l 347 174 z "},"ł":{"ha":694,"x_min":0,"x_max":521,"o":"m 347 694 l 521 694 l 521 521 l 347 521 l 347 0 l 174 0 l 174 174 l 0 174 l 0 347 l 174 347 l 174 868 l 347 868 l 347 694 z "},"Ń":{"ha":1042,"x_min":0,"x_max":868,"o":"m 521 1215 l 521 1389 l 694 1389 l 694 1215 l 521 1215 l 521 1042 l 347 1042 l 347 1215 l 521 1215 m 694 174 l 521 174 l 521 347 l 347 347 l 347 521 l 174 521 l 174 0 l 0 0 l 0 868 l 174 868 l 174 694 l 347 694 l 347 521 l 521 521 l 521 347 l 694 347 l 694 868 l 868 868 l 868 0 l 694 0 l 694 174 z "},"ń":{"ha":868,"x_min":0,"x_max":694,"o":"m 347 1042 l 347 1215 l 521 1215 l 521 1042 l 347 1042 l 347 868 l 174 868 l 174 1042 l 347 1042 m 0 694 l 521 694 l 521 521 l 694 521 l 694 0 l 521 0 l 521 521 l 174 521 l 174 0 l 0 0 l 0 694 z "},"Ņ":{"ha":1042,"x_min":0,"x_max":868,"o":"m 694 174 l 521 174 l 521 347 l 347 347 l 347 521 l 174 521 l 174 0 l 0 0 l 0 868 l 174 868 l 174 694 l 347 694 l 347 521 l 521 521 l 521 347 l 694 347 l 694 868 l 868 868 l 868 0 l 694 0 l 694 174 m 347 -174 l 347 -347 l 174 -347 l 174 -174 l 347 -174 l 347 0 l 521 0 l 521 -174 l 347 -174 z "},"ņ":{"ha":868,"x_min":0,"x_max":694,"o":"m 174 -174 l 174 -347 l 0 -347 l 0 -174 l 174 -174 l 174 0 l 0 0 l 0 694 l 521 694 l 521 521 l 694 521 l 694 0 l 521 0 l 521 521 l 174 521 l 174 0 l 347 0 l 347 -174 l 174 -174 z "},"Ň":{"ha":1042,"x_min":0,"x_max":868,"o":"m 694 174 l 521 174 l 521 347 l 347 347 l 347 521 l 174 521 l 174 0 l 0 0 l 0 868 l 174 868 l 174 694 l 347 694 l 347 521 l 521 521 l 521 347 l 694 347 l 694 868 l 868 868 l 868 0 l 694 0 l 694 174 m 521 1215 l 521 1389 l 694 1389 l 694 1215 l 521 1215 l 521 1042 l 347 1042 l 347 1215 l 174 1215 l 174 1389 l 347 1389 l 347 1215 l 521 1215 z "},"ň":{"ha":868,"x_min":0,"x_max":694,"o":"m 0 694 l 521 694 l 521 521 l 694 521 l 694 0 l 521 0 l 521 521 l 174 521 l 174 0 l 0 0 l 0 694 m 521 1042 l 521 1215 l 694 1215 l 694 1042 l 521 1042 l 521 868 l 174 868 l 174 1042 l 0 1042 l 0 1215 l 174 1215 l 174 1042 l 521 1042 z "},"ŉ":{"ha":1215,"x_min":0,"x_max":1042,"o":"m 174 694 l 174 521 l 0 521 l 0 694 l 174 694 l 174 868 l 347 868 l 347 694 l 868 694 l 868 521 l 1042 521 l 1042 0 l 868 0 l 868 521 l 521 521 l 521 0 l 347 0 l 347 694 l 174 694 z "},"Ŋ":{"ha":1042,"x_min":0,"x_max":868,"o":"m 521 0 l 694 0 l 694 174 l 521 174 l 521 347 l 347 347 l 347 521 l 174 521 l 174 0 l 0 0 l 0 868 l 174 868 l 174 694 l 347 694 l 347 521 l 521 521 l 521 347 l 694 347 l 694 868 l 868 868 l 868 0 l 694 0 l 694 -174 l 521 -174 l 521 0 z "},"ŋ":{"ha":868,"x_min":0,"x_max":694,"o":"m 347 0 l 521 0 l 521 521 l 174 521 l 174 0 l 0 0 l 0 694 l 521 694 l 521 521 l 694 521 l 694 0 l 521 0 l 521 -174 l 347 -174 l 347 0 z "},"Ō":{"ha":1042,"x_min":0,"x_max":868,"o":"m 694 1215 l 694 1042 l 174 1042 l 174 1215 l 694 1215 m 694 694 l 868 694 l 868 174 l 694 174 l 694 0 l 174 0 l 174 174 l 0 174 l 0 694 l 174 694 l 174 868 l 694 868 l 694 694 m 694 688 l 174 688 l 174 181 l 694 181 l 694 688 z "},"ō":{"ha":868,"x_min":0,"x_max":694,"o":"m 694 1042 l 694 868 l 0 868 l 0 1042 l 694 1042 m 521 174 l 521 0 l 174 0 l 174 174 l 0 174 l 0 521 l 174 521 l 174 694 l 521 694 l 521 521 l 694 521 l 694 174 l 521 174 m 521 514 l 174 514 l 174 181 l 521 181 l 521 514 z "},"Ŏ":{"ha":1042,"x_min":0,"x_max":868,"o":"m 694 694 l 868 694 l 868 174 l 694 174 l 694 0 l 174 0 l 174 174 l 0 174 l 0 694 l 174 694 l 174 868 l 694 868 l 694 694 m 694 688 l 174 688 l 174 181 l 694 181 l 694 688 m 521 1215 l 521 1389 l 694 1389 l 694 1215 l 521 1215 l 521 1042 l 347 1042 l 347 1215 l 174 1215 l 174 1389 l 347 1389 l 347 1215 l 521 1215 z "},"ŏ":{"ha":868,"x_min":0,"x_max":694,"o":"m 521 1042 l 521 1215 l 694 1215 l 694 1042 l 521 1042 l 521 868 l 174 868 l 174 1042 l 0 1042 l 0 1215 l 174 1215 l 174 1042 l 521 1042 m 521 174 l 521 0 l 174 0 l 174 174 l 0 174 l 0 521 l 174 521 l 174 694 l 521 694 l 521 521 l 694 521 l 694 174 l 521 174 m 521 514 l 174 514 l 174 181 l 521 181 l 521 514 z "},"Ő":{"ha":1042,"x_min":0,"x_max":868,"o":"m 694 1215 l 694 1389 l 868 1389 l 868 1215 l 694 1215 l 694 1042 l 521 1042 l 521 1215 l 347 1215 l 347 1042 l 174 1042 l 174 1215 l 347 1215 l 347 1389 l 521 1389 l 521 1215 l 694 1215 m 694 694 l 868 694 l 868 174 l 694 174 l 694 0 l 174 0 l 174 174 l 0 174 l 0 694 l 174 694 l 174 868 l 694 868 l 694 694 m 694 688 l 174 688 l 174 181 l 694 181 l 694 688 z "},"ő":{"ha":868,"x_min":0,"x_max":694,"o":"m 174 1042 l 174 1215 l 347 1215 l 347 1042 l 521 1042 l 521 1215 l 694 1215 l 694 1042 l 521 1042 l 521 868 l 347 868 l 347 1042 l 174 1042 l 174 868 l 0 868 l 0 1042 l 174 1042 m 521 174 l 521 0 l 174 0 l 174 174 l 0 174 l 0 521 l 174 521 l 174 694 l 521 694 l 521 521 l 694 521 l 694 174 l 521 174 m 521 514 l 174 514 l 174 181 l 521 181 l 521 514 z "},"Ŕ":{"ha":1042,"x_min":0,"x_max":868,"o":"m 688 521 l 688 694 l 174 694 l 174 521 l 688 521 m 868 694 l 868 521 l 694 521 l 694 174 l 868 174 l 868 0 l 694 0 l 694 174 l 521 174 l 521 347 l 174 347 l 174 0 l 0 0 l 0 868 l 694 868 l 694 694 l 868 694 m 347 1215 l 347 1042 l 174 1042 l 174 1215 l 347 1215 l 347 1389 l 521 1389 l 521 1215 l 347 1215 z "},"ŕ":{"ha":694,"x_min":0,"x_max":521,"o":"m 174 694 l 174 521 l 347 521 l 347 694 l 521 694 l 521 521 l 347 521 l 347 347 l 174 347 l 174 0 l 0 0 l 0 694 l 174 694 m 174 868 l 174 1042 l 347 1042 l 347 1215 l 521 1215 l 521 1042 l 347 1042 l 347 868 l 174 868 z "},"Ŗ":{"ha":1042,"x_min":0,"x_max":868,"o":"m 688 521 l 688 694 l 174 694 l 174 521 l 688 521 m 868 694 l 868 521 l 694 521 l 694 174 l 868 174 l 868 0 l 694 0 l 694 174 l 521 174 l 521 347 l 174 347 l 174 0 l 0 0 l 0 868 l 694 868 l 694 694 l 868 694 m 347 -174 l 347 -347 l 174 -347 l 174 -174 l 347 -174 l 347 0 l 521 0 l 521 -174 l 347 -174 z "},"ŗ":{"ha":694,"x_min":0,"x_max":521,"o":"m 174 -174 l 174 -347 l 0 -347 l 0 -174 l 174 -174 l 174 0 l 0 0 l 0 694 l 174 694 l 174 521 l 347 521 l 347 694 l 521 694 l 521 521 l 347 521 l 347 347 l 174 347 l 174 0 l 347 0 l 347 -174 l 174 -174 z "},"Ř":{"ha":1042,"x_min":0,"x_max":868,"o":"m 688 521 l 688 694 l 174 694 l 174 521 l 688 521 m 868 694 l 868 521 l 694 521 l 694 174 l 868 174 l 868 0 l 694 0 l 694 174 l 521 174 l 521 347 l 174 347 l 174 0 l 0 0 l 0 868 l 694 868 l 694 694 l 868 694 m 521 1215 l 521 1389 l 694 1389 l 694 1215 l 521 1215 l 521 1042 l 347 1042 l 347 1215 l 174 1215 l 174 1389 l 347 1389 l 347 1215 l 521 1215 z "},"ř":{"ha":694,"x_min":0,"x_max":521,"o":"m 174 868 l 174 1042 l 0 1042 l 0 1215 l 174 1215 l 174 1042 l 347 1042 l 347 1215 l 521 1215 l 521 1042 l 347 1042 l 347 868 l 174 868 m 174 694 l 174 521 l 347 521 l 347 694 l 521 694 l 521 521 l 347 521 l 347 347 l 174 347 l 174 0 l 0 0 l 0 694 l 174 694 z "},"Ś":{"ha":1042,"x_min":0,"x_max":868,"o":"m 521 1215 l 521 1042 l 347 1042 l 347 1215 l 521 1215 l 521 1389 l 694 1389 l 694 1215 l 521 1215 m 174 868 l 868 868 l 868 694 l 174 694 l 174 521 l 694 521 l 694 347 l 868 347 l 868 174 l 694 174 l 694 0 l 0 0 l 0 174 l 694 174 l 694 347 l 174 347 l 174 521 l 0 521 l 0 694 l 174 694 l 174 868 z "},"ś":{"ha":868,"x_min":0,"x_max":694,"o":"m 694 521 l 347 521 l 347 347 l 694 347 l 694 174 l 521 174 l 521 0 l 0 0 l 0 174 l 347 174 l 347 347 l 0 347 l 0 521 l 174 521 l 174 694 l 694 694 l 694 521 m 174 868 l 174 1042 l 347 1042 l 347 1215 l 521 1215 l 521 1042 l 347 1042 l 347 868 l 174 868 z "},"Ŝ":{"ha":1042,"x_min":0,"x_max":868,"o":"m 174 868 l 868 868 l 868 694 l 174 694 l 174 521 l 694 521 l 694 347 l 868 347 l 868 174 l 694 174 l 694 0 l 0 0 l 0 174 l 694 174 l 694 347 l 174 347 l 174 521 l 0 521 l 0 694 l 174 694 l 174 868 m 521 1215 l 347 1215 l 347 1042 l 174 1042 l 174 1215 l 347 1215 l 347 1389 l 521 1389 l 521 1215 l 694 1215 l 694 1042 l 521 1042 l 521 1215 z "},"ŝ":{"ha":868,"x_min":0,"x_max":694,"o":"m 694 521 l 347 521 l 347 347 l 694 347 l 694 174 l 521 174 l 521 0 l 0 0 l 0 174 l 347 174 l 347 347 l 0 347 l 0 521 l 174 521 l 174 694 l 694 694 l 694 521 m 521 1042 l 174 1042 l 174 868 l 0 868 l 0 1042 l 174 1042 l 174 1215 l 521 1215 l 521 1042 l 694 1042 l 694 868 l 521 868 l 521 1042 z "},"Ş":{"ha":1042,"x_min":0,"x_max":868,"o":"m 347 -174 l 347 -347 l 174 -347 l 174 -174 l 347 -174 l 347 0 l 0 0 l 0 174 l 694 174 l 694 347 l 174 347 l 174 521 l 0 521 l 0 694 l 174 694 l 174 868 l 868 868 l 868 694 l 174 694 l 174 521 l 694 521 l 694 347 l 868 347 l 868 174 l 694 174 l 694 0 l 521 0 l 521 -174 l 347 -174 z "},"ş":{"ha":868,"x_min":0,"x_max":694,"o":"m 174 -174 l 174 -347 l 0 -347 l 0 -174 l 174 -174 l 174 0 l 0 0 l 0 174 l 347 174 l 347 347 l 0 347 l 0 521 l 174 521 l 174 694 l 694 694 l 694 521 l 347 521 l 347 347 l 694 347 l 694 174 l 521 174 l 521 0 l 347 0 l 347 -174 l 174 -174 z "},"Ţ":{"ha":1042,"x_min":0,"x_max":868,"o":"m 521 -174 l 521 -347 l 347 -347 l 347 -174 l 521 -174 l 521 0 l 347 0 l 347 694 l 0 694 l 0 868 l 868 868 l 868 694 l 521 694 l 521 0 l 694 0 l 694 -174 l 521 -174 z "},"ţ":{"ha":694,"x_min":0,"x_max":521,"o":"m 347 -174 l 347 -347 l 174 -347 l 174 -174 l 347 -174 l 347 0 l 174 0 l 174 521 l 0 521 l 0 694 l 174 694 l 174 868 l 347 868 l 347 694 l 521 694 l 521 521 l 347 521 l 347 0 l 521 0 l 521 -174 l 347 -174 z "},"Ť":{"ha":1042,"x_min":0,"x_max":868,"o":"m 868 868 l 868 694 l 521 694 l 521 0 l 347 0 l 347 694 l 0 694 l 0 868 l 868 868 m 521 1215 l 521 1389 l 694 1389 l 694 1215 l 521 1215 l 521 1042 l 347 1042 l 347 1215 l 174 1215 l 174 1389 l 347 1389 l 347 1215 l 521 1215 z "},"ť":{"ha":694,"x_min":0,"x_max":694,"o":"m 354 868 l 354 694 l 514 694 l 514 868 l 354 868 m 521 694 l 521 521 l 347 521 l 347 0 l 174 0 l 174 521 l 0 521 l 0 694 l 174 694 l 174 868 l 347 868 l 347 1042 l 521 1042 l 521 868 l 694 868 l 694 694 l 521 694 z "},"Ŧ":{"ha":1042,"x_min":0,"x_max":868,"o":"m 174 347 l 174 521 l 347 521 l 347 694 l 0 694 l 0 868 l 868 868 l 868 694 l 521 694 l 521 521 l 694 521 l 694 347 l 521 347 l 521 0 l 347 0 l 347 347 l 174 347 z "},"ŧ":{"ha":694,"x_min":0,"x_max":521,"o":"m 0 174 l 0 347 l 174 347 l 174 521 l 0 521 l 0 694 l 174 694 l 174 868 l 347 868 l 347 694 l 521 694 l 521 521 l 347 521 l 347 347 l 521 347 l 521 174 l 347 174 l 347 0 l 174 0 l 174 174 l 0 174 z "},"Ũ":{"ha":1042,"x_min":0,"x_max":868,"o":"m 694 0 l 174 0 l 174 174 l 0 174 l 0 868 l 174 868 l 174 174 l 694 174 l 694 868 l 868 868 l 868 174 l 694 174 l 694 0 m 694 1390 l 868 1390 l 868 1217 l 694 1217 l 694 1043 l 521 1043 l 521 1217 l 347 1217 l 347 1043 l 174 1043 l 174 1217 l 347 1217 l 347 1390 l 521 1390 l 521 1217 l 694 1217 l 694 1390 z "},"ũ":{"ha":868,"x_min":0,"x_max":694,"o":"m 521 694 l 694 694 l 694 0 l 174 0 l 174 174 l 0 174 l 0 694 l 174 694 l 174 174 l 521 174 l 521 694 m 521 1215 l 694 1215 l 694 1042 l 521 1042 l 521 868 l 347 868 l 347 1042 l 174 1042 l 174 868 l 0 868 l 0 1042 l 174 1042 l 174 1215 l 347 1215 l 347 1042 l 521 1042 l 521 1215 z "},"Ū":{"ha":1042,"x_min":0,"x_max":868,"o":"m 694 1215 l 694 1042 l 174 1042 l 174 1215 l 694 1215 m 694 0 l 174 0 l 174 174 l 0 174 l 0 868 l 174 868 l 174 174 l 694 174 l 694 868 l 868 868 l 868 174 l 694 174 l 694 0 z "},"ū":{"ha":868,"x_min":0,"x_max":694,"o":"m 694 1042 l 694 868 l 0 868 l 0 1042 l 694 1042 m 521 694 l 694 694 l 694 0 l 174 0 l 174 174 l 0 174 l 0 694 l 174 694 l 174 174 l 521 174 l 521 694 z "},"Ŭ":{"ha":1042,"x_min":0,"x_max":868,"o":"m 694 0 l 174 0 l 174 174 l 0 174 l 0 868 l 174 868 l 174 174 l 694 174 l 694 868 l 868 868 l 868 174 l 694 174 l 694 0 m 521 1215 l 521 1389 l 694 1389 l 694 1215 l 521 1215 l 521 1042 l 347 1042 l 347 1215 l 174 1215 l 174 1389 l 347 1389 l 347 1215 l 521 1215 z "},"ŭ":{"ha":868,"x_min":0,"x_max":694,"o":"m 521 694 l 694 694 l 694 0 l 174 0 l 174 174 l 0 174 l 0 694 l 174 694 l 174 174 l 521 174 l 521 694 m 521 1042 l 521 1215 l 694 1215 l 694 1042 l 521 1042 l 521 868 l 174 868 l 174 1042 l 0 1042 l 0 1215 l 174 1215 l 174 1042 l 521 1042 z "},"Ů":{"ha":1042,"x_min":0,"x_max":868,"o":"m 694 0 l 174 0 l 174 174 l 0 174 l 0 868 l 174 868 l 174 174 l 694 174 l 694 868 l 868 868 l 868 174 l 694 174 l 694 0 m 521 1042 l 521 868 l 347 868 l 347 1042 l 174 1042 l 174 1215 l 347 1215 l 347 1389 l 521 1389 l 521 1215 l 694 1215 l 694 1042 l 521 1042 m 347 1049 l 521 1049 l 521 1208 l 347 1208 l 347 1049 z "},"ů":{"ha":868,"x_min":0,"x_max":694,"o":"m 521 694 l 694 694 l 694 0 l 174 0 l 174 174 l 0 174 l 0 694 l 174 694 l 174 174 l 521 174 l 521 694 m 521 1042 l 521 868 l 174 868 l 174 1042 l 0 1042 l 0 1215 l 174 1215 l 174 1389 l 521 1389 l 521 1215 l 694 1215 l 694 1042 l 521 1042 m 174 1049 l 521 1049 l 521 1208 l 174 1208 l 174 1049 z "},"Ű":{"ha":1042,"x_min":0,"x_max":868,"o":"m 694 1215 l 694 1389 l 868 1389 l 868 1215 l 694 1215 l 694 1042 l 521 1042 l 521 1215 l 347 1215 l 347 1042 l 174 1042 l 174 1215 l 347 1215 l 347 1389 l 521 1389 l 521 1215 l 694 1215 m 694 0 l 174 0 l 174 174 l 0 174 l 0 868 l 174 868 l 174 174 l 694 174 l 694 868 l 868 868 l 868 174 l 694 174 l 694 0 z "},"ű":{"ha":868,"x_min":0,"x_max":694,"o":"m 174 1042 l 174 1215 l 347 1215 l 347 1042 l 521 1042 l 521 1215 l 694 1215 l 694 1042 l 521 1042 l 521 868 l 347 868 l 347 1042 l 174 1042 l 174 868 l 0 868 l 0 1042 l 174 1042 m 521 694 l 694 694 l 694 0 l 174 0 l 174 174 l 0 174 l 0 694 l 174 694 l 174 174 l 521 174 l 521 694 z "},"Ų":{"ha":1042,"x_min":0,"x_max":868,"o":"m 521 -174 l 347 -174 l 347 0 l 174 0 l 174 174 l 0 174 l 0 868 l 174 868 l 174 174 l 694 174 l 694 868 l 868 868 l 868 174 l 694 174 l 694 0 l 521 0 l 521 -174 l 694 -174 l 694 -347 l 521 -347 l 521 -174 z "},"ų":{"ha":868,"x_min":0,"x_max":694,"o":"m 521 -174 l 347 -174 l 347 0 l 174 0 l 174 174 l 0 174 l 0 694 l 174 694 l 174 174 l 521 174 l 521 694 l 694 694 l 694 0 l 521 0 l 521 -174 l 694 -174 l 694 -347 l 521 -347 l 521 -174 z "},"Ŵ":{"ha":1389,"x_min":0,"x_max":1215,"o":"m 1042 868 l 1215 868 l 1215 174 l 1042 174 l 1042 0 l 694 0 l 694 174 l 521 174 l 521 0 l 174 0 l 174 174 l 0 174 l 0 868 l 174 868 l 174 174 l 521 174 l 521 868 l 694 868 l 694 174 l 1042 174 l 1042 868 m 694 1215 l 521 1215 l 521 1042 l 347 1042 l 347 1215 l 521 1215 l 521 1389 l 694 1389 l 694 1215 l 868 1215 l 868 1042 l 694 1042 l 694 1215 z "},"ŵ":{"ha":1389,"x_min":0,"x_max":1215,"o":"m 694 0 l 694 174 l 521 174 l 521 0 l 174 0 l 174 174 l 0 174 l 0 694 l 174 694 l 174 174 l 521 174 l 521 694 l 694 694 l 694 174 l 1042 174 l 1042 694 l 1215 694 l 1215 174 l 1042 174 l 1042 0 l 694 0 m 694 1042 l 521 1042 l 521 868 l 347 868 l 347 1042 l 521 1042 l 521 1215 l 694 1215 l 694 1042 l 868 1042 l 868 868 l 694 868 l 694 1042 z "},"Ŷ":{"ha":1042,"x_min":0,"x_max":868,"o":"m 694 868 l 868 868 l 868 694 l 694 694 l 694 521 l 521 521 l 521 0 l 347 0 l 347 521 l 174 521 l 174 694 l 0 694 l 0 868 l 174 868 l 174 694 l 347 694 l 347 521 l 521 521 l 521 694 l 694 694 l 694 868 m 521 1215 l 347 1215 l 347 1042 l 174 1042 l 174 1215 l 347 1215 l 347 1389 l 521 1389 l 521 1215 l 694 1215 l 694 1042 l 521 1042 l 521 1215 z "},"ŷ":{"ha":868,"x_min":0,"x_max":694,"o":"m 174 -347 l 174 -174 l 521 -174 l 521 0 l 174 0 l 174 174 l 0 174 l 0 694 l 174 694 l 174 174 l 521 174 l 521 694 l 694 694 l 694 -174 l 521 -174 l 521 -347 l 174 -347 m 521 1042 l 174 1042 l 174 868 l 0 868 l 0 1042 l 174 1042 l 174 1215 l 521 1215 l 521 1042 l 694 1042 l 694 868 l 521 868 l 521 1042 z "},"Ź":{"ha":1042,"x_min":0,"x_max":868,"o":"m 694 694 l 694 521 l 521 521 l 521 347 l 347 347 l 347 174 l 868 174 l 868 0 l 0 0 l 0 174 l 174 174 l 174 347 l 347 347 l 347 521 l 521 521 l 521 694 l 0 694 l 0 868 l 868 868 l 868 694 l 694 694 m 521 1215 l 521 1389 l 694 1389 l 694 1215 l 521 1215 l 521 1042 l 347 1042 l 347 1215 l 521 1215 z "},"ź":{"ha":868,"x_min":0,"x_max":694,"o":"m 347 347 l 347 521 l 0 521 l 0 694 l 694 694 l 694 521 l 521 521 l 521 347 l 347 347 l 347 174 l 694 174 l 694 0 l 0 0 l 0 174 l 174 174 l 174 347 l 347 347 m 347 1042 l 347 1215 l 521 1215 l 521 1042 l 347 1042 l 347 868 l 174 868 l 174 1042 l 347 1042 z "},"Ż":{"ha":1042,"x_min":0,"x_max":868,"o":"m 694 694 l 694 521 l 521 521 l 521 347 l 347 347 l 347 174 l 868 174 l 868 0 l 0 0 l 0 174 l 174 174 l 174 347 l 347 347 l 347 521 l 521 521 l 521 694 l 0 694 l 0 868 l 868 868 l 868 694 l 694 694 m 347 1215 l 521 1215 l 521 1042 l 347 1042 l 347 1215 z "},"ż":{"ha":868,"x_min":0,"x_max":694,"o":"m 347 347 l 347 521 l 0 521 l 0 694 l 694 694 l 694 521 l 521 521 l 521 347 l 347 347 l 347 174 l 694 174 l 694 0 l 0 0 l 0 174 l 174 174 l 174 347 l 347 347 m 347 1042 l 521 1042 l 521 868 l 347 868 l 347 1042 z "},"Ž":{"ha":1042,"x_min":0,"x_max":868,"o":"m 694 694 l 694 521 l 521 521 l 521 347 l 347 347 l 347 174 l 868 174 l 868 0 l 0 0 l 0 174 l 174 174 l 174 347 l 347 347 l 347 521 l 521 521 l 521 694 l 0 694 l 0 868 l 868 868 l 868 694 l 694 694 m 521 1215 l 521 1389 l 694 1389 l 694 1215 l 521 1215 l 521 1042 l 347 1042 l 347 1215 l 174 1215 l 174 1389 l 347 1389 l 347 1215 l 521 1215 z "},"ž":{"ha":868,"x_min":0,"x_max":694,"o":"m 347 347 l 347 521 l 0 521 l 0 694 l 694 694 l 694 521 l 521 521 l 521 347 l 347 347 l 347 174 l 694 174 l 694 0 l 0 0 l 0 174 l 174 174 l 174 347 l 347 347 m 521 1042 l 521 1215 l 694 1215 l 694 1042 l 521 1042 l 521 868 l 174 868 l 174 1042 l 0 1042 l 0 1215 l 174 1215 l 174 1042 l 521 1042 z "},"ſ":{"ha":521,"x_min":0,"x_max":347,"o":"m 347 868 l 347 694 l 174 694 l 174 0 l 0 0 l 0 694 l 174 694 l 174 868 l 347 868 z "},"ƀ":{"ha":868,"x_min":0,"x_max":694,"o":"m 514 521 l 174 521 l 174 174 l 514 174 l 514 521 m 521 1042 l 521 868 l 347 868 l 347 694 l 521 694 l 521 521 l 694 521 l 694 174 l 521 174 l 521 0 l 0 0 l 0 694 l 174 694 l 174 868 l 0 868 l 0 1042 l 174 1042 l 174 868 l 347 868 l 347 1042 l 521 1042 z "},"Ɓ":{"ha":1215,"x_min":0,"x_max":1042,"o":"m 861 174 l 861 347 l 347 347 l 347 174 l 861 174 m 861 521 l 861 694 l 347 694 l 347 521 l 861 521 m 0 868 l 868 868 l 868 694 l 1042 694 l 1042 521 l 868 521 l 868 347 l 1042 347 l 1042 174 l 868 174 l 868 0 l 174 0 l 174 694 l 0 694 l 0 868 z "},"Ƃ":{"ha":1042,"x_min":0,"x_max":868,"o":"m 694 174 l 694 0 l 0 0 l 0 868 l 694 868 l 694 694 l 174 694 l 174 521 l 694 521 l 694 347 l 868 347 l 868 174 l 694 174 m 688 347 l 174 347 l 174 174 l 688 174 l 688 347 z "},"ƃ":{"ha":868,"x_min":0,"x_max":694,"o":"m 521 174 l 521 0 l 0 0 l 0 868 l 694 868 l 694 694 l 174 694 l 174 521 l 521 521 l 521 347 l 694 347 l 694 174 l 521 174 m 514 347 l 174 347 l 174 174 l 514 174 l 514 347 z "},"Ƅ":{"ha":1215,"x_min":0,"x_max":1042,"o":"m 861 347 l 347 347 l 347 174 l 861 174 l 861 347 m 0 694 l 174 694 l 174 868 l 347 868 l 347 521 l 868 521 l 868 347 l 1042 347 l 1042 174 l 868 174 l 868 0 l 174 0 l 174 521 l 0 521 l 0 694 z "},"ƅ":{"ha":1042,"x_min":0,"x_max":868,"o":"m 688 347 l 347 347 l 347 174 l 688 174 l 688 347 m 0 694 l 174 694 l 174 868 l 347 868 l 347 521 l 694 521 l 694 347 l 868 347 l 868 174 l 694 174 l 694 0 l 174 0 l 174 521 l 0 521 l 0 694 z "},"Ɔ":{"ha":1042,"x_min":0,"x_max":868,"o":"m 174 347 l 174 174 l 694 174 l 694 694 l 174 694 l 174 521 l 0 521 l 0 694 l 174 694 l 174 868 l 694 868 l 694 694 l 868 694 l 868 174 l 694 174 l 694 0 l 174 0 l 174 174 l 0 174 l 0 347 l 174 347 z "},"Ƈ":{"ha":1215,"x_min":0,"x_max":1042,"o":"m 868 868 l 1042 868 l 1042 694 l 868 694 l 868 521 l 694 521 l 694 694 l 174 694 l 174 174 l 694 174 l 694 347 l 868 347 l 868 174 l 694 174 l 694 0 l 174 0 l 174 174 l 0 174 l 0 694 l 174 694 l 174 868 l 694 868 l 694 694 l 868 694 l 868 868 z "},"ƈ":{"ha":1042,"x_min":0,"x_max":868,"o":"m 694 0 l 174 0 l 174 174 l 0 174 l 0 521 l 174 521 l 174 694 l 694 694 l 694 521 l 174 521 l 174 174 l 694 174 l 694 0 m 694 868 l 868 868 l 868 694 l 694 694 l 694 868 z "},"Ɖ":{"ha":1215,"x_min":0,"x_max":1042,"o":"m 347 521 l 521 521 l 521 347 l 347 347 l 347 174 l 861 174 l 861 694 l 347 694 l 347 521 m 0 521 l 174 521 l 174 868 l 868 868 l 868 694 l 1042 694 l 1042 174 l 868 174 l 868 0 l 174 0 l 174 347 l 0 347 l 0 521 z "},"Ɗ":{"ha":1215,"x_min":0,"x_max":1042,"o":"m 861 694 l 347 694 l 347 174 l 861 174 l 861 694 m 0 868 l 868 868 l 868 694 l 1042 694 l 1042 174 l 868 174 l 868 0 l 174 0 l 174 694 l 0 694 l 0 868 z "},"Ƌ":{"ha":1042,"x_min":0,"x_max":868,"o":"m 174 174 l 0 174 l 0 347 l 174 347 l 174 521 l 694 521 l 694 694 l 174 694 l 174 868 l 868 868 l 868 0 l 174 0 l 174 174 m 181 347 l 181 174 l 694 174 l 694 347 l 181 347 z "},"ƌ":{"ha":868,"x_min":0,"x_max":694,"o":"m 174 174 l 0 174 l 0 347 l 174 347 l 174 521 l 521 521 l 521 694 l 0 694 l 0 868 l 694 868 l 694 0 l 174 0 l 174 174 m 181 347 l 181 174 l 521 174 l 521 347 l 181 347 z "},"ƍ":{"ha":868,"x_min":0,"x_max":694,"o":"m 521 514 l 174 514 l 174 181 l 521 181 l 521 514 m 521 -174 l 521 -347 l 174 -347 l 174 -174 l 521 -174 l 521 0 l 174 0 l 174 174 l 0 174 l 0 521 l 174 521 l 174 694 l 521 694 l 521 521 l 694 521 l 694 174 l 521 174 l 521 0 l 694 0 l 694 -174 l 521 -174 z "},"Ǝ":{"ha":1042,"x_min":0,"x_max":868,"o":"m 0 694 l 0 868 l 868 868 l 868 0 l 0 0 l 0 174 l 694 174 l 694 347 l 174 347 l 174 521 l 694 521 l 694 694 l 0 694 z "},"Ə":{"ha":868,"x_min":0,"x_max":694,"o":"m 521 174 l 521 0 l 0 0 l 0 174 l 174 174 l 174 347 l 0 347 l 0 694 l 521 694 l 521 521 l 694 521 l 694 174 l 521 174 m 347 181 l 521 181 l 521 514 l 174 514 l 174 354 l 347 354 l 347 181 z "},"Ɛ":{"ha":1042,"x_min":0,"x_max":868,"o":"m 868 347 l 868 174 l 694 174 l 694 0 l 174 0 l 174 174 l 0 174 l 0 347 l 174 347 l 174 521 l 0 521 l 0 694 l 174 694 l 174 868 l 694 868 l 694 694 l 868 694 l 868 521 l 694 521 l 694 694 l 174 694 l 174 521 l 521 521 l 521 347 l 174 347 l 174 174 l 694 174 l 694 347 l 868 347 z "},"Ƒ":{"ha":1215,"x_min":0,"x_max":1042,"o":"m 0 0 l 174 0 l 174 868 l 1042 868 l 1042 694 l 347 694 l 347 521 l 868 521 l 868 347 l 347 347 l 347 0 l 174 0 l 174 -174 l 0 -174 l 0 0 z "},"Ɠ":{"ha":1215,"x_min":0,"x_max":1042,"o":"m 868 1042 l 1042 1042 l 1042 868 l 868 868 l 868 694 l 174 694 l 174 174 l 694 174 l 694 347 l 347 347 l 347 521 l 868 521 l 868 0 l 174 0 l 174 174 l 0 174 l 0 694 l 174 694 l 174 868 l 868 868 l 868 1042 z "},"Ɣ":{"ha":1042,"x_min":0,"x_max":868,"o":"m 694 868 l 868 868 l 868 521 l 694 521 l 694 347 l 521 347 l 521 0 l 347 0 l 347 347 l 174 347 l 174 521 l 0 521 l 0 868 l 174 868 l 174 521 l 347 521 l 347 347 l 521 347 l 521 521 l 694 521 l 694 868 z "},"ƕ":{"ha":1389,"x_min":0,"x_max":1215,"o":"m 1042 174 l 1042 694 l 1215 694 l 1215 174 l 1042 174 l 1042 0 l 694 0 l 694 174 l 521 174 l 521 521 l 174 521 l 174 0 l 0 0 l 0 868 l 174 868 l 174 694 l 521 694 l 521 521 l 694 521 l 694 174 l 1042 174 z "},"Ɩ":{"ha":521,"x_min":0,"x_max":347,"o":"m 174 174 l 347 174 l 347 0 l 174 0 l 174 174 l 0 174 l 0 868 l 174 868 l 174 174 z "},"Ɨ":{"ha":694,"x_min":0,"x_max":521,"o":"m 521 347 l 347 347 l 347 0 l 174 0 l 174 347 l 0 347 l 0 521 l 174 521 l 174 868 l 347 868 l 347 521 l 521 521 l 521 347 z "},"Ƙ":{"ha":1042,"x_min":0,"x_max":868,"o":"m 694 694 l 868 694 l 868 521 l 694 521 l 694 694 l 521 694 l 521 347 l 694 347 l 694 174 l 868 174 l 868 0 l 694 0 l 694 174 l 521 174 l 521 347 l 174 347 l 174 0 l 0 0 l 0 868 l 174 868 l 174 521 l 347 521 l 347 694 l 521 694 l 521 868 l 694 868 l 694 694 z "},"ƙ":{"ha":868,"x_min":0,"x_max":694,"o":"m 174 868 l 347 868 l 347 694 l 174 694 l 174 347 l 347 347 l 347 521 l 521 521 l 521 694 l 694 694 l 694 521 l 521 521 l 521 347 l 694 347 l 694 0 l 521 0 l 521 347 l 347 347 l 347 174 l 174 174 l 174 0 l 0 0 l 0 694 l 174 694 l 174 868 z "},"ƚ":{"ha":694,"x_min":0,"x_max":521,"o":"m 521 347 l 347 347 l 347 0 l 174 0 l 174 347 l 0 347 l 0 521 l 174 521 l 174 868 l 347 868 l 347 521 l 521 521 l 521 347 z "},"ƛ":{"ha":868,"x_min":0,"x_max":694,"o":"m 694 694 l 694 521 l 521 521 l 521 347 l 694 347 l 694 -174 l 521 -174 l 521 174 l 174 174 l 174 -174 l 0 -174 l 0 174 l 174 174 l 174 347 l 347 347 l 347 521 l 0 521 l 0 694 l 347 694 l 347 521 l 521 521 l 521 694 l 694 694 z "},"Ɯ":{"ha":1389,"x_min":0,"x_max":1215,"o":"m 521 0 l 174 0 l 174 174 l 0 174 l 0 694 l 174 694 l 174 174 l 521 174 l 521 694 l 694 694 l 694 174 l 1042 174 l 1042 694 l 1215 694 l 1215 0 l 694 0 l 694 174 l 521 174 l 521 0 z "},"Ɲ":{"ha":1215,"x_min":0,"x_max":1042,"o":"m 0 0 l 174 0 l 174 868 l 347 868 l 347 694 l 521 694 l 521 521 l 694 521 l 694 347 l 868 347 l 868 868 l 1042 868 l 1042 0 l 868 0 l 868 174 l 694 174 l 694 347 l 521 347 l 521 521 l 347 521 l 347 0 l 174 0 l 174 -174 l 0 -174 l 0 0 z "},"ƞ":{"ha":868,"x_min":0,"x_max":694,"o":"m 0 694 l 521 694 l 521 521 l 694 521 l 694 -174 l 521 -174 l 521 521 l 174 521 l 174 0 l 0 0 l 0 694 z "},"Ɵ":{"ha":1042,"x_min":0,"x_max":868,"o":"m 694 347 l 174 347 l 174 181 l 694 181 l 694 347 m 174 521 l 694 521 l 694 688 l 174 688 l 174 521 m 0 694 l 174 694 l 174 868 l 694 868 l 694 694 l 868 694 l 868 174 l 694 174 l 694 0 l 174 0 l 174 174 l 0 174 l 0 694 z "},"Ơ":{"ha":1215,"x_min":0,"x_max":1042,"o":"m 694 688 l 174 688 l 174 181 l 694 181 l 694 688 m 868 868 l 1042 868 l 1042 694 l 868 694 l 868 174 l 694 174 l 694 0 l 174 0 l 174 174 l 0 174 l 0 694 l 174 694 l 174 868 l 694 868 l 694 694 l 868 694 l 868 868 z "},"ơ":{"ha":1042,"x_min":0,"x_max":868,"o":"m 521 514 l 174 514 l 174 181 l 521 181 l 521 514 m 694 694 l 868 694 l 868 521 l 694 521 l 694 174 l 521 174 l 521 0 l 174 0 l 174 174 l 0 174 l 0 521 l 174 521 l 174 694 l 521 694 l 521 521 l 694 521 l 694 694 z "},"Ƣ":{"ha":1215,"x_min":0,"x_max":1042,"o":"m 521 688 l 174 688 l 174 354 l 521 354 l 521 688 m 521 347 l 521 174 l 174 174 l 174 347 l 0 347 l 0 694 l 174 694 l 174 868 l 1042 868 l 1042 0 l 868 0 l 868 694 l 694 694 l 694 347 l 521 347 z "},"ƣ":{"ha":1215,"x_min":0,"x_max":1042,"o":"m 521 174 l 521 0 l 174 0 l 174 174 l 0 174 l 0 521 l 174 521 l 174 694 l 1042 694 l 1042 -174 l 868 -174 l 868 521 l 694 521 l 694 174 l 521 174 m 521 514 l 174 514 l 174 181 l 521 181 l 521 514 z "},"Ƥ":{"ha":1215,"x_min":0,"x_max":1042,"o":"m 347 521 l 861 521 l 861 694 l 347 694 l 347 521 m 0 868 l 868 868 l 868 694 l 1042 694 l 1042 521 l 868 521 l 868 347 l 347 347 l 347 0 l 174 0 l 174 694 l 0 694 l 0 868 z "},"ƥ":{"ha":868,"x_min":0,"x_max":694,"o":"m 174 174 l 521 174 l 521 347 l 174 347 l 174 174 m 347 868 l 347 694 l 174 694 l 174 521 l 521 521 l 521 347 l 694 347 l 694 174 l 521 174 l 521 0 l 174 0 l 174 -174 l 0 -174 l 0 694 l 174 694 l 174 868 l 347 868 z "},"Ʀ":{"ha":1042,"x_min":0,"x_max":868,"o":"m 688 521 l 688 694 l 174 694 l 174 521 l 688 521 m 0 1042 l 174 1042 l 174 868 l 694 868 l 694 694 l 868 694 l 868 521 l 694 521 l 694 174 l 868 174 l 868 0 l 694 0 l 694 174 l 521 174 l 521 347 l 174 347 l 174 0 l 0 0 l 0 1042 z "},"Ƨ":{"ha":1042,"x_min":0,"x_max":868,"o":"m 694 868 l 694 694 l 868 694 l 868 521 l 694 521 l 694 347 l 174 347 l 174 174 l 868 174 l 868 0 l 174 0 l 174 174 l 0 174 l 0 347 l 174 347 l 174 521 l 694 521 l 694 694 l 0 694 l 0 868 l 694 868 z "},"ƨ":{"ha":868,"x_min":0,"x_max":694,"o":"m 0 521 l 0 694 l 521 694 l 521 521 l 694 521 l 694 347 l 347 347 l 347 174 l 694 174 l 694 0 l 174 0 l 174 174 l 0 174 l 0 347 l 347 347 l 347 521 l 0 521 z "},"Ʃ":{"ha":1042,"x_min":0,"x_max":868,"o":"m 868 347 l 868 0 l 0 0 l 0 174 l 174 174 l 174 347 l 347 347 l 347 521 l 174 521 l 174 694 l 0 694 l 0 868 l 868 868 l 868 521 l 694 521 l 694 694 l 347 694 l 347 521 l 521 521 l 521 347 l 347 347 l 347 174 l 694 174 l 694 347 l 868 347 z "},"ƪ":{"ha":694,"x_min":0,"x_max":521,"o":"m 347 0 l 521 0 l 521 -174 l 347 -174 l 347 0 l 174 0 l 174 694 l 0 694 l 0 868 l 174 868 l 174 694 l 347 694 l 347 0 z "},"ƫ":{"ha":694,"x_min":0,"x_max":521,"o":"m 347 -174 l 347 -347 l 174 -347 l 174 -174 l 347 -174 l 347 0 l 174 0 l 174 521 l 0 521 l 0 694 l 174 694 l 174 868 l 347 868 l 347 694 l 521 694 l 521 521 l 347 521 l 347 0 l 521 0 l 521 -174 l 347 -174 z "},"Ƭ":{"ha":1042,"x_min":0,"x_max":868,"o":"m 0 694 l 174 694 l 174 868 l 868 868 l 868 694 l 521 694 l 521 0 l 347 0 l 347 694 l 174 694 l 174 521 l 0 521 l 0 694 z "},"ƭ":{"ha":521,"x_min":0,"x_max":347,"o":"m 174 174 l 347 174 l 347 0 l 174 0 l 174 174 l 0 174 l 0 694 l 174 694 l 174 868 l 347 868 l 347 694 l 174 694 l 174 521 l 347 521 l 347 347 l 174 347 l 174 174 z "},"Ʈ":{"ha":1042,"x_min":0,"x_max":868,"o":"m 521 0 l 694 0 l 694 -174 l 521 -174 l 521 0 l 347 0 l 347 694 l 0 694 l 0 868 l 868 868 l 868 694 l 521 694 l 521 0 z "},"Ư":{"ha":1215,"x_min":0,"x_max":1042,"o":"m 868 1042 l 1042 1042 l 1042 868 l 868 868 l 868 174 l 694 174 l 694 0 l 174 0 l 174 174 l 0 174 l 0 868 l 174 868 l 174 174 l 694 174 l 694 868 l 868 868 l 868 1042 z "},"ư":{"ha":1042,"x_min":0,"x_max":868,"o":"m 868 694 l 694 694 l 694 0 l 174 0 l 174 174 l 0 174 l 0 694 l 174 694 l 174 174 l 521 174 l 521 694 l 694 694 l 694 868 l 868 868 l 868 694 z "},"Ʊ":{"ha":1042,"x_min":0,"x_max":868,"o":"m 174 868 l 347 868 l 347 694 l 174 694 l 174 174 l 694 174 l 694 694 l 521 694 l 521 868 l 694 868 l 694 694 l 868 694 l 868 174 l 694 174 l 694 0 l 174 0 l 174 174 l 0 174 l 0 694 l 174 694 l 174 868 z "},"Ʋ":{"ha":1042,"x_min":0,"x_max":868,"o":"m 521 868 l 694 868 l 694 694 l 868 694 l 868 174 l 694 174 l 694 0 l 174 0 l 174 174 l 0 174 l 0 868 l 174 868 l 174 174 l 694 174 l 694 694 l 521 694 l 521 868 z "},"Ƴ":{"ha":1215,"x_min":0,"x_max":1042,"o":"m 0 694 l 174 694 l 174 868 l 347 868 l 347 694 l 521 694 l 521 521 l 694 521 l 694 694 l 868 694 l 868 868 l 1042 868 l 1042 694 l 868 694 l 868 521 l 694 521 l 694 0 l 521 0 l 521 521 l 347 521 l 347 694 l 174 694 l 174 521 l 0 521 l 0 694 z "},"ƴ":{"ha":1042,"x_min":0,"x_max":868,"o":"m 694 868 l 868 868 l 868 694 l 694 694 l 694 -174 l 521 -174 l 521 -347 l 174 -347 l 174 -174 l 521 -174 l 521 0 l 174 0 l 174 174 l 0 174 l 0 694 l 174 694 l 174 174 l 521 174 l 521 694 l 694 694 l 694 868 z "},"Ƶ":{"ha":1042,"x_min":0,"x_max":868,"o":"m 694 694 l 694 521 l 868 521 l 868 347 l 347 347 l 347 174 l 868 174 l 868 0 l 0 0 l 0 174 l 174 174 l 174 347 l 0 347 l 0 521 l 521 521 l 521 694 l 0 694 l 0 868 l 868 868 l 868 694 l 694 694 z "},"ƶ":{"ha":868,"x_min":0,"x_max":694,"o":"m 347 347 l 347 521 l 0 521 l 0 694 l 694 694 l 694 521 l 521 521 l 521 174 l 694 174 l 694 0 l 0 0 l 0 174 l 174 174 l 174 347 l 347 347 z "},"Ʒ":{"ha":868,"x_min":0,"x_max":694,"o":"m 0 0 l 0 174 l 521 174 l 521 347 l 174 347 l 174 521 l 347 521 l 347 694 l 0 694 l 0 868 l 694 868 l 694 694 l 521 694 l 521 347 l 694 347 l 694 174 l 521 174 l 521 0 l 0 0 z "},"Ƹ":{"ha":868,"x_min":0,"x_max":694,"o":"m 694 0 l 174 0 l 174 174 l 0 174 l 0 347 l 174 347 l 174 694 l 0 694 l 0 868 l 694 868 l 694 694 l 347 694 l 347 521 l 521 521 l 521 347 l 174 347 l 174 174 l 694 174 l 694 0 z "},"ƹ":{"ha":868,"x_min":0,"x_max":694,"o":"m 694 -174 l 174 -174 l 174 0 l 0 0 l 0 174 l 174 174 l 174 521 l 0 521 l 0 694 l 694 694 l 694 521 l 347 521 l 347 347 l 521 347 l 521 174 l 174 174 l 174 0 l 694 0 l 694 -174 z "},"ƺ":{"ha":868,"x_min":0,"x_max":694,"o":"m 521 -174 l 174 -174 l 174 0 l 0 0 l 0 174 l 174 174 l 174 347 l 347 347 l 347 521 l 0 521 l 0 694 l 694 694 l 694 521 l 521 521 l 521 347 l 694 347 l 694 174 l 174 174 l 174 0 l 521 0 l 521 -174 z "},"ƻ":{"ha":1042,"x_min":0,"x_max":868,"o":"m 694 694 l 868 694 l 868 347 l 347 347 l 347 174 l 868 174 l 868 0 l 0 0 l 0 174 l 174 174 l 174 347 l 0 347 l 0 521 l 694 521 l 694 694 m 694 868 l 694 694 l 0 694 l 0 868 l 694 868 z "},"Ƽ":{"ha":1042,"x_min":0,"x_max":868,"o":"m 868 868 l 868 694 l 174 694 l 174 521 l 694 521 l 694 347 l 868 347 l 868 174 l 694 174 l 694 0 l 0 0 l 0 174 l 694 174 l 694 347 l 174 347 l 174 521 l 0 521 l 0 868 l 868 868 z "},"ƽ":{"ha":868,"x_min":0,"x_max":694,"o":"m 694 694 l 694 521 l 174 521 l 174 347 l 521 347 l 521 174 l 694 174 l 694 0 l 521 0 l 521 -174 l 0 -174 l 0 0 l 521 0 l 521 174 l 174 174 l 174 347 l 0 347 l 0 694 l 694 694 z "},"ƾ":{"ha":694,"x_min":0,"x_max":521,"o":"m 521 174 l 347 174 l 347 0 l 0 0 l 0 174 l 347 174 l 347 347 l 174 347 l 174 521 l 0 521 l 0 694 l 174 694 l 174 868 l 347 868 l 347 694 l 521 694 l 521 521 l 347 521 l 347 347 l 521 347 l 521 174 z "},"ƿ":{"ha":868,"x_min":0,"x_max":694,"o":"m 347 -174 l 347 -347 l 0 -347 l 0 694 l 521 694 l 521 521 l 694 521 l 694 0 l 521 0 l 521 -174 l 347 -174 m 174 -174 l 347 -174 l 347 0 l 521 0 l 521 521 l 174 521 l 174 -174 z "},"ǀ":{"ha":347,"x_min":0,"x_max":174,"o":"m 0 868 l 174 868 l 174 0 l 0 0 l 0 868 z "},"ǁ":{"ha":694,"x_min":0,"x_max":521,"o":"m 0 868 l 174 868 l 174 0 l 0 0 l 0 868 m 347 868 l 521 868 l 521 0 l 347 0 l 347 868 z "},"ǂ":{"ha":694,"x_min":0,"x_max":521,"o":"m 521 174 l 347 174 l 347 0 l 174 0 l 174 174 l 0 174 l 0 347 l 174 347 l 174 521 l 0 521 l 0 694 l 174 694 l 174 868 l 347 868 l 347 694 l 521 694 l 521 521 l 347 521 l 347 347 l 521 347 l 521 174 z "},"ǃ":{"ha":521,"x_min":174,"x_max":347,"o":"m 174 174 l 347 174 l 347 0 l 174 0 l 174 174 m 347 868 l 347 347 l 174 347 l 174 868 l 347 868 z "},"Ǆ":{"ha":2083,"x_min":0,"x_max":1910,"o":"m 694 694 l 868 694 l 868 174 l 694 174 l 694 0 l 0 0 l 0 868 l 694 868 l 694 694 m 688 694 l 174 694 l 174 174 l 688 174 l 688 694 m 1736 694 l 1736 521 l 1563 521 l 1563 347 l 1389 347 l 1389 174 l 1910 174 l 1910 0 l 1042 0 l 1042 174 l 1215 174 l 1215 347 l 1389 347 l 1389 521 l 1563 521 l 1563 694 l 1042 694 l 1042 868 l 1910 868 l 1910 694 l 1736 694 m 1563 1215 l 1563 1389 l 1736 1389 l 1736 1215 l 1563 1215 l 1563 1042 l 1389 1042 l 1389 1215 l 1215 1215 l 1215 1389 l 1389 1389 l 1389 1215 l 1563 1215 z "},"ǅ":{"ha":1910,"x_min":0,"x_max":1736,"o":"m 694 694 l 868 694 l 868 174 l 694 174 l 694 0 l 0 0 l 0 868 l 694 868 l 694 694 m 688 694 l 174 694 l 174 174 l 688 174 l 688 694 m 1389 347 l 1389 521 l 1042 521 l 1042 694 l 1736 694 l 1736 521 l 1563 521 l 1563 347 l 1389 347 l 1389 174 l 1736 174 l 1736 0 l 1042 0 l 1042 174 l 1215 174 l 1215 347 l 1389 347 m 1563 1042 l 1563 1215 l 1736 1215 l 1736 1042 l 1563 1042 l 1563 868 l 1215 868 l 1215 1042 l 1042 1042 l 1042 1215 l 1215 1215 l 1215 1042 l 1563 1042 z "},"ǆ":{"ha":1736,"x_min":0,"x_max":1563,"o":"m 174 174 l 0 174 l 0 521 l 174 521 l 174 694 l 521 694 l 521 868 l 694 868 l 694 0 l 174 0 l 174 174 m 181 521 l 181 174 l 521 174 l 521 521 l 181 521 m 1215 347 l 1215 521 l 868 521 l 868 694 l 1563 694 l 1563 521 l 1389 521 l 1389 347 l 1215 347 l 1215 174 l 1563 174 l 1563 0 l 868 0 l 868 174 l 1042 174 l 1042 347 l 1215 347 m 1389 1042 l 1389 1215 l 1563 1215 l 1563 1042 l 1389 1042 l 1389 868 l 1042 868 l 1042 1042 l 868 1042 l 868 1215 l 1042 1215 l 1042 1042 l 1389 1042 z "},"Ǉ":{"ha":1389,"x_min":0,"x_max":1215,"o":"m 174 174 l 519 174 l 519 0 l 0 0 l 0 868 l 174 868 l 174 174 m 1042 174 l 1042 0 l 689 0 l 689 174 l 1042 174 l 1042 868 l 1215 868 l 1215 174 l 1042 174 z "},"ǈ":{"ha":1042,"x_min":0,"x_max":868,"o":"m 174 174 l 521 174 l 521 0 l 0 0 l 0 868 l 174 868 l 174 174 m 694 -174 l 694 521 l 868 521 l 868 -174 l 694 -174 m 521 -347 l 521 -174 l 694 -174 l 694 -347 l 521 -347 m 694 868 l 868 868 l 868 694 l 694 694 l 694 868 z "},"ǉ":{"ha":694,"x_min":0,"x_max":521,"o":"m 0 868 l 174 868 l 174 0 l 0 0 l 0 868 m 347 -174 l 347 521 l 521 521 l 521 -174 l 347 -174 m 174 -347 l 174 -174 l 347 -174 l 347 -347 l 174 -347 m 347 868 l 521 868 l 521 694 l 347 694 l 347 868 z "},"Ǌ":{"ha":1736,"x_min":0,"x_max":1563,"o":"m 694 174 l 521 174 l 521 347 l 347 347 l 347 521 l 174 521 l 174 0 l 0 0 l 0 868 l 174 868 l 174 694 l 347 694 l 347 521 l 521 521 l 521 347 l 694 347 l 694 868 l 868 868 l 868 0 l 694 0 l 694 174 m 1389 174 l 1389 0 l 1036 0 l 1036 174 l 1389 174 l 1389 868 l 1563 868 l 1563 174 l 1389 174 z "},"ǋ":{"ha":1389,"x_min":0,"x_max":1215,"o":"m 694 174 l 521 174 l 521 347 l 347 347 l 347 521 l 174 521 l 174 0 l 0 0 l 0 868 l 174 868 l 174 694 l 347 694 l 347 521 l 521 521 l 521 347 l 694 347 l 694 868 l 868 868 l 868 0 l 694 0 l 694 174 m 1042 -174 l 1042 521 l 1215 521 l 1215 -174 l 1042 -174 m 868 -347 l 868 -174 l 1042 -174 l 1042 -347 l 868 -347 m 1042 868 l 1215 868 l 1215 694 l 1042 694 l 1042 868 z "},"ǌ":{"ha":1215,"x_min":0,"x_max":1042,"o":"m 0 694 l 521 694 l 521 521 l 694 521 l 694 0 l 521 0 l 521 521 l 174 521 l 174 0 l 0 0 l 0 694 m 868 -174 l 868 521 l 1042 521 l 1042 -174 l 868 -174 m 694 -347 l 694 -174 l 868 -174 l 868 -347 l 694 -347 m 868 868 l 1042 868 l 1042 694 l 868 694 l 868 868 z "},"Ǎ":{"ha":1042,"x_min":0,"x_max":868,"o":"m 521 1215 l 521 1389 l 694 1389 l 694 1215 l 521 1215 l 521 1042 l 347 1042 l 347 1215 l 174 1215 l 174 1389 l 347 1389 l 347 1215 l 521 1215 m 694 694 l 868 694 l 868 0 l 694 0 l 694 347 l 174 347 l 174 0 l 0 0 l 0 694 l 174 694 l 174 868 l 694 868 l 694 694 m 694 688 l 174 688 l 174 521 l 694 521 l 694 688 z "},"ǎ":{"ha":868,"x_min":0,"x_max":694,"o":"m 174 174 l 0 174 l 0 521 l 174 521 l 174 694 l 521 694 l 521 521 l 694 521 l 694 0 l 174 0 l 174 174 m 521 514 l 174 514 l 174 181 l 521 181 l 521 514 m 521 1042 l 521 1215 l 694 1215 l 694 1042 l 521 1042 l 521 868 l 174 868 l 174 1042 l 0 1042 l 0 1215 l 174 1215 l 174 1042 l 521 1042 z "},"Ǐ":{"ha":347,"x_min":-174,"x_max":347,"o":"m 174 1215 l 174 1389 l 347 1389 l 347 1215 l 174 1215 l 174 1042 l 0 1042 l 0 1215 l -174 1215 l -174 1389 l 0 1389 l 0 1215 l 174 1215 m 0 868 l 174 868 l 174 0 l 0 0 l 0 868 z "},"ǐ":{"ha":347,"x_min":-174,"x_max":347,"o":"m 0 0 l 0 521 l 174 521 l 174 0 l 0 0 m 174 868 l 174 1042 l 347 1042 l 347 868 l 174 868 l 174 694 l 0 694 l 0 868 l -174 868 l -174 1042 l 0 1042 l 0 868 l 174 868 z "},"Ǒ":{"ha":1042,"x_min":0,"x_max":868,"o":"m 694 694 l 868 694 l 868 174 l 694 174 l 694 0 l 174 0 l 174 174 l 0 174 l 0 694 l 174 694 l 174 868 l 694 868 l 694 694 m 694 688 l 174 688 l 174 181 l 694 181 l 694 688 m 521 1215 l 521 1389 l 694 1389 l 694 1215 l 521 1215 l 521 1042 l 347 1042 l 347 1215 l 174 1215 l 174 1389 l 347 1389 l 347 1215 l 521 1215 z "},"ǒ":{"ha":868,"x_min":0,"x_max":694,"o":"m 521 1042 l 521 1215 l 694 1215 l 694 1042 l 521 1042 l 521 868 l 174 868 l 174 1042 l 0 1042 l 0 1215 l 174 1215 l 174 1042 l 521 1042 m 521 174 l 521 0 l 174 0 l 174 174 l 0 174 l 0 521 l 174 521 l 174 694 l 521 694 l 521 521 l 694 521 l 694 174 l 521 174 m 521 514 l 174 514 l 174 181 l 521 181 l 521 514 z "},"Ǔ":{"ha":1042,"x_min":0,"x_max":868,"o":"m 694 0 l 174 0 l 174 174 l 0 174 l 0 868 l 174 868 l 174 174 l 694 174 l 694 868 l 868 868 l 868 174 l 694 174 l 694 0 m 521 1215 l 521 1389 l 694 1389 l 694 1215 l 521 1215 l 521 1042 l 347 1042 l 347 1215 l 174 1215 l 174 1389 l 347 1389 l 347 1215 l 521 1215 z "},"ǔ":{"ha":868,"x_min":0,"x_max":694,"o":"m 521 694 l 694 694 l 694 0 l 174 0 l 174 174 l 0 174 l 0 694 l 174 694 l 174 174 l 521 174 l 521 694 m 521 1042 l 521 1215 l 694 1215 l 694 1042 l 521 1042 l 521 868 l 174 868 l 174 1042 l 0 1042 l 0 1215 l 174 1215 l 174 1042 l 521 1042 z "},"Ǖ":{"ha":1042,"x_min":0,"x_max":868,"o":"m 694 0 l 174 0 l 174 174 l 0 174 l 0 868 l 174 868 l 174 174 l 694 174 l 694 868 l 868 868 l 868 174 l 694 174 l 694 0 m 694 1389 l 694 1042 l 521 1042 l 521 1215 l 347 1215 l 347 1042 l 174 1042 l 174 1389 l 694 1389 z "},"ǖ":{"ha":868,"x_min":0,"x_max":694,"o":"m 521 694 l 694 694 l 694 0 l 174 0 l 174 174 l 0 174 l 0 694 l 174 694 l 174 174 l 521 174 l 521 694 m 694 1215 l 694 868 l 521 868 l 521 1042 l 174 1042 l 174 868 l 0 868 l 0 1215 l 694 1215 z "},"Ǘ":{"ha":1042,"x_min":0,"x_max":868,"o":"m 694 0 l 174 0 l 174 174 l 0 174 l 0 868 l 174 868 l 174 174 l 694 174 l 694 868 l 868 868 l 868 174 l 694 174 l 694 0 m 174 1215 l 174 1042 l 0 1042 l 0 1215 l 174 1215 l 174 1389 l 347 1389 l 347 1563 l 521 1563 l 521 1389 l 347 1389 l 347 1215 l 174 1215 m 521 1215 l 694 1215 l 694 1042 l 521 1042 l 521 1215 z "},"ǘ":{"ha":868,"x_min":0,"x_max":694,"o":"m 521 694 l 694 694 l 694 0 l 174 0 l 174 174 l 0 174 l 0 694 l 174 694 l 174 174 l 521 174 l 521 694 m 174 1042 l 174 868 l 0 868 l 0 1042 l 174 1042 l 174 1215 l 347 1215 l 347 1389 l 521 1389 l 521 1215 l 347 1215 l 347 1042 l 174 1042 m 521 1042 l 694 1042 l 694 868 l 521 868 l 521 1042 z "},"Ǚ":{"ha":1042,"x_min":0,"x_max":868,"o":"m 694 0 l 174 0 l 174 174 l 0 174 l 0 868 l 174 868 l 174 174 l 694 174 l 694 868 l 868 868 l 868 174 l 694 174 l 694 0 m 521 1389 l 521 1563 l 694 1563 l 694 1389 l 521 1389 l 521 1215 l 694 1215 l 694 1042 l 521 1042 l 521 1215 l 347 1215 q 347 1042 347 1044 l 174 1042 l 174 1215 l 347 1215 l 347 1389 l 174 1389 l 174 1563 l 347 1563 l 347 1389 l 521 1389 z "},"ǚ":{"ha":868,"x_min":0,"x_max":694,"o":"m 521 694 l 694 694 l 694 0 l 174 0 l 174 174 l 0 174 l 0 694 l 174 694 l 174 174 l 521 174 l 521 694 m 521 1215 l 521 1389 l 694 1389 l 694 1215 l 521 1215 l 521 1042 l 694 1042 l 694 868 l 521 868 l 521 1042 l 174 1042 q 174 868 174 871 l 0 868 l 0 1042 l 174 1042 l 174 1215 l 0 1215 l 0 1389 l 174 1389 l 174 1215 l 521 1215 z "},"Ǜ":{"ha":1042,"x_min":0,"x_max":868,"o":"m 694 0 l 174 0 l 174 174 l 0 174 l 0 868 l 174 868 l 174 174 l 694 174 l 694 868 l 868 868 l 868 174 l 694 174 l 694 0 m 521 1215 l 347 1215 l 347 1389 l 174 1389 l 174 1563 l 347 1563 l 347 1389 l 521 1389 l 521 1215 l 694 1215 l 694 1042 l 521 1042 l 521 1215 m 174 1215 l 174 1042 l 0 1042 l 0 1215 l 174 1215 z "},"ǜ":{"ha":868,"x_min":0,"x_max":694,"o":"m 521 694 l 694 694 l 694 0 l 174 0 l 174 174 l 0 174 l 0 694 l 174 694 l 174 174 l 521 174 l 521 694 m 521 1042 l 347 1042 l 347 1215 l 174 1215 l 174 1389 l 347 1389 l 347 1215 l 521 1215 l 521 1042 l 694 1042 l 694 868 l 521 868 l 521 1042 m 174 1042 l 174 868 l 0 868 l 0 1042 l 174 1042 z "},"ǝ":{"ha":868,"x_min":0,"x_max":694,"o":"m 521 521 l 694 521 l 694 174 l 521 174 l 521 0 l 0 0 l 0 347 l 174 347 l 174 521 l 0 521 l 0 694 l 521 694 l 521 521 m 347 514 l 347 340 l 174 340 l 174 181 l 521 181 l 521 514 l 347 514 z "},"Ǟ":{"ha":1042,"x_min":0,"x_max":868,"o":"m 694 1389 l 694 1042 l 521 1042 l 521 1215 l 347 1215 l 347 1042 l 174 1042 l 174 1389 l 694 1389 m 694 694 l 868 694 l 868 0 l 694 0 l 694 347 l 174 347 l 174 0 l 0 0 l 0 694 l 174 694 l 174 868 l 694 868 l 694 694 m 694 688 l 174 688 l 174 521 l 694 521 l 694 688 z "},"ǟ":{"ha":868,"x_min":0,"x_max":694,"o":"m 174 174 l 0 174 l 0 521 l 174 521 l 174 694 l 521 694 l 521 521 l 694 521 l 694 0 l 174 0 l 174 174 m 521 514 l 174 514 l 174 181 l 521 181 l 521 514 m 694 1215 l 694 868 l 521 868 l 521 1042 l 174 1042 l 174 868 l 0 868 l 0 1215 l 694 1215 z "},"Ǡ":{"ha":1042,"x_min":0,"x_max":868,"o":"m 347 1215 l 521 1215 l 521 1042 l 347 1042 l 347 1215 m 694 1563 l 694 1389 l 174 1389 l 174 1563 l 694 1563 m 694 694 l 868 694 l 868 0 l 694 0 l 694 347 l 174 347 l 174 0 l 0 0 l 0 694 l 174 694 l 174 868 l 694 868 l 694 694 m 694 688 l 174 688 l 174 521 l 694 521 l 694 688 z "},"ǡ":{"ha":868,"x_min":0,"x_max":694,"o":"m 347 1042 l 521 1042 l 521 868 l 347 868 l 347 1042 m 174 174 l 0 174 l 0 521 l 174 521 l 174 694 l 521 694 l 521 521 l 694 521 l 694 0 l 174 0 l 174 174 m 521 514 l 174 514 l 174 181 l 521 181 l 521 514 m 694 1389 l 694 1215 l 0 1215 l 0 1389 l 694 1389 z "},"Ǣ":{"ha":1736,"x_min":0,"x_max":1563,"o":"m 868 694 l 868 521 l 1389 521 l 1389 347 l 868 347 l 868 174 l 1563 174 l 1563 0 l 694 0 l 694 347 l 174 347 l 174 0 l 0 0 l 0 694 l 174 694 l 174 868 l 1563 868 l 1563 694 l 868 694 m 694 692 l 181 692 l 181 521 l 694 521 l 694 692 m 1215 1215 l 1215 1042 l 694 1042 l 694 1215 l 1215 1215 z "},"ǣ":{"ha":1389,"x_min":0,"x_max":1215,"o":"m 521 514 l 174 514 l 174 181 l 521 181 l 521 514 m 174 0 l 174 174 l 0 174 l 0 521 l 174 521 l 174 694 l 521 694 l 521 521 l 694 521 l 694 694 l 1215 694 l 1215 347 l 1042 347 l 1042 174 l 1215 174 l 1215 0 l 174 0 m 868 181 l 868 354 l 1042 354 l 1042 514 l 694 514 l 694 181 l 868 181 m 1042 1042 l 1042 868 l 347 868 l 347 1042 l 1042 1042 z "},"Ǥ":{"ha":1042,"x_min":0,"x_max":868,"o":"m 694 694 l 868 694 l 868 0 l 174 0 l 174 174 l 0 174 l 0 694 l 174 694 l 174 868 l 521 868 l 521 694 l 174 694 l 174 174 l 694 174 l 694 347 l 347 347 l 347 521 l 694 521 l 694 694 z "},"ǥ":{"ha":868,"x_min":0,"x_max":694,"o":"m 521 514 l 174 514 l 174 181 l 521 181 l 521 514 m 694 -347 l 174 -347 l 174 -174 l 521 -174 q 521 0 521 -171 l 174 0 l 174 174 l 0 174 l 0 521 l 174 521 l 174 694 l 521 694 l 521 521 l 694 521 l 694 -347 z "},"Ǧ":{"ha":1042,"x_min":0,"x_max":868,"o":"m 868 521 l 868 0 l 174 0 l 174 174 l 0 174 l 0 694 l 174 694 l 174 868 l 868 868 l 868 694 l 174 694 l 174 174 l 694 174 l 694 347 l 347 347 l 347 521 l 868 521 m 521 1215 l 521 1389 l 694 1389 l 694 1215 l 521 1215 l 521 1042 l 347 1042 l 347 1215 l 174 1215 l 174 1389 l 347 1389 l 347 1215 l 521 1215 z "},"ǧ":{"ha":868,"x_min":0,"x_max":694,"o":"m 521 514 l 174 514 l 174 181 l 521 181 l 521 514 m 521 694 l 521 521 l 694 521 l 694 -174 l 521 -174 l 521 -347 l 174 -347 l 174 -174 l 521 -174 q 521 0 521 -171 l 174 0 q 174 174 174 3 l 0 174 l 0 521 l 174 521 l 174 694 l 521 694 m 521 1042 l 521 1215 l 694 1215 l 694 1042 l 521 1042 l 521 868 l 174 868 l 174 1042 l 0 1042 l 0 1215 l 174 1215 l 174 1042 l 521 1042 z "},"Ǩ":{"ha":1042,"x_min":0,"x_max":868,"o":"m 174 521 l 521 521 l 521 694 l 694 694 l 694 868 l 868 868 l 868 694 l 694 694 l 694 521 l 521 521 l 521 347 l 694 347 l 694 174 l 868 174 l 868 0 l 694 0 l 694 174 l 521 174 l 521 347 l 174 347 l 174 0 l 0 0 l 0 868 l 174 868 l 174 521 m 521 1215 l 521 1389 l 694 1389 l 694 1215 l 521 1215 l 521 1042 l 347 1042 l 347 1215 l 174 1215 l 174 1389 l 347 1389 l 347 1215 l 521 1215 z "},"ǩ":{"ha":868,"x_min":0,"x_max":694,"o":"m 521 0 l 521 347 l 347 347 l 347 174 l 174 174 l 174 0 l 0 0 l 0 868 l 174 868 l 174 347 l 347 347 l 347 521 l 521 521 l 521 694 l 694 694 l 694 521 l 521 521 l 521 347 l 694 347 l 694 0 l 521 0 m 521 1042 l 521 1215 l 694 1215 l 694 1042 l 521 1042 l 521 868 l 174 868 l 174 1042 l 0 1042 l 0 1215 l 174 1215 l 174 1042 l 521 1042 z "},"Ǫ":{"ha":1042,"x_min":0,"x_max":868,"o":"m 694 688 l 174 688 l 174 181 l 694 181 l 694 688 m 521 -174 l 347 -174 l 347 0 l 174 0 l 174 174 l 0 174 l 0 694 l 174 694 l 174 868 l 694 868 l 694 694 l 868 694 l 868 174 l 694 174 l 694 0 l 521 0 l 521 -174 l 694 -174 l 694 -347 l 521 -347 l 521 -174 z "},"ǫ":{"ha":868,"x_min":0,"x_max":694,"o":"m 521 174 l 521 0 l 347 0 l 347 -174 l 521 -174 l 521 -347 l 347 -347 l 347 -174 l 174 -174 l 174 174 l 0 174 l 0 521 l 174 521 l 174 694 l 521 694 l 521 521 l 694 521 l 694 174 l 521 174 m 521 514 l 174 514 l 174 181 l 521 181 l 521 514 z "},"Ǭ":{"ha":1042,"x_min":0,"x_max":868,"o":"m 694 688 l 174 688 l 174 181 l 694 181 l 694 688 m 521 -174 l 347 -174 l 347 0 l 174 0 l 174 174 l 0 174 l 0 694 l 174 694 l 174 868 l 694 868 l 694 694 l 868 694 l 868 174 l 694 174 l 694 0 l 521 0 l 521 -174 l 694 -174 l 694 -347 l 521 -347 l 521 -174 m 694 1215 l 694 1042 l 174 1042 l 174 1215 l 694 1215 z "},"ǭ":{"ha":868,"x_min":0,"x_max":694,"o":"m 521 174 l 521 0 l 347 0 l 347 -174 l 521 -174 l 521 -347 l 347 -347 l 347 -174 l 174 -174 l 174 174 l 0 174 l 0 521 l 174 521 l 174 694 l 521 694 l 521 521 l 694 521 l 694 174 l 521 174 m 521 514 l 174 514 l 174 181 l 521 181 l 521 514 m 694 1042 l 694 868 l 0 868 l 0 1042 l 694 1042 z "},"Ǯ":{"ha":868,"x_min":0,"x_max":694,"o":"m 0 0 l 0 174 l 521 174 l 521 347 l 174 347 l 174 521 l 347 521 l 347 694 l 0 694 l 0 868 l 694 868 l 694 694 l 521 694 l 521 347 l 694 347 l 694 174 l 521 174 l 521 0 l 0 0 m 521 1215 l 521 1389 l 694 1389 l 694 1215 l 521 1215 l 521 1042 l 347 1042 l 347 1215 l 174 1215 l 174 1389 l 347 1389 l 347 1215 l 521 1215 z "},"ǯ":{"ha":868,"x_min":0,"x_max":694,"o":"m 0 -174 l 0 0 l 521 0 l 521 174 l 174 174 l 174 347 l 347 347 l 347 521 l 0 521 l 0 694 l 694 694 l 694 521 l 521 521 l 521 174 l 694 174 l 694 0 l 521 0 l 521 -174 l 0 -174 m 521 1042 l 521 1215 l 694 1215 l 694 1042 l 521 1042 l 521 868 l 174 868 l 174 1042 l 0 1042 l 0 1215 l 174 1215 l 174 1042 l 521 1042 z "},"ǰ":{"ha":347,"x_min":-174,"x_max":347,"o":"m 0 -174 l 0 521 l 174 521 l 174 -174 l 0 -174 m -174 -347 l -174 -174 l 0 -174 l 0 -347 l -174 -347 m 174 868 l 174 1042 l 347 1042 l 347 868 l 174 868 l 174 694 l 0 694 l 0 868 l -174 868 l -174 1042 l 0 1042 l 0 868 l 174 868 z "},"Ǳ":{"ha":2083,"x_min":0,"x_max":1910,"o":"m 694 694 l 868 694 l 868 174 l 694 174 l 694 0 l 0 0 l 0 868 l 694 868 l 694 694 m 688 694 l 174 694 l 174 174 l 688 174 l 688 694 m 1736 694 l 1736 521 l 1563 521 l 1563 347 l 1389 347 l 1389 174 l 1910 174 l 1910 0 l 1042 0 l 1042 174 l 1215 174 l 1215 347 l 1389 347 l 1389 521 l 1563 521 l 1563 694 l 1042 694 l 1042 868 l 1910 868 l 1910 694 l 1736 694 z "},"ǲ":{"ha":1910,"x_min":0,"x_max":1736,"o":"m 694 694 l 868 694 l 868 174 l 694 174 l 694 0 l 0 0 l 0 868 l 694 868 l 694 694 m 688 694 l 174 694 l 174 174 l 688 174 l 688 694 m 1389 347 l 1389 521 l 1042 521 l 1042 694 l 1736 694 l 1736 521 l 1563 521 l 1563 347 l 1389 347 l 1389 174 l 1736 174 l 1736 0 l 1042 0 l 1042 174 l 1215 174 l 1215 347 l 1389 347 z "},"ǳ":{"ha":1736,"x_min":0,"x_max":1563,"o":"m 174 174 l 0 174 l 0 521 l 174 521 l 174 694 l 521 694 l 521 868 l 694 868 l 694 0 l 174 0 l 174 174 m 181 521 l 181 174 l 521 174 l 521 521 l 181 521 m 1215 347 l 1215 521 l 868 521 l 868 694 l 1563 694 l 1563 521 l 1389 521 l 1389 347 l 1215 347 l 1215 174 l 1563 174 l 1563 0 l 868 0 l 868 174 l 1042 174 l 1042 347 l 1215 347 z "},"Ǵ":{"ha":1042,"x_min":0,"x_max":868,"o":"m 868 521 l 868 0 l 174 0 l 174 174 l 0 174 l 0 694 l 174 694 l 174 868 l 868 868 l 868 694 l 174 694 l 174 174 l 694 174 l 694 347 l 347 347 l 347 521 l 868 521 m 521 1389 l 694 1389 l 694 1215 l 521 1215 l 521 1042 l 347 1042 l 347 1215 l 521 1215 l 521 1389 z "},"ǵ":{"ha":868,"x_min":0,"x_max":694,"o":"m 521 514 l 174 514 l 174 181 l 521 181 l 521 514 m 521 694 l 521 521 l 694 521 l 694 -174 l 521 -174 l 521 -347 l 174 -347 l 174 -174 l 521 -174 q 521 0 521 -171 l 174 0 q 174 174 174 3 l 0 174 l 0 521 l 174 521 l 174 694 l 521 694 m 347 1042 l 347 868 l 174 868 l 174 1042 l 347 1042 l 347 1215 l 521 1215 l 521 1042 l 347 1042 z "},"Ƕ":{"ha":1563,"x_min":0,"x_max":1389,"o":"m 1215 174 l 1215 694 l 1389 694 l 1389 174 l 1215 174 l 1215 0 l 868 0 l 868 174 l 694 174 l 694 347 l 174 347 l 174 0 l 0 0 l 0 868 l 174 868 l 174 521 l 694 521 l 694 868 l 868 868 l 868 174 l 1215 174 z "},"Ƿ":{"ha":868,"x_min":0,"x_max":694,"o":"m 174 0 l 347 0 l 347 174 l 521 174 l 521 694 l 174 694 l 174 0 m 174 -174 l 174 -347 l 0 -347 l 0 868 l 521 868 l 521 694 l 694 694 l 694 174 l 521 174 l 521 0 l 347 0 l 347 -174 l 174 -174 z "},"Ǹ":{"ha":1042,"x_min":0,"x_max":868,"o":"m 347 1215 l 174 1215 l 174 1389 l 347 1389 l 347 1215 l 521 1215 l 521 1042 l 347 1042 l 347 1215 m 694 174 l 521 174 l 521 347 l 347 347 l 347 521 l 174 521 l 174 0 l 0 0 l 0 868 l 174 868 l 174 694 l 347 694 l 347 521 l 521 521 l 521 347 l 694 347 l 694 868 l 868 868 l 868 0 l 694 0 l 694 174 z "},"ǹ":{"ha":868,"x_min":0,"x_max":694,"o":"m 347 1042 l 521 1042 l 521 868 l 347 868 l 347 1042 l 174 1042 l 174 1215 l 347 1215 l 347 1042 m 0 694 l 521 694 l 521 521 l 694 521 l 694 0 l 521 0 l 521 521 l 174 521 l 174 0 l 0 0 l 0 694 z "},"Ǻ":{"ha":1042,"x_min":0,"x_max":868,"o":"m 694 688 l 174 688 l 174 521 l 694 521 l 694 688 m 347 1049 l 521 1049 l 521 1208 l 347 1208 l 347 1049 m 694 1563 l 694 1389 l 521 1389 l 521 1215 l 694 1215 l 694 1042 l 521 1042 l 521 868 l 694 868 l 694 694 l 868 694 l 868 0 l 694 0 l 694 347 l 174 347 l 174 0 l 0 0 l 0 694 l 174 694 l 174 868 l 347 868 l 347 1042 l 174 1042 l 174 1215 l 347 1215 l 347 1389 l 521 1389 l 521 1563 l 694 1563 z "},"ǻ":{"ha":868,"x_min":0,"x_max":694,"o":"m 521 514 l 174 514 l 174 181 l 521 181 l 521 514 m 174 701 l 521 701 l 521 861 l 174 861 l 174 701 m 521 1389 l 521 1215 l 347 1215 l 347 1042 l 521 1042 l 521 868 l 694 868 l 694 694 l 521 694 l 521 521 l 694 521 l 694 0 l 174 0 l 174 174 l 0 174 l 0 521 l 174 521 l 174 694 l 0 694 l 0 868 l 174 868 l 174 1215 l 347 1215 l 347 1389 l 521 1389 z "},"Ǽ":{"ha":1736,"x_min":0,"x_max":1563,"o":"m 868 694 l 868 521 l 1389 521 l 1389 347 l 868 347 l 868 174 l 1563 174 l 1563 0 l 694 0 l 694 347 l 174 347 l 174 0 l 0 0 l 0 694 l 174 694 l 174 868 l 1563 868 l 1563 694 l 868 694 m 694 692 l 181 692 l 181 521 l 694 521 l 694 692 m 868 1389 l 1042 1389 l 1042 1215 l 868 1215 l 868 1042 l 694 1042 l 694 1215 l 868 1215 l 868 1389 z "},"ǽ":{"ha":1389,"x_min":0,"x_max":1215,"o":"m 521 514 l 174 514 l 174 181 l 521 181 l 521 514 m 174 0 l 174 174 l 0 174 l 0 521 l 174 521 l 174 694 l 521 694 l 521 521 l 694 521 l 694 694 l 1215 694 l 1215 347 l 1042 347 l 1042 174 l 1215 174 l 1215 0 l 174 0 m 868 181 l 868 354 l 1042 354 l 1042 514 l 694 514 l 694 181 l 868 181 m 694 1215 l 868 1215 l 868 1042 l 694 1042 l 694 868 l 521 868 l 521 1042 l 694 1042 l 694 1215 z "},"Ǿ":{"ha":1042,"x_min":0,"x_max":868,"o":"m 694 694 l 868 694 l 868 174 l 694 174 l 694 0 l 174 0 l 174 174 l 0 174 l 0 694 l 174 694 l 174 868 l 694 868 l 694 694 m 354 347 l 354 174 l 688 174 l 688 521 l 528 521 l 528 347 l 354 347 m 174 347 l 347 347 l 347 521 l 521 521 l 521 688 l 174 688 l 174 347 m 521 1389 l 694 1389 l 694 1215 l 521 1215 l 521 1042 l 347 1042 l 347 1215 l 521 1215 l 521 1389 z "},"ǿ":{"ha":868,"x_min":0,"x_max":694,"o":"m 521 174 l 521 0 l 174 0 l 174 174 l 0 174 l 0 521 l 174 521 l 174 694 l 521 694 l 521 521 l 694 521 l 694 174 l 521 174 m 347 514 l 174 514 l 174 347 l 347 347 l 347 181 l 521 181 l 521 347 l 347 347 l 347 514 m 347 1042 l 347 868 l 174 868 l 174 1042 l 347 1042 l 347 1215 l 521 1215 l 521 1042 l 347 1042 z "},"ˇ":{"ha":694,"x_min":0,"x_max":521,"o":"m 174 694 l 347 694 l 347 868 l 521 868 l 521 694 l 347 694 l 347 521 l 174 521 l 174 694 l 0 694 l 0 868 l 174 868 l 174 694 z "},"˘":{"ha":694,"x_min":0,"x_max":521,"o":"m 174 694 l 347 694 l 347 868 l 521 868 l 521 694 l 347 694 l 347 521 l 174 521 l 174 694 l 0 694 l 0 868 l 174 868 l 174 694 z "},"˙":{"ha":347,"x_min":0,"x_max":174,"o":"m 0 521 l 174 521 l 174 347 l 0 347 l 0 521 z "},"˚":{"ha":694,"x_min":0,"x_max":521,"o":"m 347 347 l 347 174 l 174 174 l 174 347 l 0 347 l 0 521 l 174 521 l 174 694 l 347 694 l 347 521 l 521 521 l 521 347 l 347 347 m 174 354 l 347 354 l 347 514 l 174 514 l 174 354 z "},"˛":{"ha":521,"x_min":0,"x_max":347,"o":"m 174 -174 l 347 -174 l 347 -347 l 174 -347 l 174 -174 l 0 -174 l 0 0 l 174 0 l 174 174 l 347 174 l 347 0 l 174 0 l 174 -174 z "},"˝":{"ha":694,"x_min":0,"x_max":521,"o":"m 521 868 l 521 521 l 347 521 l 347 868 l 521 868 m 174 521 l 0 521 l 0 868 l 174 868 l 174 521 z "},"ͺ":{"ha":521,"x_min":0,"x_max":347,"o":"m 174 -174 l 174 0 l 0 0 l 0 -174 l 174 -174 m 347 -347 l 347 -174 l 174 -174 l 174 -347 l 347 -347 z "},"΄":{"ha":521,"x_min":0,"x_max":347,"o":"m 174 694 l 174 868 l 347 868 l 347 694 l 174 694 l 174 521 l 0 521 l 0 694 l 174 694 z "},"΅":{"ha":694,"x_min":0,"x_max":521,"o":"m 347 868 l 347 1042 l 521 1042 l 521 868 l 347 868 l 347 694 l 174 694 l 174 868 l 347 868 m 0 694 l 174 694 l 174 521 l 0 521 l 0 694 m 347 694 l 521 694 l 521 521 l 347 521 l 347 694 z "},"Ά":{"ha":1389,"x_min":0,"x_max":1215,"o":"m 1042 694 l 1215 694 l 1215 0 l 1042 0 l 1042 347 l 521 347 l 521 0 l 347 0 l 347 694 l 521 694 l 521 868 l 1042 868 l 1042 694 m 1042 688 l 521 688 l 521 521 l 1042 521 l 1042 688 m 174 694 l 174 868 l 347 868 l 347 694 l 174 694 l 174 521 l 0 521 l 0 694 l 174 694 z "},"·":{"ha":347,"x_min":0,"x_max":174,"o":"m 0 521 l 174 521 l 174 347 l 0 347 l 0 521 z "},"Έ":{"ha":1389,"x_min":0,"x_max":1215,"o":"m 1215 694 l 521 694 l 521 521 l 1042 521 l 1042 347 l 521 347 l 521 174 l 1215 174 l 1215 0 l 347 0 l 347 694 l 174 694 l 174 521 l 0 521 l 0 694 l 174 694 l 174 868 l 1215 868 l 1215 694 z "},"Ή":{"ha":1389,"x_min":0,"x_max":1215,"o":"m 174 694 l 174 868 l 521 868 l 521 521 l 1042 521 l 1042 868 l 1215 868 l 1215 0 l 1042 0 l 1042 347 l 521 347 l 521 0 l 347 0 l 347 694 l 174 694 l 174 521 l 0 521 l 0 694 l 174 694 z "},"Ί":{"ha":694,"x_min":0,"x_max":521,"o":"m 174 694 l 174 868 l 521 868 l 521 0 l 347 0 l 347 694 l 174 694 l 174 521 l 0 521 l 0 694 l 174 694 z "},"Ό":{"ha":1389,"x_min":0,"x_max":1215,"o":"m 1042 694 l 1215 694 l 1215 174 l 1042 174 l 1042 0 l 521 0 l 521 174 l 347 174 l 347 694 l 521 694 l 521 868 l 1042 868 l 1042 694 m 1042 688 l 521 688 l 521 181 l 1042 181 l 1042 688 m 174 694 l 174 868 l 347 868 l 347 694 l 174 694 l 174 521 l 0 521 l 0 694 l 174 694 z "},"Ύ":{"ha":1389,"x_min":0,"x_max":1215,"o":"m 1042 868 l 1215 868 l 1215 694 l 1042 694 l 1042 521 l 868 521 l 868 0 l 694 0 l 694 521 l 521 521 l 521 694 l 174 694 l 174 521 l 0 521 l 0 694 l 174 694 l 174 868 l 521 868 l 521 694 l 694 694 l 694 521 l 868 521 l 868 694 l 1042 694 l 1042 868 z "},"Ώ":{"ha":1389,"x_min":0,"x_max":1215,"o":"m 347 174 l 521 174 l 521 347 l 347 347 l 347 694 l 174 694 l 174 521 l 0 521 l 0 694 l 174 694 l 174 868 l 347 868 l 347 694 l 521 694 l 521 347 l 694 347 l 694 0 l 347 0 l 347 174 m 1042 174 l 1215 174 l 1215 0 l 868 0 l 868 347 l 1042 347 l 1042 694 l 1215 694 l 1215 347 l 1042 347 l 1042 174 m 1042 868 l 1042 694 l 521 694 l 521 868 l 1042 868 z "},"ΐ":{"ha":694,"x_min":0,"x_max":521,"o":"m 174 688 l 174 528 l 347 528 l 347 688 l 174 688 m 0 694 l 174 694 l 174 868 l 347 868 l 347 1042 l 521 1042 l 521 868 l 347 868 l 347 694 l 521 694 l 521 521 l 347 521 l 347 174 l 521 174 l 521 0 l 347 0 l 347 174 l 174 174 l 174 521 l 0 521 l 0 694 z "},"Α":{"ha":868,"x_min":0,"x_max":868,"o":"m 694 694 l 868 694 l 868 0 l 694 0 l 694 347 l 174 347 l 174 0 l 0 0 l 0 694 l 174 694 l 174 868 l 694 868 l 694 694 m 694 688 l 174 688 l 174 521 l 694 521 l 694 688 z "},"Β":{"ha":1042,"x_min":0,"x_max":868,"o":"m 868 521 l 694 521 l 694 347 l 868 347 l 868 174 l 694 174 l 694 0 l 0 0 l 0 868 l 694 868 l 694 694 l 868 694 l 868 521 m 688 174 l 688 347 l 174 347 l 174 174 l 688 174 m 688 521 l 688 694 l 174 694 l 174 521 l 688 521 z "},"Γ":{"ha":868,"x_min":0,"x_max":694,"o":"m 694 868 l 694 694 l 174 694 l 174 0 l 0 0 l 0 868 l 694 868 z "},"Δ":{"ha":1042,"x_min":0,"x_max":868,"o":"m 174 347 l 174 694 l 347 694 l 347 868 l 521 868 l 521 694 l 694 694 l 694 347 l 868 347 l 868 0 l 0 0 l 0 347 l 174 347 m 688 347 l 521 347 l 521 688 l 347 688 l 347 347 l 181 347 l 181 174 l 688 174 l 688 347 z "},"Ε":{"ha":1042,"x_min":0,"x_max":868,"o":"m 868 694 l 174 694 l 174 521 l 694 521 l 694 347 l 174 347 l 174 174 l 868 174 l 868 0 l 0 0 l 0 868 l 868 868 l 868 694 z "},"Ζ":{"ha":1042,"x_min":0,"x_max":868,"o":"m 694 694 l 694 521 l 521 521 l 521 347 l 347 347 l 347 174 l 868 174 l 868 0 l 0 0 l 0 174 l 174 174 l 174 347 l 347 347 l 347 521 l 521 521 l 521 694 l 0 694 l 0 868 l 868 868 l 868 694 l 694 694 z "},"Η":{"ha":1042,"x_min":0,"x_max":868,"o":"m 694 868 l 868 868 l 868 0 l 694 0 l 694 347 l 174 347 l 174 0 l 0 0 l 0 868 l 174 868 l 174 521 l 694 521 l 694 868 z "},"Θ":{"ha":1042,"x_min":0,"x_max":868,"o":"m 694 694 l 868 694 l 868 174 l 694 174 l 694 0 l 174 0 l 174 174 l 0 174 l 0 694 l 174 694 l 174 868 l 694 868 l 694 694 m 694 347 l 174 347 l 174 181 l 694 181 l 694 347 m 174 521 l 694 521 l 694 688 l 174 688 l 174 521 z "},"Ι":{"ha":347,"x_min":0,"x_max":174,"o":"m 0 868 l 174 868 l 174 0 l 0 0 l 0 868 z "},"Κ":{"ha":1042,"x_min":0,"x_max":868,"o":"m 174 521 l 521 521 l 521 694 l 694 694 l 694 868 l 868 868 l 868 694 l 694 694 l 694 521 l 521 521 l 521 347 l 694 347 l 694 174 l 868 174 l 868 0 l 694 0 l 694 174 l 521 174 l 521 347 l 174 347 l 174 0 l 0 0 l 0 868 l 174 868 l 174 521 z "},"Λ":{"ha":1042,"x_min":0,"x_max":868,"o":"m 0 0 l 0 347 l 174 347 l 174 694 l 347 694 l 347 868 l 521 868 l 521 694 l 694 694 l 694 347 l 868 347 l 868 0 l 694 0 l 694 347 l 521 347 l 521 694 l 347 694 l 347 347 l 174 347 l 174 0 l 0 0 z "},"Μ":{"ha":1042,"x_min":0,"x_max":868,"o":"m 694 868 l 868 868 l 868 0 l 694 0 l 694 521 l 521 521 l 521 347 l 347 347 l 347 521 l 174 521 l 174 0 l 0 0 l 0 868 l 174 868 l 174 694 l 347 694 l 347 521 l 521 521 l 521 694 l 694 694 l 694 868 z "},"Ν":{"ha":1042,"x_min":0,"x_max":868,"o":"m 694 868 l 868 868 l 868 0 l 694 0 l 694 174 l 521 174 l 521 347 l 347 347 l 347 521 l 174 521 l 174 0 l 0 0 l 0 868 l 174 868 l 174 694 l 347 694 l 347 521 l 521 521 l 521 347 l 694 347 l 694 868 z "},"Ξ":{"ha":868,"x_min":0,"x_max":694,"o":"m 694 868 l 694 694 l 0 694 l 0 868 l 694 868 m 694 174 l 694 0 l 0 0 l 0 174 l 694 174 m 521 521 l 521 347 l 174 347 l 174 521 l 521 521 z "},"Ο":{"ha":1042,"x_min":0,"x_max":868,"o":"m 694 694 l 868 694 l 868 174 l 694 174 l 694 0 l 174 0 l 174 174 l 0 174 l 0 694 l 174 694 l 174 868 l 694 868 l 694 694 m 694 688 l 174 688 l 174 181 l 694 181 l 694 688 z "},"Π":{"ha":1042,"x_min":0,"x_max":868,"o":"m 0 868 l 868 868 l 868 0 l 694 0 l 694 694 l 174 694 l 174 0 l 0 0 l 0 868 z "},"Ρ":{"ha":1042,"x_min":0,"x_max":868,"o":"m 694 694 l 868 694 l 868 521 l 694 521 l 694 347 l 174 347 l 174 0 l 0 0 l 0 868 l 694 868 l 694 694 m 174 521 l 688 521 l 688 694 l 174 694 l 174 521 z "},"Σ":{"ha":1042,"x_min":0,"x_max":868,"o":"m 868 347 l 868 0 l 0 0 l 0 174 l 174 174 l 174 347 l 347 347 l 347 521 l 174 521 l 174 694 l 0 694 l 0 868 l 868 868 l 868 521 l 694 521 l 694 694 l 347 694 l 347 521 l 521 521 l 521 347 l 347 347 l 347 174 l 694 174 l 694 347 l 868 347 z "},"Τ":{"ha":1042,"x_min":0,"x_max":868,"o":"m 868 868 l 868 694 l 521 694 l 521 0 l 347 0 l 347 694 l 0 694 l 0 868 l 868 868 z "},"Υ":{"ha":1042,"x_min":0,"x_max":868,"o":"m 694 868 l 868 868 l 868 694 l 694 694 l 694 521 l 521 521 l 521 0 l 347 0 l 347 521 l 174 521 l 174 694 l 0 694 l 0 868 l 174 868 l 174 694 l 347 694 l 347 521 l 521 521 l 521 694 l 694 694 l 694 868 z "},"Φ":{"ha":1389,"x_min":0,"x_max":1215,"o":"m 354 174 l 521 174 l 521 694 l 354 694 l 354 521 l 181 521 l 181 347 l 354 347 l 354 174 m 1035 521 l 861 521 l 861 694 l 694 694 l 694 174 l 861 174 l 861 347 l 1035 347 l 1035 521 m 868 868 l 868 694 l 1042 694 l 1042 521 l 1215 521 l 1215 347 l 1042 347 l 1042 174 l 868 174 l 868 0 l 694 0 l 694 -174 l 521 -174 l 521 0 l 347 0 l 347 174 l 174 174 l 174 347 l 0 347 l 0 521 l 174 521 l 174 694 l 347 694 l 347 868 l 521 868 l 521 1042 l 694 1042 l 694 868 l 868 868 z "},"Χ":{"ha":1042,"x_min":0,"x_max":868,"o":"m 868 868 l 868 694 l 694 694 l 694 521 l 521 521 l 521 347 l 694 347 l 694 174 l 868 174 l 868 0 l 694 0 l 694 174 l 521 174 l 521 347 l 347 347 l 347 174 l 174 174 l 174 0 l 0 0 l 0 174 l 174 174 l 174 347 l 347 347 l 347 521 l 174 521 l 174 694 l 0 694 l 0 868 l 174 868 l 174 694 l 347 694 l 347 521 l 521 521 l 521 694 l 694 694 l 694 868 l 868 868 z "},"Ψ":{"ha":1042,"x_min":0,"x_max":868,"o":"m 0 521 l 0 868 l 174 868 l 174 521 l 0 521 m 694 868 l 868 868 l 868 521 l 694 521 l 694 347 l 521 347 l 521 0 l 347 0 l 347 347 l 174 347 l 174 521 l 347 521 l 347 868 l 521 868 l 521 521 l 694 521 l 694 868 z "},"Ω":{"ha":1042,"x_min":0,"x_max":868,"o":"m 694 174 l 868 174 l 868 0 l 521 0 l 521 347 l 694 347 l 694 694 l 868 694 l 868 347 l 694 347 l 694 174 m 0 174 l 174 174 l 174 347 l 0 347 l 0 694 l 174 694 l 174 347 l 347 347 l 347 0 l 0 0 l 0 174 m 694 868 l 694 694 l 174 694 l 174 868 l 694 868 z "},"Ϊ":{"ha":347,"x_min":-174,"x_max":347,"o":"m -174 1215 l 0 1215 l 0 1042 l -174 1042 l -174 1215 m 174 1215 l 347 1215 l 347 1042 l 174 1042 l 174 1215 m 0 868 l 174 868 l 174 0 l 0 0 l 0 868 z "},"Ϋ":{"ha":1042,"x_min":0,"x_max":868,"o":"m 174 1215 l 347 1215 l 347 1042 l 174 1042 l 174 1215 m 521 1215 l 694 1215 l 694 1042 l 521 1042 l 521 1215 m 694 868 l 868 868 l 868 694 l 694 694 l 694 521 l 521 521 l 521 0 l 347 0 l 347 521 l 174 521 l 174 694 l 0 694 l 0 868 l 174 868 l 174 694 l 347 694 l 347 521 l 521 521 l 521 694 l 694 694 l 694 868 z "},"ά":{"ha":868,"x_min":0,"x_max":694,"o":"m 174 174 l 0 174 l 0 521 l 174 521 l 174 694 l 521 694 l 521 521 l 694 521 l 694 0 l 174 0 l 174 174 m 521 514 l 174 514 l 174 181 l 521 181 l 521 514 m 174 1215 l 347 1215 l 347 868 l 174 868 l 174 1215 z "},"έ":{"ha":868,"x_min":0,"x_max":694,"o":"m 694 174 l 521 174 l 521 0 l 174 0 l 174 174 l 347 174 l 347 347 l 174 347 l 174 521 l 521 521 l 521 347 l 694 347 l 694 521 l 521 521 l 521 694 l 174 694 l 174 521 l 0 521 l 0 347 l 174 347 l 174 174 l 0 174 l 0 0 l 174 0 l 174 -174 l 521 -174 l 521 0 l 694 0 l 694 174 m 174 1215 l 347 1215 l 347 868 l 174 868 l 174 1215 z "},"ή":{"ha":868,"x_min":0,"x_max":694,"o":"m 0 694 l 521 694 l 521 521 l 694 521 l 694 -174 l 521 -174 l 521 521 l 174 521 l 174 0 l 0 0 l 0 694 m 174 1215 l 347 1215 l 347 868 l 174 868 l 174 1215 z "},"ί":{"ha":521,"x_min":0,"x_max":347,"o":"m 174 174 l 0 174 l 0 694 l 174 694 l 174 174 m 347 0 l 174 0 l 174 174 l 347 174 l 347 0 m 0 1215 l 174 1215 l 174 868 l 0 868 l 0 1215 z "},"ΰ":{"ha":868,"x_min":0,"x_max":694,"o":"m 347 1215 l 347 1389 l 521 1389 l 521 1215 l 347 1215 l 347 1042 l 174 1042 l 174 1215 l 347 1215 m 0 1042 l 174 1042 l 174 868 l 0 868 l 0 1042 m 347 1042 l 521 1042 l 521 868 l 347 868 l 347 1042 m 521 694 l 694 694 l 694 0 l 174 0 l 174 174 l 0 174 l 0 694 l 174 694 l 174 174 l 521 174 l 521 694 z "},"α":{"ha":868,"x_min":0,"x_max":694,"o":"m 174 174 l 0 174 l 0 521 l 174 521 l 174 694 l 521 694 l 521 521 l 694 521 l 694 0 l 174 0 l 174 174 m 521 514 l 174 514 l 174 181 l 521 181 l 521 514 z "},"β":{"ha":868,"x_min":0,"x_max":694,"o":"m 0 694 l 174 694 l 174 0 l 0 0 l 0 694 m 347 521 l 521 521 l 521 694 l 694 694 l 694 521 l 521 521 l 521 347 l 694 347 l 694 174 l 521 174 l 521 0 l 347 0 l 347 174 l 521 174 l 521 347 l 347 347 l 347 521 m 521 694 l 174 694 l 174 868 l 521 868 l 521 694 z "},"γ":{"ha":868,"x_min":0,"x_max":694,"o":"m 174 -347 l 174 -174 l 521 -174 l 521 0 l 174 0 l 174 174 l 0 174 l 0 694 l 174 694 l 174 174 l 521 174 l 521 694 l 694 694 l 694 -174 l 521 -174 l 521 -347 l 174 -347 z "},"δ":{"ha":868,"x_min":0,"x_max":694,"o":"m 521 340 l 174 340 l 174 181 l 521 181 l 521 340 m 0 868 l 694 868 l 694 694 l 347 694 l 347 521 l 521 521 l 521 347 l 694 347 l 694 174 l 521 174 l 521 0 l 174 0 l 174 174 l 0 174 l 0 347 l 174 347 l 174 694 l 0 694 l 0 868 z "},"ε":{"ha":868,"x_min":0,"x_max":694,"o":"m 694 174 l 521 174 l 521 0 l 174 0 l 174 174 l 347 174 l 347 347 l 174 347 l 174 521 l 521 521 l 521 347 l 694 347 l 694 521 l 521 521 l 521 694 l 174 694 l 174 521 l 0 521 l 0 347 l 174 347 l 174 174 l 0 174 l 0 0 l 174 0 l 174 -174 l 521 -174 l 521 0 l 694 0 l 694 174 z "},"ζ":{"ha":694,"x_min":0,"x_max":521,"o":"m 521 868 l 521 694 l 347 694 l 347 521 l 174 521 l 174 0 l 0 0 l 0 521 l 174 521 l 174 694 l 0 694 l 0 868 l 521 868 m 174 -174 l 174 0 l 347 0 l 347 -174 l 174 -174 l 174 -347 l 0 -347 l 0 -174 l 174 -174 z "},"η":{"ha":868,"x_min":0,"x_max":694,"o":"m 0 694 l 521 694 l 521 521 l 694 521 l 694 -174 l 521 -174 l 521 521 l 174 521 l 174 0 l 0 0 l 0 694 z "},"θ":{"ha":868,"x_min":0,"x_max":694,"o":"m 521 694 l 694 694 l 694 174 l 521 174 l 521 0 l 174 0 l 174 174 l 0 174 l 0 694 l 174 694 l 174 868 l 521 868 l 521 694 m 521 347 l 174 347 l 174 181 l 521 181 l 521 347 m 174 521 l 521 521 l 521 688 l 174 688 l 174 521 z "},"ι":{"ha":521,"x_min":0,"x_max":347,"o":"m 174 174 l 0 174 l 0 694 l 174 694 l 174 174 m 347 0 l 174 0 l 174 174 l 347 174 l 347 0 z "},"κ":{"ha":868,"x_min":0,"x_max":694,"o":"m 521 0 l 521 347 l 347 347 l 347 174 l 174 174 l 174 0 l 0 0 l 0 694 l 174 694 l 174 347 l 347 347 l 347 521 l 521 521 l 521 694 l 694 694 l 694 521 l 521 521 l 521 347 l 694 347 l 694 0 l 521 0 z "},"λ":{"ha":868,"x_min":0,"x_max":694,"o":"m 174 868 l 521 868 l 521 694 l 694 694 l 694 0 l 521 0 l 521 347 l 174 347 l 174 0 l 0 0 l 0 347 l 174 347 l 174 521 l 521 521 l 521 694 l 174 694 l 174 868 z "},"ν":{"ha":1042,"x_min":0,"x_max":868,"o":"m 868 694 l 868 521 l 694 521 l 694 174 l 521 174 l 521 0 l 347 0 l 347 174 l 174 174 l 174 521 l 0 521 l 0 694 l 174 694 l 174 521 l 347 521 l 347 174 l 521 174 l 521 521 l 694 521 l 694 694 l 868 694 z "},"ξ":{"ha":694,"x_min":0,"x_max":521,"o":"m 174 868 l 174 1042 l 347 1042 l 347 868 l 174 868 l 174 694 l 521 694 l 521 521 l 347 521 l 347 347 l 174 347 l 174 0 l 347 0 l 347 -174 l 174 -174 l 174 -347 l 0 -347 l 0 -174 l 174 -174 l 174 0 l 0 0 l 0 347 l 174 347 l 174 694 l 0 694 l 0 868 l 174 868 z "},"ο":{"ha":868,"x_min":0,"x_max":694,"o":"m 521 174 l 521 0 l 174 0 l 174 174 l 0 174 l 0 521 l 174 521 l 174 694 l 521 694 l 521 521 l 694 521 l 694 174 l 521 174 m 521 514 l 174 514 l 174 181 l 521 181 l 521 514 z "},"π":{"ha":1042,"x_min":0,"x_max":868,"o":"m 0 694 l 868 694 l 868 521 l 694 521 l 694 0 l 521 0 l 521 521 l 347 521 l 347 0 l 174 0 l 174 521 l 0 521 l 0 694 z "},"ρ":{"ha":868,"x_min":0,"x_max":694,"o":"m 521 521 l 694 521 l 694 174 l 521 174 l 521 0 l 174 0 l 174 -347 l 0 -347 l 0 694 l 521 694 l 521 521 m 521 181 l 521 514 l 174 514 l 174 181 l 521 181 z "},"ς":{"ha":868,"x_min":0,"x_max":694,"o":"m 694 521 l 347 521 l 347 347 l 694 347 l 694 174 l 521 174 l 521 0 l 174 0 l 174 174 l 347 174 l 347 347 l 0 347 l 0 521 l 174 521 l 174 694 l 694 694 l 694 521 z "},"σ":{"ha":1042,"x_min":0,"x_max":868,"o":"m 521 514 l 174 514 l 174 181 l 521 181 l 521 514 m 868 694 l 868 521 l 694 521 l 694 174 l 521 174 l 521 0 l 174 0 l 174 174 l 0 174 l 0 521 l 174 521 l 174 694 l 868 694 z "},"τ":{"ha":694,"x_min":0,"x_max":521,"o":"m 521 0 l 347 0 l 347 174 l 521 174 l 521 0 m 521 694 l 521 521 l 347 521 l 347 174 l 174 174 l 174 521 l 0 521 l 0 694 l 521 694 z "},"υ":{"ha":868,"x_min":0,"x_max":694,"o":"m 347 521 l 347 694 l 521 694 l 521 521 l 694 521 l 694 174 l 521 174 l 521 0 l 0 0 l 0 694 l 174 694 l 174 174 l 521 174 l 521 521 l 347 521 z "},"φ":{"ha":1042,"x_min":0,"x_max":868,"o":"m 181 174 l 347 174 l 347 521 l 181 521 l 181 174 m 694 174 l 694 0 l 521 0 l 521 -347 l 347 -347 l 347 0 l 174 0 l 174 174 l 0 174 l 0 521 l 174 521 l 174 694 l 694 694 l 694 521 l 868 521 l 868 174 l 694 174 m 688 521 l 521 521 l 521 174 l 688 174 l 688 521 z "},"χ":{"ha":1042,"x_min":0,"x_max":868,"o":"m 868 694 l 868 521 l 694 521 l 694 347 l 521 347 l 521 174 l 694 174 l 694 0 l 868 0 l 868 -174 l 694 -174 l 694 0 l 521 0 l 521 174 l 347 174 l 347 0 l 174 0 l 174 -174 l 0 -174 l 0 0 l 174 0 l 174 174 l 347 174 l 347 347 l 174 347 l 174 521 l 0 521 l 0 694 l 174 694 l 174 521 l 347 521 l 347 347 l 521 347 l 521 521 l 694 521 l 694 694 l 868 694 z "},"ψ":{"ha":1042,"x_min":0,"x_max":868,"o":"m 0 174 l 0 694 l 174 694 l 174 174 l 0 174 m 694 694 l 868 694 l 868 174 l 694 174 l 694 0 l 521 0 l 521 -174 l 347 -174 l 347 0 l 174 0 l 174 174 l 347 174 l 347 694 l 521 694 l 521 174 l 694 174 l 694 694 z "},"ω":{"ha":1042,"x_min":0,"x_max":868,"o":"m 521 0 l 521 174 l 347 174 l 347 0 l 174 0 l 174 174 l 0 174 l 0 694 l 174 694 l 174 174 l 347 174 l 347 521 l 521 521 l 521 174 l 694 174 l 694 694 l 868 694 l 868 174 l 694 174 l 694 0 l 521 0 z "},"ϊ":{"ha":521,"x_min":-174,"x_max":347,"o":"m 174 174 l 0 174 l 0 694 l 174 694 l 174 174 m 347 0 l 174 0 l 174 174 l 347 174 l 347 0 m -174 1042 l 0 1042 l 0 868 l -174 868 l -174 1042 m 174 1042 l 347 1042 l 347 868 l 174 868 l 174 1042 z "},"ϋ":{"ha":868,"x_min":0,"x_max":694,"o":"m 347 521 l 347 694 l 521 694 l 521 521 l 694 521 l 694 174 l 521 174 l 521 0 l 0 0 l 0 694 l 174 694 l 174 174 l 521 174 l 521 521 l 347 521 m 0 1042 l 174 1042 l 174 868 l 0 868 l 0 1042 m 347 1042 l 521 1042 l 521 868 l 347 868 l 347 1042 z "},"ό":{"ha":868,"x_min":0,"x_max":694,"o":"m 521 174 l 521 0 l 174 0 l 174 174 l 0 174 l 0 521 l 174 521 l 174 694 l 521 694 l 521 521 l 694 521 l 694 174 l 521 174 m 521 514 l 174 514 l 174 181 l 521 181 l 521 514 m 174 1215 l 347 1215 l 347 868 l 174 868 l 174 1215 z "},"ύ":{"ha":868,"x_min":0,"x_max":694,"o":"m 347 521 l 347 694 l 521 694 l 521 521 l 694 521 l 694 174 l 521 174 l 521 0 l 0 0 l 0 694 l 174 694 l 174 174 l 521 174 l 521 521 l 347 521 m 174 1215 l 347 1215 l 347 868 l 174 868 l 174 1215 z "},"ώ":{"ha":1042,"x_min":0,"x_max":868,"o":"m 521 0 l 521 174 l 347 174 l 347 0 l 174 0 l 174 174 l 0 174 l 0 694 l 174 694 l 174 174 l 347 174 l 347 521 l 521 521 l 521 174 l 694 174 l 694 694 l 868 694 l 868 174 l 694 174 l 694 0 l 521 0 m 347 1215 l 521 1215 l 521 868 l 347 868 l 347 1215 z "},"Ѐ":{"ha":1042,"x_min":0,"x_max":868,"o":"m 868 694 l 174 694 l 174 521 l 694 521 l 694 347 l 174 347 l 174 174 l 868 174 l 868 0 l 0 0 l 0 868 l 868 868 l 868 694 m 347 1215 l 521 1215 l 521 1042 l 347 1042 l 347 1215 l 174 1215 l 174 1389 l 347 1389 l 347 1215 z "},"Ё":{"ha":1042,"x_min":0,"x_max":868,"o":"m 174 1217 l 347 1217 l 347 1043 l 174 1043 l 174 1217 m 521 1215 l 694 1215 l 694 1042 l 521 1042 l 521 1215 m 868 694 l 174 694 l 174 521 l 694 521 l 694 347 l 174 347 l 174 174 l 868 174 l 868 0 l 0 0 l 0 868 l 868 868 l 868 694 z "},"Ђ":{"ha":1389,"x_min":0,"x_max":1215,"o":"m 868 868 l 868 694 l 521 694 l 521 521 l 1042 521 l 1042 347 l 1215 347 l 1215 0 l 1042 0 l 1042 -174 l 868 -174 l 868 0 l 1042 0 l 1042 347 l 521 347 l 521 0 l 347 0 l 347 694 l 0 694 l 0 868 l 868 868 z "},"Ѓ":{"ha":868,"x_min":0,"x_max":694,"o":"m 694 868 l 694 694 l 174 694 l 174 0 l 0 0 l 0 868 l 694 868 m 347 1215 l 347 1389 l 521 1389 l 521 1215 l 347 1215 l 347 1042 l 174 1042 l 174 1215 l 347 1215 z "},"Є":{"ha":1042,"x_min":0,"x_max":868,"o":"m 868 347 l 868 174 l 694 174 l 694 0 l 174 0 l 174 174 l 0 174 l 0 694 l 174 694 l 174 868 l 694 868 l 694 694 l 868 694 l 868 521 l 694 521 l 694 694 l 174 694 l 174 521 l 521 521 l 521 347 l 174 347 l 174 174 l 694 174 l 694 347 l 868 347 z "},"Ѕ":{"ha":1042,"x_min":0,"x_max":868,"o":"m 174 868 l 868 868 l 868 694 l 174 694 l 174 521 l 694 521 l 694 347 l 868 347 l 868 174 l 694 174 l 694 0 l 0 0 l 0 174 l 694 174 l 694 347 l 174 347 l 174 521 l 0 521 l 0 694 l 174 694 l 174 868 z "},"І":{"ha":347,"x_min":0,"x_max":174,"o":"m 0 868 l 174 868 l 174 0 l 0 0 l 0 868 z "},"Ї":{"ha":347,"x_min":-174,"x_max":347,"o":"m -174 1215 l 0 1215 l 0 1042 l -174 1042 l -174 1215 m 174 1215 l 347 1215 l 347 1042 l 174 1042 l 174 1215 m 0 868 l 174 868 l 174 0 l 0 0 l 0 868 z "},"Ј":{"ha":868,"x_min":0,"x_max":694,"o":"m 0 347 l 174 347 l 174 174 l 521 174 l 521 868 l 694 868 l 694 174 l 521 174 l 521 0 l 174 0 l 174 174 l 0 174 l 0 347 z "},"Љ":{"ha":1563,"x_min":0,"x_max":1389,"o":"m 1215 174 l 1215 0 l 521 0 l 521 694 l 347 694 l 347 174 l 174 174 l 174 0 l 0 0 l 0 174 l 174 174 l 174 868 l 694 868 l 694 521 l 1215 521 l 1215 347 l 1389 347 l 1389 174 l 1215 174 m 1208 347 l 694 347 l 694 174 l 1208 174 l 1208 347 z "},"Њ":{"ha":1736,"x_min":0,"x_max":1563,"o":"m 1389 174 l 1389 0 l 694 0 l 694 347 l 174 347 l 174 0 l 0 0 l 0 868 l 174 868 l 174 521 l 694 521 l 694 868 l 868 868 l 868 521 l 1389 521 l 1389 347 l 1563 347 l 1563 174 l 1389 174 m 1382 347 l 868 347 l 868 174 l 1382 174 l 1382 347 z "},"Ћ":{"ha":1215,"x_min":0,"x_max":1042,"o":"m 868 868 l 868 694 l 521 694 l 521 521 l 868 521 l 868 347 l 1042 347 l 1042 0 l 868 0 l 868 347 l 521 347 l 521 0 l 347 0 l 347 694 l 0 694 l 0 868 l 868 868 z "},"Ќ":{"ha":1042,"x_min":0,"x_max":868,"o":"m 174 521 l 521 521 l 521 694 l 694 694 l 694 868 l 868 868 l 868 694 l 694 694 l 694 521 l 521 521 l 521 347 l 694 347 l 694 174 l 868 174 l 868 0 l 694 0 l 694 174 l 521 174 l 521 347 l 174 347 l 174 0 l 0 0 l 0 868 l 174 868 l 174 521 m 521 1042 l 521 1215 l 694 1215 l 694 1042 l 521 1042 l 521 868 l 347 868 l 347 1042 l 521 1042 z "},"Ѝ":{"ha":1042,"x_min":0,"x_max":868,"o":"m 174 868 l 174 347 l 347 347 l 347 521 l 521 521 l 521 694 l 694 694 l 694 868 l 868 868 l 868 0 l 694 0 l 694 521 l 521 521 l 521 347 l 347 347 l 347 174 l 174 174 l 174 0 l 0 0 l 0 868 l 174 868 m 694 1042 l 521 1042 l 521 868 l 347 868 l 347 1042 l 174 1042 l 174 1215 l 347 1215 l 347 1042 l 521 1042 l 521 1215 l 694 1215 l 694 1042 z "},"Ў":{"ha":1042,"x_min":0,"x_max":868,"o":"m 0 174 l 347 174 l 347 347 l 174 347 l 174 521 l 0 521 l 0 868 l 174 868 l 174 521 l 347 521 l 347 347 l 521 347 l 521 521 l 694 521 l 694 868 l 868 868 l 868 521 l 694 521 l 694 347 l 521 347 l 521 174 l 347 174 l 347 0 l 0 0 l 0 174 m 694 1042 l 521 1042 l 521 868 l 347 868 l 347 1042 l 174 1042 l 174 1215 l 347 1215 l 347 1042 l 521 1042 l 521 1215 l 694 1215 l 694 1042 z "},"Џ":{"ha":1042,"x_min":0,"x_max":868,"o":"m 521 0 l 521 -174 l 347 -174 l 347 0 l 0 0 l 0 868 l 174 868 l 174 174 l 694 174 l 694 868 l 868 868 l 868 0 l 521 0 z "},"А":{"ha":868,"x_min":0,"x_max":868,"o":"m 694 694 l 868 694 l 868 0 l 694 0 l 694 347 l 174 347 l 174 0 l 0 0 l 0 694 l 174 694 l 174 868 l 694 868 l 694 694 m 694 688 l 174 688 l 174 521 l 694 521 l 694 688 z "},"Б":{"ha":1042,"x_min":0,"x_max":868,"o":"m 694 174 l 694 0 l 0 0 l 0 868 l 694 868 l 694 694 l 174 694 l 174 521 l 694 521 l 694 347 l 868 347 l 868 174 l 694 174 m 688 347 l 174 347 l 174 174 l 688 174 l 688 347 z "},"В":{"ha":1042,"x_min":0,"x_max":868,"o":"m 868 521 l 694 521 l 694 347 l 868 347 l 868 174 l 694 174 l 694 0 l 0 0 l 0 868 l 694 868 l 694 694 l 868 694 l 868 521 m 688 174 l 688 347 l 174 347 l 174 174 l 688 174 m 688 521 l 688 694 l 174 694 l 174 521 l 688 521 z "},"Г":{"ha":868,"x_min":0,"x_max":694,"o":"m 694 868 l 694 694 l 174 694 l 174 0 l 0 0 l 0 868 l 694 868 z "},"Д":{"ha":868,"x_min":-174,"x_max":868,"o":"m 174 174 l 521 174 l 521 694 l 174 694 l 174 174 m 694 0 l 868 0 l 868 -174 l 694 -174 l 694 0 l 0 0 l 0 -174 l -174 -174 l -174 0 l 0 0 l 0 868 l 694 868 l 694 0 z "},"Е":{"ha":1042,"x_min":0,"x_max":868,"o":"m 868 694 l 174 694 l 174 521 l 694 521 l 694 347 l 174 347 l 174 174 l 868 174 l 868 0 l 0 0 l 0 868 l 868 868 l 868 694 z "},"Ж":{"ha":1389,"x_min":0,"x_max":1215,"o":"m 1215 868 l 1215 694 l 1042 694 l 1042 521 l 868 521 l 868 347 l 1042 347 l 1042 174 l 1215 174 l 1215 0 l 1042 0 l 1042 174 l 868 174 l 868 347 l 694 347 l 694 0 l 521 0 l 521 347 l 347 347 l 347 174 l 174 174 l 174 0 l 0 0 l 0 174 l 174 174 l 174 347 l 347 347 l 347 521 l 174 521 l 174 694 l 0 694 l 0 868 l 174 868 l 174 694 l 347 694 l 347 521 l 521 521 l 521 868 l 694 868 l 694 521 l 868 521 l 868 694 l 1042 694 l 1042 868 l 1215 868 z "},"З":{"ha":1042,"x_min":0,"x_max":868,"o":"m 0 347 l 174 347 l 174 174 l 694 174 l 694 347 l 347 347 l 347 521 l 694 521 l 694 694 l 174 694 l 174 521 l 0 521 l 0 694 l 174 694 l 174 868 l 694 868 l 694 694 l 868 694 l 868 521 l 694 521 l 694 347 l 868 347 l 868 174 l 694 174 l 694 0 l 174 0 l 174 174 l 0 174 l 0 347 z "},"И":{"ha":1042,"x_min":0,"x_max":868,"o":"m 174 868 l 174 347 l 347 347 l 347 521 l 521 521 l 521 694 l 694 694 l 694 868 l 868 868 l 868 0 l 694 0 l 694 521 l 521 521 l 521 347 l 347 347 l 347 174 l 174 174 l 174 0 l 0 0 l 0 868 l 174 868 z "},"Й":{"ha":1042,"x_min":0,"x_max":868,"o":"m 174 868 l 174 347 l 347 347 l 347 521 l 521 521 l 521 694 l 694 694 l 694 868 l 868 868 l 868 0 l 694 0 l 694 521 l 521 521 l 521 347 l 347 347 l 347 174 l 174 174 l 174 0 l 0 0 l 0 868 l 174 868 m 694 1042 l 521 1042 l 521 868 l 347 868 l 347 1042 l 174 1042 l 174 1215 l 347 1215 l 347 1042 l 521 1042 l 521 1215 l 694 1215 l 694 1042 z "},"К":{"ha":1042,"x_min":0,"x_max":868,"o":"m 174 521 l 521 521 l 521 694 l 694 694 l 694 868 l 868 868 l 868 694 l 694 694 l 694 521 l 521 521 l 521 347 l 694 347 l 694 174 l 868 174 l 868 0 l 694 0 l 694 174 l 521 174 l 521 347 l 174 347 l 174 0 l 0 0 l 0 868 l 174 868 l 174 521 z "},"Л":{"ha":1042,"x_min":0,"x_max":868,"o":"m 174 868 l 868 868 l 868 0 l 694 0 l 694 694 l 347 694 l 347 174 l 174 174 l 174 0 l 0 0 l 0 174 l 174 174 l 174 868 z "},"М":{"ha":1042,"x_min":0,"x_max":868,"o":"m 694 868 l 868 868 l 868 0 l 694 0 l 694 521 l 521 521 l 521 347 l 347 347 l 347 521 l 174 521 l 174 0 l 0 0 l 0 868 l 174 868 l 174 694 l 347 694 l 347 521 l 521 521 l 521 694 l 694 694 l 694 868 z "},"Н":{"ha":1042,"x_min":0,"x_max":868,"o":"m 694 868 l 868 868 l 868 0 l 694 0 l 694 347 l 174 347 l 174 0 l 0 0 l 0 868 l 174 868 l 174 521 l 694 521 l 694 868 z "},"О":{"ha":1042,"x_min":0,"x_max":868,"o":"m 694 694 l 868 694 l 868 174 l 694 174 l 694 0 l 174 0 l 174 174 l 0 174 l 0 694 l 174 694 l 174 868 l 694 868 l 694 694 m 694 688 l 174 688 l 174 181 l 694 181 l 694 688 z "},"П":{"ha":1042,"x_min":0,"x_max":868,"o":"m 0 868 l 868 868 l 868 0 l 694 0 l 694 694 l 174 694 l 174 0 l 0 0 l 0 868 z "},"Р":{"ha":1042,"x_min":0,"x_max":868,"o":"m 694 694 l 868 694 l 868 521 l 694 521 l 694 347 l 174 347 l 174 0 l 0 0 l 0 868 l 694 868 l 694 694 m 174 521 l 688 521 l 688 694 l 174 694 l 174 521 z "},"С":{"ha":1042,"x_min":0,"x_max":868,"o":"m 868 0 l 174 0 l 174 174 l 0 174 l 0 694 l 174 694 l 174 868 l 868 868 l 868 694 l 174 694 l 174 174 l 868 174 l 868 0 z "},"Т":{"ha":1042,"x_min":0,"x_max":868,"o":"m 868 868 l 868 694 l 521 694 l 521 0 l 347 0 l 347 694 l 0 694 l 0 868 l 868 868 z "},"У":{"ha":1042,"x_min":0,"x_max":868,"o":"m 0 174 l 347 174 l 347 347 l 174 347 l 174 521 l 0 521 l 0 868 l 174 868 l 174 521 l 347 521 l 347 347 l 521 347 l 521 521 l 694 521 l 694 868 l 868 868 l 868 521 l 694 521 l 694 347 l 521 347 l 521 174 l 347 174 l 347 0 l 0 0 l 0 174 z "},"Ф":{"ha":1389,"x_min":0,"x_max":1215,"o":"m 354 174 l 521 174 l 521 694 l 354 694 l 354 521 l 181 521 l 181 347 l 354 347 l 354 174 m 1035 521 l 861 521 l 861 694 l 694 694 l 694 174 l 861 174 l 861 347 l 1035 347 l 1035 521 m 868 868 l 868 694 l 1042 694 l 1042 521 l 1215 521 l 1215 347 l 1042 347 l 1042 174 l 868 174 l 868 0 l 694 0 l 694 -174 l 521 -174 l 521 0 l 347 0 l 347 174 l 174 174 l 174 347 l 0 347 l 0 521 l 174 521 l 174 694 l 347 694 l 347 868 l 521 868 l 521 1042 l 694 1042 l 694 868 l 868 868 z "},"Х":{"ha":1042,"x_min":0,"x_max":868,"o":"m 868 868 l 868 694 l 694 694 l 694 521 l 521 521 l 521 347 l 694 347 l 694 174 l 868 174 l 868 0 l 694 0 l 694 174 l 521 174 l 521 347 l 347 347 l 347 174 l 174 174 l 174 0 l 0 0 l 0 174 l 174 174 l 174 347 l 347 347 l 347 521 l 174 521 l 174 694 l 0 694 l 0 868 l 174 868 l 174 694 l 347 694 l 347 521 l 521 521 l 521 694 l 694 694 l 694 868 l 868 868 z "},"Ц":{"ha":1042,"x_min":0,"x_max":1042,"o":"m 868 0 l 1042 0 l 1042 -174 l 868 -174 l 868 0 l 0 0 l 0 868 l 174 868 l 174 174 l 694 174 l 694 868 l 868 868 l 868 0 z "},"Ч":{"ha":1042,"x_min":0,"x_max":868,"o":"m 694 868 l 868 868 l 868 0 l 694 0 l 694 347 l 174 347 l 174 521 l 0 521 l 0 868 l 174 868 l 174 521 l 694 521 l 694 868 z "},"Ш":{"ha":1389,"x_min":0,"x_max":1215,"o":"m 1042 868 l 1215 868 l 1215 0 l 0 0 l 0 868 l 174 868 l 174 174 l 521 174 l 521 868 l 694 868 l 694 174 l 1042 174 l 1042 868 z "},"Щ":{"ha":1389,"x_min":0,"x_max":1389,"o":"m 1215 0 l 1389 0 l 1389 -174 l 1215 -174 l 1215 0 l 0 0 l 0 868 l 174 868 l 174 174 l 521 174 l 521 868 l 694 868 l 694 174 l 1042 174 l 1042 868 l 1215 868 l 1215 0 z "},"Ъ":{"ha":1389,"x_min":0,"x_max":1215,"o":"m 1035 347 l 521 347 l 521 174 l 1035 174 l 1035 347 m 0 694 l 0 868 l 521 868 l 521 521 l 1042 521 l 1042 347 l 1215 347 l 1215 174 l 1042 174 l 1042 0 l 347 0 l 347 694 l 0 694 z "},"Ы":{"ha":1389,"x_min":0,"x_max":1215,"o":"m 1215 0 l 1042 0 l 1042 868 l 1215 868 l 1215 0 m 694 174 l 694 0 l 0 0 l 0 868 l 174 868 l 174 521 l 694 521 l 694 347 l 868 347 l 868 174 l 694 174 m 688 347 l 174 347 l 174 174 l 688 174 l 688 347 z "},"Ь":{"ha":1042,"x_min":0,"x_max":868,"o":"m 694 174 l 694 0 l 0 0 l 0 868 l 174 868 l 174 521 l 694 521 l 694 347 l 868 347 l 868 174 l 694 174 m 688 347 l 174 347 l 174 174 l 688 174 l 688 347 z "},"Э":{"ha":1042,"x_min":0,"x_max":868,"o":"m 0 347 l 174 347 l 174 174 l 694 174 l 694 347 l 347 347 l 347 521 l 694 521 l 694 694 l 174 694 l 174 521 l 0 521 l 0 694 l 174 694 l 174 868 l 694 868 l 694 694 l 868 694 l 868 174 l 694 174 l 694 0 l 174 0 l 174 174 l 0 174 l 0 347 z "},"Ю":{"ha":1389,"x_min":0,"x_max":1215,"o":"m 528 174 l 1028 174 l 1028 694 l 528 694 l 528 174 m 521 694 l 521 868 l 1042 868 l 1042 694 l 1215 694 l 1215 174 l 1042 174 l 1042 0 l 521 0 l 521 174 l 347 174 l 347 347 l 174 347 l 174 0 l 0 0 l 0 868 l 174 868 l 174 521 l 347 521 l 347 694 l 521 694 z "},"Я":{"ha":1042,"x_min":0,"x_max":868,"o":"m 181 521 l 694 521 l 694 694 l 181 694 l 181 521 m 0 694 l 174 694 l 174 868 l 868 868 l 868 0 l 694 0 l 694 347 l 347 347 l 347 174 l 174 174 l 174 0 l 0 0 l 0 174 l 174 174 l 174 521 l 0 521 l 0 694 z "},"а":{"ha":868,"x_min":0,"x_max":694,"o":"m 521 347 l 181 347 l 181 174 l 521 174 l 521 347 m 694 174 l 521 174 l 521 0 l 174 0 l 174 174 l 0 174 l 0 347 l 174 347 l 174 521 l 0 521 l 0 694 l 521 694 l 521 521 l 694 521 l 694 174 z "},"б":{"ha":868,"x_min":0,"x_max":694,"o":"m 521 347 l 521 347 l 521 347 l 521 347 l 521 347 m 694 347 l 694 174 l 521 174 l 521 0 l 174 0 l 174 174 l 0 174 l 0 694 l 174 694 l 174 521 l 521 521 l 521 347 l 694 347 m 174 340 l 174 181 l 521 181 l 521 340 l 174 340 m 521 868 l 521 694 l 174 694 l 174 868 l 521 868 z "},"в":{"ha":868,"x_min":0,"x_max":694,"o":"m 694 521 l 521 521 l 521 347 l 694 347 l 694 174 l 521 174 l 521 0 l 0 0 l 0 868 l 521 868 l 521 694 l 694 694 l 694 521 m 514 174 l 514 347 l 174 347 l 174 174 l 514 174 m 514 521 l 514 694 l 174 694 l 174 521 l 514 521 z "},"г":{"ha":868,"x_min":0,"x_max":694,"o":"m 694 694 l 694 521 l 174 521 l 174 0 l 0 0 l 0 694 l 694 694 z "},"д":{"ha":868,"x_min":-174,"x_max":868,"o":"m 174 174 l 521 174 l 521 521 l 174 521 l 174 174 m 694 0 l 868 0 l 868 -174 l 694 -174 l 694 0 l 0 0 l 0 -174 l -174 -174 l -174 0 l 0 0 l 0 694 l 694 694 l 694 0 z "},"е":{"ha":868,"x_min":0,"x_max":694,"o":"m 174 174 l 0 174 l 0 521 l 174 521 l 174 694 l 694 694 l 694 347 l 521 347 l 521 174 l 694 174 l 694 0 l 174 0 l 174 174 m 347 181 l 347 354 l 521 354 l 521 514 l 174 514 l 174 181 l 347 181 z "},"ж":{"ha":1042,"x_min":0,"x_max":868,"o":"m 868 694 l 868 521 l 694 521 l 694 174 l 868 174 l 868 0 l 694 0 l 694 174 l 521 174 l 521 0 l 347 0 l 347 174 l 174 174 l 174 0 l 0 0 l 0 174 l 174 174 l 174 521 l 0 521 l 0 694 l 174 694 l 174 521 l 347 521 l 347 694 l 521 694 l 521 521 l 694 521 l 694 694 l 868 694 z "},"з":{"ha":868,"x_min":0,"x_max":694,"o":"m 0 347 l 174 347 l 174 174 l 521 174 l 521 347 l 347 347 l 347 521 l 521 521 l 521 694 l 174 694 l 174 521 l 0 521 l 0 694 l 174 694 l 174 868 l 521 868 l 521 694 l 694 694 l 694 521 l 521 521 l 521 347 l 694 347 l 694 174 l 521 174 l 521 0 l 174 0 l 174 174 l 0 174 l 0 347 z "},"и":{"ha":868,"x_min":0,"x_max":694,"o":"m 174 694 l 174 347 l 347 347 l 347 521 l 521 521 l 521 694 l 694 694 l 694 0 l 521 0 l 521 347 l 347 347 l 347 174 l 174 174 l 174 0 l 0 0 l 0 694 l 174 694 z "},"й":{"ha":868,"x_min":0,"x_max":694,"o":"m 174 694 l 174 347 l 347 347 l 347 521 l 521 521 l 521 694 l 694 694 l 694 0 l 521 0 l 521 347 l 347 347 l 347 174 l 174 174 l 174 0 l 0 0 l 0 694 l 174 694 m 694 1042 l 521 1042 l 521 868 l 174 868 l 174 1042 l 0 1042 l 0 1215 l 174 1215 l 174 1042 l 521 1042 l 521 1215 l 694 1215 l 694 1042 z "},"к":{"ha":868,"x_min":0,"x_max":694,"o":"m 521 0 l 521 347 l 347 347 l 347 174 l 174 174 l 174 0 l 0 0 l 0 694 l 174 694 l 174 347 l 347 347 l 347 521 l 521 521 l 521 694 l 694 694 l 694 521 l 521 521 l 521 347 l 694 347 l 694 0 l 521 0 z "},"л":{"ha":868,"x_min":0,"x_max":694,"o":"m 174 694 l 694 694 l 694 0 l 521 0 l 521 521 l 347 521 l 347 174 l 174 174 l 174 0 l 0 0 l 0 174 l 174 174 l 174 694 z "},"м":{"ha":1042,"x_min":0,"x_max":868,"o":"m 694 694 l 868 694 l 868 0 l 694 0 l 694 347 l 521 347 l 521 174 l 347 174 l 347 347 l 174 347 l 174 0 l 0 0 l 0 694 l 174 694 l 174 521 l 347 521 l 347 347 l 521 347 l 521 521 l 694 521 l 694 694 z "},"н":{"ha":868,"x_min":0,"x_max":694,"o":"m 521 694 l 694 694 l 694 0 l 521 0 l 521 347 l 174 347 l 174 0 l 0 0 l 0 694 l 174 694 l 174 521 l 521 521 l 521 694 z "},"о":{"ha":868,"x_min":0,"x_max":694,"o":"m 521 174 l 521 0 l 174 0 l 174 174 l 0 174 l 0 521 l 174 521 l 174 694 l 521 694 l 521 521 l 694 521 l 694 174 l 521 174 m 521 514 l 174 514 l 174 181 l 521 181 l 521 514 z "},"п":{"ha":868,"x_min":0,"x_max":694,"o":"m 694 694 l 694 0 l 521 0 l 521 521 l 174 521 l 174 0 l 0 0 l 0 694 l 694 694 z "},"р":{"ha":868,"x_min":0,"x_max":694,"o":"m 521 521 l 694 521 l 694 174 l 521 174 l 521 0 l 174 0 l 174 -174 l 0 -174 l 0 694 l 521 694 l 521 521 m 521 181 l 521 514 l 174 514 l 174 181 l 521 181 z "},"с":{"ha":868,"x_min":0,"x_max":694,"o":"m 694 0 l 174 0 l 174 174 l 0 174 l 0 521 l 174 521 l 174 694 l 694 694 l 694 521 l 174 521 l 174 174 l 694 174 l 694 0 z "},"т":{"ha":1042,"x_min":0,"x_max":868,"o":"m 868 694 l 868 521 l 521 521 l 521 0 l 347 0 l 347 521 l 0 521 l 0 694 l 868 694 z "},"у":{"ha":868,"x_min":0,"x_max":694,"o":"m 0 694 l 174 694 l 174 347 l 521 347 l 521 694 l 694 694 l 694 174 l 521 174 l 521 0 l 347 0 l 347 -174 l 0 -174 l 0 0 l 347 0 l 347 174 l 174 174 l 174 347 l 0 347 l 0 694 z "},"ф":{"ha":1042,"x_min":0,"x_max":868,"o":"m 181 347 l 347 347 l 347 521 l 181 521 l 181 347 m 694 347 l 694 174 l 521 174 l 521 0 l 347 0 l 347 174 l 174 174 l 174 347 l 0 347 l 0 521 l 174 521 l 174 694 l 347 694 l 347 868 l 521 868 l 521 694 l 694 694 l 694 521 l 868 521 l 868 347 l 694 347 m 688 521 l 521 521 l 521 347 l 688 347 l 688 521 z "},"х":{"ha":868,"x_min":0,"x_max":694,"o":"m 694 694 l 694 521 l 521 521 l 521 174 l 694 174 l 694 0 l 521 0 l 521 174 l 174 174 l 174 0 l 0 0 l 0 174 l 174 174 l 174 521 l 0 521 l 0 694 l 174 694 l 174 521 l 521 521 l 521 694 l 694 694 z "},"ц":{"ha":868,"x_min":0,"x_max":868,"o":"m 694 0 l 868 0 l 868 -174 l 694 -174 l 694 0 l 0 0 l 0 694 l 174 694 l 174 174 l 521 174 l 521 694 l 694 694 l 694 0 z "},"ч":{"ha":868,"x_min":0,"x_max":694,"o":"m 521 694 l 694 694 l 694 0 l 521 0 l 521 174 l 174 174 l 174 347 l 0 347 l 0 694 l 174 694 l 174 347 l 521 347 l 521 694 z "},"ш":{"ha":1042,"x_min":0,"x_max":868,"o":"m 694 694 l 868 694 l 868 0 l 0 0 l 0 694 l 174 694 l 174 174 l 347 174 l 347 694 l 521 694 l 521 174 l 694 174 l 694 694 z "},"щ":{"ha":1042,"x_min":0,"x_max":1042,"o":"m 868 0 l 1042 0 l 1042 -174 l 868 -174 l 868 0 l 0 0 l 0 694 l 174 694 l 174 174 l 347 174 l 347 694 l 521 694 l 521 174 l 694 174 l 694 694 l 868 694 l 868 0 z "},"ъ":{"ha":1042,"x_min":0,"x_max":868,"o":"m 688 347 l 347 347 l 347 174 l 688 174 l 688 347 m 0 694 l 347 694 l 347 521 l 694 521 l 694 347 l 868 347 l 868 174 l 694 174 l 694 0 l 174 0 l 174 521 l 0 521 l 0 694 z "},"ы":{"ha":1215,"x_min":0,"x_max":1042,"o":"m 521 174 l 521 0 l 0 0 l 0 694 l 174 694 l 174 521 l 521 521 l 521 347 l 694 347 l 694 174 l 521 174 m 514 347 l 174 347 l 174 174 l 514 174 l 514 347 m 868 0 l 868 694 l 1042 694 l 1042 0 l 868 0 z "},"ь":{"ha":868,"x_min":0,"x_max":694,"o":"m 521 174 l 521 0 l 0 0 l 0 694 l 174 694 l 174 521 l 521 521 l 521 347 l 694 347 l 694 174 l 521 174 m 514 347 l 174 347 l 174 174 l 514 174 l 514 347 z "},"э":{"ha":868,"x_min":0,"x_max":694,"o":"m 0 347 l 174 347 l 174 174 l 521 174 l 521 347 l 347 347 l 347 521 l 521 521 l 521 694 l 174 694 l 174 521 l 0 521 l 0 694 l 174 694 l 174 868 l 521 868 l 521 694 l 694 694 l 694 174 l 521 174 l 521 0 l 174 0 l 174 174 l 0 174 l 0 347 z "},"ю":{"ha":1042,"x_min":0,"x_max":868,"o":"m 354 174 l 681 174 l 681 521 l 354 521 l 354 174 m 347 521 l 347 694 l 694 694 l 694 521 l 868 521 l 868 174 l 694 174 l 694 0 l 347 0 l 347 174 l 174 174 l 174 0 l 0 0 l 0 694 l 174 694 l 174 521 l 347 521 z "},"я":{"ha":868,"x_min":0,"x_max":694,"o":"m 181 347 l 521 347 l 521 521 l 181 521 l 181 347 m 0 521 l 174 521 l 174 694 l 694 694 l 694 0 l 521 0 l 521 174 l 174 174 l 174 0 l 0 0 l 0 174 l 174 174 l 174 347 l 0 347 l 0 521 z "},"ѐ":{"ha":1042,"x_min":0,"x_max":694,"o":"m 347 1042 l 521 1042 l 521 868 l 347 868 l 347 1042 l 174 1042 l 174 1215 l 347 1215 l 347 1042 m 174 174 l 0 174 l 0 521 l 174 521 l 174 694 l 694 694 l 694 347 l 521 347 l 521 174 l 694 174 l 694 0 l 174 0 l 174 174 m 347 181 l 347 354 l 521 354 l 521 514 l 174 514 l 174 181 l 347 181 z "},"ё":{"ha":868,"x_min":0,"x_max":694,"o":"m 0 1043 l 174 1043 l 174 869 l 0 869 l 0 1043 m 521 1042 l 694 1042 l 694 868 l 521 868 l 521 1042 m 174 174 l 0 174 l 0 521 l 174 521 l 174 694 l 694 694 l 694 347 l 521 347 l 521 174 l 694 174 l 694 0 l 174 0 l 174 174 m 347 181 l 347 354 l 521 354 l 521 514 l 174 514 l 174 181 l 347 181 z "},"ђ":{"ha":1042,"x_min":0,"x_max":868,"o":"m 694 868 l 694 694 l 347 694 l 347 521 l 694 521 l 694 347 l 868 347 l 868 0 l 694 0 l 694 -174 l 521 -174 l 521 0 l 694 0 l 694 347 l 347 347 l 347 0 l 174 0 l 174 694 l 0 694 l 0 868 l 694 868 z "},"ѓ":{"ha":868,"x_min":0,"x_max":694,"o":"m 694 694 l 694 521 l 174 521 l 174 0 l 0 0 l 0 694 l 694 694 m 347 1042 l 347 1215 l 521 1215 l 521 1042 l 347 1042 l 347 868 l 174 868 l 174 1042 l 347 1042 z "},"є":{"ha":868,"x_min":0,"x_max":694,"o":"m 694 347 l 694 174 l 521 174 l 521 0 l 174 0 l 174 174 l 0 174 l 0 694 l 174 694 l 174 868 l 521 868 l 521 694 l 694 694 l 694 521 l 521 521 l 521 694 l 174 694 l 174 521 l 347 521 l 347 347 l 174 347 l 174 174 l 521 174 l 521 347 l 694 347 z "},"ѕ":{"ha":868,"x_min":0,"x_max":694,"o":"m 694 521 l 347 521 l 347 347 l 694 347 l 694 174 l 521 174 l 521 0 l 0 0 l 0 174 l 347 174 l 347 347 l 0 347 l 0 521 l 174 521 l 174 694 l 694 694 l 694 521 z "},"і":{"ha":347,"x_min":0,"x_max":174,"o":"m 0 0 l 0 521 l 174 521 l 174 0 l 0 0 m 0 868 l 174 868 l 174 694 l 0 694 l 0 868 z "},"ї":{"ha":347,"x_min":-174,"x_max":347,"o":"m -174 868 l 0 868 l 0 694 l -174 694 l -174 868 m 174 868 l 347 868 l 347 694 l 174 694 l 174 868 m 0 0 l 0 521 l 174 521 l 174 0 l 0 0 z "},"ј":{"ha":347,"x_min":-174,"x_max":174,"o":"m 0 0 l 0 521 l 174 521 l 174 0 l 0 0 m -174 -174 l -174 0 l 0 0 l 0 -174 l -174 -174 m 0 868 l 174 868 l 174 694 l 0 694 l 0 868 z "},"љ":{"ha":1389,"x_min":0,"x_max":1215,"o":"m 1042 174 l 1042 0 l 521 0 l 521 521 l 347 521 l 347 174 l 174 174 l 174 0 l 0 0 l 0 174 l 174 174 l 174 694 l 694 694 l 694 521 l 1042 521 l 1042 347 l 1215 347 l 1215 174 l 1042 174 m 1035 347 l 694 347 l 694 174 l 1035 174 l 1035 347 z "},"њ":{"ha":1389,"x_min":0,"x_max":1215,"o":"m 1042 174 l 1042 0 l 521 0 l 521 347 l 174 347 l 174 0 l 0 0 l 0 694 l 174 694 l 174 521 l 521 521 l 521 694 l 694 694 l 694 521 l 1042 521 l 1042 347 l 1215 347 l 1215 174 l 1042 174 m 1035 347 l 694 347 l 694 174 l 1035 174 l 1035 347 z "},"ћ":{"ha":1042,"x_min":0,"x_max":868,"o":"m 694 868 l 694 694 l 347 694 l 347 521 l 694 521 l 694 347 l 868 347 l 868 0 l 694 0 l 694 347 l 347 347 l 347 0 l 174 0 l 174 694 l 0 694 l 0 868 l 694 868 z "},"ќ":{"ha":868,"x_min":0,"x_max":694,"o":"m 521 0 l 521 347 l 347 347 l 347 174 l 174 174 l 174 0 l 0 0 l 0 868 l 174 868 l 174 347 l 347 347 l 347 521 l 521 521 l 521 694 l 694 694 l 694 521 l 521 521 l 521 347 l 694 347 l 694 0 l 521 0 m 521 1042 l 521 1215 l 694 1215 l 694 1042 l 521 1042 l 521 868 l 347 868 l 347 1042 l 521 1042 z "},"ѝ":{"ha":868,"x_min":0,"x_max":694,"o":"m 174 694 l 174 347 l 347 347 l 347 521 l 521 521 l 521 694 l 694 694 l 694 0 l 521 0 l 521 347 l 347 347 l 347 174 l 174 174 l 174 0 l 0 0 l 0 694 l 174 694 m 694 1042 l 521 1042 l 521 868 l 174 868 l 174 1042 l 0 1042 l 0 1215 l 174 1215 l 174 1042 l 521 1042 l 521 1215 l 694 1215 l 694 1042 z "},"ў":{"ha":868,"x_min":0,"x_max":694,"o":"m 0 694 l 174 694 l 174 347 l 521 347 l 521 694 l 694 694 l 694 174 l 521 174 l 521 0 l 347 0 l 347 -174 l 0 -174 l 0 0 l 347 0 l 347 174 l 174 174 l 174 347 l 0 347 l 0 694 m 694 1042 l 521 1042 l 521 868 l 174 868 l 174 1042 l 0 1042 l 0 1215 l 174 1215 l 174 1042 l 521 1042 l 521 1215 l 694 1215 l 694 1042 z "},"џ":{"ha":1042,"x_min":0,"x_max":868,"o":"m 521 0 l 521 -174 l 347 -174 l 347 0 l 0 0 l 0 694 l 174 694 l 174 174 l 694 174 l 694 694 l 868 694 l 868 0 l 521 0 z "},"Ѡ":{"ha":1389,"x_min":0,"x_max":1215,"o":"m 694 521 l 694 694 l 868 694 l 868 868 l 1042 868 l 1042 694 l 1215 694 l 1215 174 l 1042 174 l 1042 0 l 694 0 l 694 174 l 521 174 l 521 0 l 174 0 l 174 174 l 0 174 l 0 694 l 174 694 l 174 868 l 347 868 l 347 694 l 521 694 l 521 521 l 347 521 l 347 694 l 174 694 l 174 174 l 521 174 l 521 347 l 694 347 l 694 174 l 1042 174 l 1042 694 l 868 694 l 868 521 l 694 521 z "},"ѡ":{"ha":1389,"x_min":0,"x_max":1215,"o":"m 694 0 l 694 174 l 521 174 l 521 0 l 174 0 l 174 174 l 0 174 l 0 694 l 174 694 l 174 174 l 521 174 l 521 694 l 694 694 l 694 174 l 1042 174 l 1042 694 l 1215 694 l 1215 174 l 1042 174 l 1042 0 l 694 0 z "},"Ѣ":{"ha":1389,"x_min":0,"x_max":1215,"o":"m 1035 347 l 521 347 l 521 174 l 1035 174 l 1035 347 m 868 868 l 868 694 l 521 694 l 521 521 l 1042 521 l 1042 347 l 1215 347 l 1215 174 l 1042 174 l 1042 0 l 347 0 l 347 694 l 0 694 l 0 868 l 868 868 z "},"ѣ":{"ha":1215,"x_min":0,"x_max":1042,"o":"m 861 347 l 521 347 l 521 174 l 861 174 l 861 347 m 868 868 l 868 694 l 521 694 l 521 521 l 868 521 l 868 347 l 1042 347 l 1042 174 l 868 174 l 868 0 l 347 0 l 347 694 l 0 694 l 0 868 l 868 868 z "},"Ѥ":{"ha":1389,"x_min":0,"x_max":1215,"o":"m 174 521 l 347 521 l 347 694 l 521 694 l 521 868 l 1042 868 l 1042 694 l 1215 694 l 1215 521 l 1042 521 l 1042 694 l 521 694 l 521 521 l 868 521 l 868 347 l 521 347 l 521 174 l 1042 174 l 1042 347 l 1215 347 l 1215 174 l 1042 174 l 1042 0 l 521 0 l 521 174 l 347 174 l 347 347 l 174 347 l 174 0 l 0 0 l 0 868 l 174 868 l 174 521 z "},"ѥ":{"ha":1389,"x_min":0,"x_max":1042,"o":"m 174 521 l 347 521 l 347 694 l 521 694 l 521 868 l 868 868 l 868 694 l 1042 694 l 1042 521 l 868 521 l 868 694 l 521 694 l 521 521 l 694 521 l 694 347 l 521 347 l 521 174 l 868 174 l 868 347 l 1042 347 l 1042 174 l 868 174 l 868 0 l 521 0 l 521 174 l 347 174 l 347 347 l 174 347 l 174 0 l 0 0 l 0 868 l 174 868 l 174 521 z "},"Ѧ":{"ha":1736,"x_min":0,"x_max":1563,"o":"m 868 353 l 868 688 l 694 688 l 694 353 l 868 353 m 694 0 l 694 347 l 347 347 l 347 174 l 174 174 l 174 0 l 0 0 l 0 174 l 174 174 l 174 347 l 347 347 l 347 521 l 521 521 l 521 694 l 694 694 l 694 868 l 868 868 l 868 694 l 1042 694 l 1042 521 l 1215 521 l 1215 347 l 868 347 l 868 0 l 694 0 m 1215 347 l 1389 347 l 1389 174 l 1563 174 l 1563 0 l 1389 0 l 1389 174 l 1215 174 l 1215 347 z "},"ѧ":{"ha":1389,"x_min":0,"x_max":1215,"o":"m 694 354 l 694 514 l 521 514 l 521 354 l 694 354 m 521 0 l 521 347 l 347 347 l 347 174 l 174 174 l 174 0 l 0 0 l 0 174 l 174 174 l 174 347 l 347 347 l 347 521 l 521 521 l 521 694 l 694 694 l 694 521 l 868 521 l 868 347 l 1042 347 l 1042 174 l 1215 174 l 1215 0 l 1042 0 l 1042 174 l 868 174 l 868 347 l 694 347 l 694 0 l 521 0 z "},"Ѩ":{"ha":2083,"x_min":0,"x_max":1910,"o":"m 1215 353 l 1215 688 l 1042 688 l 1042 353 l 1215 353 m 174 521 l 868 521 l 868 694 l 1042 694 l 1042 868 l 1215 868 l 1215 694 l 1389 694 l 1389 521 l 1563 521 l 1563 347 l 1215 347 l 1215 0 l 1042 0 l 1042 347 l 694 347 l 694 174 l 521 174 l 521 0 l 347 0 l 347 174 l 521 174 l 521 347 l 174 347 l 174 0 l 0 0 l 0 868 l 174 868 l 174 521 m 1563 347 l 1736 347 l 1736 174 l 1910 174 l 1910 0 l 1736 0 l 1736 174 l 1563 174 l 1563 347 z "},"ѩ":{"ha":1736,"x_min":0,"x_max":1563,"o":"m 1042 354 l 1042 514 l 868 514 l 868 354 l 1042 354 m 174 521 l 868 521 l 868 694 l 1042 694 l 1042 521 l 1215 521 l 1215 347 l 1389 347 l 1389 174 l 1563 174 l 1563 0 l 1389 0 l 1389 174 l 1215 174 l 1215 347 l 1042 347 l 1042 0 l 868 0 l 868 347 l 694 347 l 694 174 l 521 174 l 521 0 l 347 0 l 347 174 l 521 174 l 521 347 l 174 347 l 174 0 l 0 0 l 0 694 l 174 694 l 174 521 z "},"Ѫ":{"ha":1389,"x_min":0,"x_max":1215,"o":"m 0 0 l 0 174 l 174 174 l 174 0 l 0 0 m 694 526 l 694 694 l 521 694 l 521 526 l 694 526 m 1042 174 l 1215 174 l 1215 0 l 1042 0 l 1042 174 l 694 174 l 694 0 l 521 0 l 521 174 l 174 174 l 174 347 l 521 347 l 521 521 l 347 521 l 347 694 l 174 694 l 174 868 l 1042 868 l 1042 694 l 868 694 l 868 521 l 694 521 l 694 347 l 1042 347 q 1042 174 1042 344 z "},"ѫ":{"ha":1042,"x_min":0,"x_max":868,"o":"m 521 347 l 521 521 l 347 521 l 347 347 l 521 347 m 868 0 l 694 0 l 694 174 l 521 174 l 521 0 l 347 0 l 347 1 l 347 174 l 174 174 l 174 0 l 0 0 l 0 174 l 174 174 l 174 521 l 0 521 l 0 694 l 868 694 l 868 521 l 694 521 l 694 174 l 868 174 l 868 0 z "},"Ѭ":{"ha":1736,"x_min":0,"x_max":1563,"o":"m 1042 526 l 1042 694 l 868 694 l 868 526 l 1042 526 m 174 521 l 694 521 l 694 694 l 521 694 l 521 868 l 1389 868 l 1389 694 l 1215 694 l 1215 521 l 1042 521 l 1042 347 l 1389 347 q 1389 174 1389 344 l 1563 174 l 1563 0 l 1389 0 l 1389 174 l 1042 174 l 1042 0 l 868 0 l 868 174 l 521 174 l 521 7 q 521 0 521 0 l 347 0 l 347 174 l 521 174 l 521 347 l 174 347 l 174 0 l 0 0 l 0 868 l 174 868 l 174 521 z "},"ѭ":{"ha":1389,"x_min":0,"x_max":1215,"o":"m 868 347 l 868 521 l 694 521 l 694 347 l 868 347 m 0 0 l 0 694 l 174 694 l 174 347 l 521 346 l 521 521 l 347 521 l 347 694 l 1215 694 l 1215 521 l 1042 521 l 1042 174 l 1215 174 l 1215 0 l 1042 0 l 1042 174 l 868 174 l 868 0 l 694 0 l 694 174 l 521 174 l 521 0 l 347 0 l 347 174 l 174 174 l 174 0 l 0 0 z "},"Ѯ":{"ha":1042,"x_min":0,"x_max":868,"o":"m 174 -174 l 694 -174 l 694 -347 l 174 -347 l 174 -174 l 0 -174 l 0 0 l 174 0 l 174 174 l 694 174 l 694 347 l 347 347 l 347 521 l 694 521 l 694 694 l 174 694 l 174 521 l 0 521 l 0 694 l 174 694 l 174 868 l 694 868 l 694 694 l 868 694 l 868 521 l 694 521 l 694 347 l 868 347 l 868 174 l 694 174 l 694 0 l 174 0 l 174 -174 m 694 1215 l 521 1215 l 521 1042 l 347 1042 l 347 1215 l 174 1215 l 174 1389 l 347 1389 l 347 1215 l 521 1215 l 521 1389 l 694 1389 l 694 1215 z "},"ѯ":{"ha":868,"x_min":0,"x_max":694,"o":"m 174 -174 l 521 -174 l 521 -347 l 174 -347 l 174 -174 l 0 -174 l 0 0 l 174 0 l 174 174 l 521 174 l 521 347 l 347 347 l 347 521 l 521 521 l 521 694 l 174 694 l 174 521 l 0 521 l 0 694 l 174 694 l 174 868 l 521 868 l 521 694 l 694 694 l 694 521 l 521 521 l 521 347 l 694 347 l 694 174 l 521 174 l 521 0 l 174 0 l 174 -174 m 694 1215 l 521 1215 l 521 1042 l 174 1042 l 174 1215 l 0 1215 l 0 1389 l 174 1389 l 174 1215 l 521 1215 l 521 1389 l 694 1389 l 694 1215 z "},"Ѱ":{"ha":1042,"x_min":0,"x_max":868,"o":"m 0 521 l 0 868 l 174 868 l 174 521 l 0 521 m 694 868 l 868 868 l 868 521 l 694 521 l 694 347 l 521 347 l 521 0 l 347 0 l 347 347 l 174 347 l 174 521 l 347 521 l 347 868 l 521 868 l 521 521 l 694 521 l 694 868 z "},"ѱ":{"ha":1042,"x_min":0,"x_max":868,"o":"m 0 174 l 0 694 l 174 694 l 174 174 l 0 174 m 694 694 l 868 694 l 868 174 l 694 174 l 694 0 l 521 0 l 521 -174 l 347 -174 l 347 0 l 174 0 l 174 174 l 347 174 l 347 694 l 521 694 l 521 174 l 694 174 l 694 694 z "},"Ѳ":{"ha":1042,"x_min":0,"x_max":868,"o":"m 694 694 l 868 694 l 868 174 l 694 174 l 694 0 l 174 0 l 174 174 l 0 174 l 0 694 l 174 694 l 174 868 l 694 868 l 694 694 m 694 347 l 174 347 l 174 181 l 694 181 l 694 347 m 174 521 l 694 521 l 694 688 l 174 688 l 174 521 z "},"ѳ":{"ha":868,"x_min":0,"x_max":694,"o":"m 521 174 l 521 0 l 174 0 l 174 174 l 0 174 l 0 521 l 174 521 l 174 694 l 521 694 l 521 521 l 694 521 l 694 174 l 521 174 m 347 514 l 174 514 l 174 347 l 347 347 l 347 181 l 521 181 l 521 347 l 347 347 l 347 514 z "},"Ѵ":{"ha":1042,"x_min":0,"x_max":868,"o":"m 694 868 l 868 868 l 868 694 l 694 694 l 694 174 l 521 174 l 521 0 l 347 0 l 347 174 l 174 174 l 174 347 l 0 347 l 0 868 l 174 868 l 174 347 l 347 347 l 347 174 l 521 174 l 521 694 l 694 694 l 694 868 z "},"ѵ":{"ha":1042,"x_min":0,"x_max":868,"o":"m 694 694 l 868 694 l 868 521 l 694 521 l 694 174 l 521 174 l 521 0 l 347 0 l 347 174 l 174 174 l 174 347 l 0 347 l 0 694 l 174 694 l 174 347 l 347 347 l 347 174 l 521 174 l 521 521 l 694 521 l 694 694 z "},"Ѷ":{"ha":1042,"x_min":0,"x_max":868,"o":"m 694 868 l 868 868 l 868 694 l 694 694 l 694 174 l 521 174 l 521 0 l 347 0 l 347 174 l 174 174 l 174 347 l 0 347 l 0 868 l 174 868 l 174 347 l 347 347 l 347 174 l 521 174 l 521 694 l 694 694 l 694 868 m 347 1042 l 521 1042 l 521 868 l 347 868 l 347 1042 l 174 1042 l 174 1215 l 347 1215 l 347 1042 z "},"ѷ":{"ha":1042,"x_min":0,"x_max":868,"o":"m 694 694 l 868 694 l 868 521 l 694 521 l 694 174 l 521 174 l 521 0 l 347 0 l 347 174 l 174 174 l 174 347 l 0 347 l 0 694 l 174 694 l 174 347 l 347 347 l 347 174 l 521 174 l 521 521 l 694 521 l 694 694 m 347 868 l 521 868 l 521 694 l 347 694 l 347 868 l 174 868 l 174 1042 l 347 1042 l 347 868 z "},"Ѹ":{"ha":1910,"x_min":0,"x_max":1736,"o":"m 694 688 l 174 688 l 174 181 l 694 181 l 694 688 m 1042 0 l 1215 0 l 1215 174 l 1042 174 l 1042 347 l 868 347 l 868 174 l 694 174 l 694 0 l 174 0 l 174 174 l 0 174 l 0 694 l 174 694 l 174 868 l 694 868 l 694 694 l 1042 694 l 1042 347 l 1215 347 l 1215 174 l 1389 174 l 1389 521 l 1563 521 l 1563 694 l 1736 694 l 1736 521 l 1563 521 l 1563 174 l 1389 174 l 1389 0 l 1215 0 l 1215 -174 l 1042 -174 l 1042 0 z "},"ѹ":{"ha":1736,"x_min":0,"x_max":1563,"o":"m 521 514 l 174 514 l 174 181 l 521 181 l 521 514 m 868 0 l 1042 0 l 1042 174 l 868 174 l 868 347 l 694 347 l 694 174 l 521 174 l 521 0 l 174 0 l 174 174 l 0 174 l 0 521 l 174 521 l 174 694 l 521 694 l 521 521 l 868 521 l 868 347 l 1042 347 l 1042 174 l 1215 174 l 1215 347 l 1389 347 l 1389 521 l 1563 521 l 1563 347 l 1389 347 l 1389 174 l 1215 174 l 1215 0 l 1042 0 l 1042 -174 l 868 -174 l 868 0 z "},"Ѻ":{"ha":1389,"x_min":0,"x_max":1215,"o":"m 1042 688 l 174 688 l 174 181 l 1042 181 l 1042 688 m 694 0 l 694 -174 l 521 -174 l 521 0 l 174 0 l 174 174 l 0 174 l 0 694 l 174 694 l 174 868 l 521 868 l 521 1042 l 694 1042 l 694 868 l 1042 868 l 1042 694 l 1215 694 l 1215 174 l 1042 174 l 1042 0 l 694 0 z "},"ѻ":{"ha":1389,"x_min":0,"x_max":1215,"o":"m 1042 514 l 174 514 l 174 181 l 1042 181 l 1042 514 m 694 0 l 694 -174 l 521 -174 l 521 0 l 174 0 l 174 174 l 0 174 l 0 521 l 174 521 l 174 694 l 521 694 l 521 868 l 694 868 l 694 694 l 1042 694 l 1042 521 l 1215 521 l 1215 174 l 1042 174 l 1042 0 l 694 0 z "},"Ѽ":{"ha":1389,"x_min":0,"x_max":1215,"o":"m 521 1042 l 521 1215 l 694 1215 l 694 1042 l 521 1042 l 521 868 l 347 868 l 347 694 l 521 694 l 521 521 l 347 521 l 347 694 l 174 694 l 174 174 l 521 174 l 521 347 l 694 347 l 694 174 l 1042 174 l 1042 694 l 868 694 l 868 521 l 694 521 l 694 694 l 868 694 l 868 868 l 1042 868 l 1042 694 l 1215 694 l 1215 174 l 1042 174 l 1042 0 l 694 0 l 694 174 l 521 174 l 521 0 l 174 0 l 174 174 l 0 174 l 0 694 l 174 694 l 174 868 l 347 868 l 347 1042 l 521 1042 z "},"ѽ":{"ha":1389,"x_min":0,"x_max":1215,"o":"m 521 868 l 521 1042 l 694 1042 l 694 868 l 521 868 l 521 694 l 347 694 l 347 521 l 521 521 l 521 347 l 347 347 l 347 521 l 174 521 l 174 174 l 1042 174 l 1042 521 l 868 521 l 868 347 l 694 347 l 694 521 l 868 521 l 868 694 l 1042 694 l 1042 521 l 1215 521 l 1215 174 l 1042 174 l 1042 0 l 174 0 l 174 174 l 0 174 l 0 521 l 174 521 l 174 694 l 347 694 l 347 868 l 521 868 z "},"Ѿ":{"ha":1389,"x_min":0,"x_max":1215,"o":"m 694 521 l 694 694 l 868 694 l 868 868 l 1042 868 l 1042 694 l 1215 694 l 1215 174 l 1042 174 l 1042 0 l 694 0 l 694 174 l 521 174 l 521 0 l 174 0 l 174 174 l 0 174 l 0 694 l 174 694 l 174 868 l 347 868 l 347 694 l 521 694 l 521 521 l 347 521 l 347 694 l 174 694 l 174 174 l 521 174 l 521 347 l 694 347 l 694 174 l 1042 174 l 1042 694 l 868 694 l 868 521 l 694 521 m 1042 1215 l 1042 1042 l 174 1042 l 174 1215 l 1042 1215 z "},"ѿ":{"ha":1389,"x_min":0,"x_max":1215,"o":"m 694 0 l 694 174 l 521 174 l 521 0 l 174 0 l 174 174 l 0 174 l 0 694 l 174 694 l 174 174 l 521 174 l 521 694 l 694 694 l 694 174 l 1042 174 l 1042 694 l 1215 694 l 1215 174 l 1042 174 l 1042 0 l 694 0 m 1042 1042 l 1042 868 l 174 868 l 174 1042 l 1042 1042 z "},"℠":{"ha":1563,"x_min":0,"x_max":1389,"o":"m 0 521 l 174 521 l 174 868 l 521 868 l 521 694 l 694 694 l 694 868 l 868 868 l 868 694 l 1042 694 l 1042 868 l 1215 868 l 1215 694 l 1389 694 l 1389 347 l 1215 347 l 1215 694 l 1042 694 l 1042 347 l 868 347 l 868 694 l 694 694 l 694 347 l 521 347 l 521 694 l 347 694 l 347 347 l 0 347 l 0 521 z "},"←":{"ha":1042,"x_min":0,"x_max":868,"o":"m 521 868 l 521 694 l 347 694 l 347 521 l 868 521 l 868 347 l 347 347 l 347 174 l 521 174 l 521 0 l 347 0 l 347 174 l 174 174 l 174 347 l 0 347 l 0 521 l 174 521 l 174 694 l 347 694 l 347 868 l 521 868 z "},"↑":{"ha":1042,"x_min":0,"x_max":868,"o":"m 868 347 l 694 347 l 694 521 l 521 521 l 521 0 l 347 0 l 347 521 l 174 521 l 174 347 l 0 347 l 0 521 l 174 521 l 174 694 l 347 694 l 347 868 l 521 868 l 521 694 l 694 694 l 694 521 l 868 521 l 868 347 z "},"→":{"ha":1042,"x_min":0,"x_max":868,"o":"m 347 0 l 347 174 l 521 174 l 521 347 l 0 347 l 0 521 l 521 521 l 521 694 l 347 694 l 347 868 l 521 868 l 521 694 l 694 694 l 694 521 l 868 521 l 868 347 l 694 347 l 694 174 l 521 174 l 521 0 l 347 0 z "},"↓":{"ha":1042,"x_min":0,"x_max":868,"o":"m 0 521 l 174 521 l 174 347 l 347 347 l 347 868 l 521 868 l 521 347 l 694 347 l 694 521 l 868 521 l 868 347 l 694 347 l 694 174 l 521 174 l 521 0 l 347 0 l 347 174 l 174 174 l 174 347 l 0 347 l 0 521 z "},"↔":{"ha":1736,"x_min":0,"x_max":1563,"o":"m 1042 0 l 1042 174 l 1215 174 l 1215 347 l 347 347 l 347 174 l 521 174 l 521 0 l 347 0 l 347 174 l 174 174 l 174 347 l 0 347 l 0 521 l 174 521 l 174 694 l 347 694 l 347 868 l 521 868 l 521 694 l 347 694 l 347 521 l 1215 521 l 1215 694 l 1042 694 l 1042 868 l 1215 868 l 1215 694 l 1389 694 l 1389 521 l 1563 521 l 1563 347 l 1389 347 l 1389 174 l 1215 174 l 1215 0 l 1042 0 z "},"↕":{"ha":1042,"x_min":0,"x_max":868,"o":"m 0 174 l 174 174 l 174 0 l 347 0 l 347 868 l 174 868 l 174 694 l 0 694 l 0 868 l 174 868 l 174 1042 l 347 1042 l 347 1215 l 521 1215 l 521 1042 l 694 1042 l 694 868 l 868 868 l 868 694 l 694 694 l 694 868 l 521 868 l 521 0 l 694 0 l 694 174 l 868 174 l 868 0 l 694 0 l 694 -174 l 521 -174 l 521 -347 l 347 -347 l 347 -174 l 174 -174 l 174 0 l 0 0 l 0 174 z "},"↖":{"ha":1042,"x_min":0,"x_max":868,"o":"m 868 0 l 694 0 l 694 174 l 521 174 l 521 347 l 347 347 l 347 521 l 174 521 l 174 0 l 0 0 l 0 868 l 868 868 l 868 694 l 347 694 l 347 521 l 521 521 l 521 347 l 694 347 q 694 174 694 344 l 868 174 l 868 0 z "},"↗":{"ha":1042,"x_min":0,"x_max":868,"o":"m 0 0 l 0 174 l 174 174 l 174 347 l 347 347 l 347 521 l 521 521 l 521 694 l 0 694 l 0 868 l 868 868 l 868 0 l 694 0 l 694 521 l 521 521 l 521 347 l 347 347 l 347 174 l 174 174 l 174 0 l 0 0 z "},"↘":{"ha":1042,"x_min":0,"x_max":868,"o":"m 0 868 l 174 868 l 174 694 l 347 694 l 347 521 l 521 521 l 521 347 l 694 347 l 694 868 l 868 868 l 868 0 l 0 0 l 0 174 l 521 174 l 521 347 l 347 347 l 347 521 l 174 521 q 174 694 174 524 l 0 694 l 0 868 z "},"↙":{"ha":1042,"x_min":0,"x_max":868,"o":"m 868 868 l 868 694 l 694 694 q 694 521 694 522 l 521 521 l 521 347 l 347 347 l 347 174 l 868 174 l 868 0 l 0 0 l 0 868 l 174 868 l 174 347 l 347 347 l 347 521 l 521 521 l 521 694 l 694 694 l 694 868 l 868 868 z "},"↴":{"ha":1042,"x_min":0,"x_max":868,"o":"m 347 694 l 0 694 l 0 868 l 521 868 l 521 347 l 694 347 l 694 521 l 868 521 l 868 347 l 694 347 l 694 174 l 521 174 l 521 0 l 347 0 l 347 174 l 174 174 l 174 347 l 0 347 l 0 521 l 174 521 l 174 347 l 347 347 l 347 694 z "},"↵":{"ha":1042,"x_min":0,"x_max":868,"o":"m 694 521 l 694 868 l 868 868 l 868 347 l 347 347 l 347 174 l 521 174 l 521 0 l 347 0 l 347 174 l 174 174 l 174 347 l 0 347 l 0 521 l 174 521 l 174 694 l 347 694 l 347 868 l 521 868 l 521 694 l 347 694 l 347 521 l 694 521 z "},"⇠":{"ha":1389,"x_min":0,"x_max":1215,"o":"m 521 868 l 521 694 l 347 694 l 347 521 l 521 521 l 521 347 l 347 347 l 347 174 l 521 174 l 521 0 l 347 0 l 347 174 l 174 174 l 174 347 l 0 347 l 0 521 l 174 521 l 174 694 l 347 694 l 347 868 l 521 868 m 694 521 l 868 521 l 868 347 l 694 347 l 694 521 m 1042 521 l 1215 521 l 1215 347 l 1042 347 l 1042 521 z "},"⇡":{"ha":1042,"x_min":0,"x_max":868,"o":"m 868 521 l 694 521 l 694 694 l 521 694 l 521 521 l 347 521 l 347 694 l 174 694 l 174 521 l 0 521 l 0 694 l 174 694 l 174 868 l 347 868 l 347 1042 l 521 1042 l 521 868 l 694 868 l 694 694 l 868 694 l 868 521 m 521 347 l 521 174 l 347 174 l 347 347 l 521 347 m 521 0 l 521 -174 l 347 -174 l 347 0 l 521 0 z "},"⇢":{"ha":1389,"x_min":0,"x_max":1215,"o":"m 694 868 l 868 868 l 868 694 l 1042 694 l 1042 521 l 1215 521 l 1215 347 l 1042 347 l 1042 174 l 868 174 l 868 0 l 694 0 l 694 174 l 868 174 l 868 347 l 694 347 l 694 521 l 868 521 l 868 694 l 694 694 l 694 868 m 521 521 l 521 347 l 347 347 l 347 521 l 521 521 m 174 521 l 174 347 l 0 347 l 0 521 l 174 521 z "},"⇣":{"ha":1042,"x_min":0,"x_max":868,"o":"m 868 347 l 868 174 l 694 174 l 694 0 l 521 0 l 521 -174 l 347 -174 l 347 0 l 174 0 l 174 174 l 0 174 l 0 347 l 174 347 l 174 174 l 347 174 l 347 347 l 521 347 l 521 174 l 694 174 l 694 347 l 868 347 m 521 521 l 347 521 l 347 694 l 521 694 l 521 521 m 521 868 l 347 868 l 347 1042 l 521 1042 l 521 868 z "},"∂":{"ha":694,"x_min":0,"x_max":521,"o":"m 174 181 l 347 181 l 347 340 l 174 340 l 174 181 m 174 868 l 347 868 l 347 694 l 521 694 l 521 521 l 347 521 l 347 347 l 521 347 l 521 174 l 347 174 l 347 0 l 174 0 l 174 174 l 0 174 l 0 347 l 174 347 l 174 521 l 347 521 l 347 694 l 174 694 l 174 868 z "},"∏":{"ha":1042,"x_min":0,"x_max":868,"o":"m 0 868 l 868 868 l 868 694 l 694 694 l 694 0 l 521 0 l 521 694 l 347 694 l 347 0 l 174 0 l 174 694 l 0 694 l 0 868 z "},"∑":{"ha":1042,"x_min":0,"x_max":868,"o":"m 868 347 l 868 0 l 0 0 l 0 174 l 174 174 l 174 347 l 347 347 l 347 521 l 174 521 l 174 694 l 0 694 l 0 868 l 868 868 l 868 521 l 694 521 l 694 694 l 347 694 l 347 521 l 521 521 l 521 347 l 347 347 l 347 174 l 694 174 l 694 347 l 868 347 z "},"√":{"ha":1042,"x_min":0,"x_max":868,"o":"m 694 694 l 868 694 l 868 521 l 694 521 l 694 347 l 521 347 l 521 174 l 347 174 l 347 0 l 174 0 l 174 174 l 0 174 l 0 347 l 174 347 l 174 174 l 347 174 l 347 347 l 521 347 l 521 521 l 694 521 l 694 694 z "},"∞":{"ha":1042,"x_min":0,"x_max":868,"o":"m 347 354 l 347 514 l 174 514 l 174 354 l 347 354 m 694 347 l 694 174 l 521 174 l 521 347 l 347 347 l 347 174 l 174 174 l 174 347 l 0 347 l 0 521 l 174 521 l 174 694 l 347 694 l 347 521 l 521 521 l 521 694 l 694 694 l 694 521 l 868 521 l 868 347 l 694 347 m 521 354 l 694 354 l 694 514 l 521 514 l 521 354 z "},"∫":{"ha":521,"x_min":-174,"x_max":347,"o":"m -174 0 l 0 0 l 0 868 l 174 868 l 174 1042 l 347 1042 l 347 868 l 174 868 l 174 0 l 0 0 l 0 -174 l -174 -174 l -174 0 z "},"≠":{"ha":1042,"x_min":0,"x_max":868,"o":"m 868 521 l 521 521 l 521 347 l 868 347 l 868 174 l 347 174 l 347 0 l 174 0 l 174 174 l 0 174 l 0 347 l 347 347 l 347 521 l 0 521 l 0 694 l 521 694 l 521 868 l 694 868 l 694 694 l 868 694 l 868 521 z "},"≤":{"ha":868,"x_min":0,"x_max":694,"o":"m 0 0 l 0 174 l 694 174 l 694 0 l 0 0 m 0 694 l 347 694 l 347 868 l 694 868 l 694 694 l 347 694 l 347 521 l 694 521 l 694 347 l 347 347 l 347 521 l 0 521 l 0 694 z "},"≥":{"ha":868,"x_min":0,"x_max":694,"o":"m 694 0 l 0 0 l 0 174 l 694 174 l 694 0 m 694 694 l 694 521 l 347 521 l 347 347 l 0 347 l 0 521 l 347 521 l 347 694 l 0 694 l 0 868 l 347 868 l 347 694 l 694 694 z "},"≈":{"ha":1042,"x_min":0,"x_max":868,"o":"m 694 1042 l 868 1042 l 868 868 l 694 868 l 694 696 l 521 696 l 521 868 l 174 868 l 174 696 l 0 696 l 0 868 l 174 868 l 174 1042 l 521 1042 l 521 868 l 694 868 l 694 1042 m 694 519 l 868 519 l 868 347 l 694 347 l 694 174 l 521 174 l 521 347 l 174 347 l 174 174 l 0 174 l 0 347 l 174 347 l 174 519 l 521 519 l 521 347 l 694 347 l 694 519 z "},"◊":{"ha":694,"x_min":0,"x_max":521,"o":"m 347 347 l 347 174 l 174 174 l 174 347 l 0 347 l 0 521 l 174 521 l 174 694 l 347 694 l 347 521 l 521 521 l 521 347 l 347 347 m 174 354 l 347 354 l 347 514 l 174 514 l 174 354 z "},"":{"ha":4167,"x_min":0,"x_max":3993,"o":"m 2431 521 l 3299 521 l 3299 0 l 3125 0 l 3125 347 l 2951 347 l 2951 0 l 2778 0 l 2778 347 l 2604 347 l 2604 0 l 2431 0 l 2431 521 m 2083 521 l 2257 521 l 2257 0 l 2083 0 l 2083 521 m 1389 521 l 1910 521 l 1910 0 l 1736 0 l 1736 347 l 1563 347 l 1563 0 l 1389 0 l 1389 521 m 1042 521 l 1215 521 l 1215 0 l 1042 0 l 1042 521 m 0 521 l 868 521 l 868 0 l 694 0 l 694 347 l 521 347 l 521 0 l 347 0 l 347 347 l 174 347 l 174 0 l 0 0 l 0 521 m 3993 0 l 3472 0 l 3472 521 l 3646 521 l 3646 174 l 3993 174 l 3993 0 z "},"":{"ha":868,"x_min":0,"x_max":694,"o":"m 694 868 l 694 694 l 174 694 l 174 521 l 694 521 l 694 0 l 521 0 l 521 347 l 174 347 l 174 0 l 0 0 l 0 694 l 174 694 l 174 868 l 694 868 z "},"":{"ha":868,"x_min":0,"x_max":694,"o":"m 521 521 l 521 694 l 181 694 l 181 521 l 521 521 m 694 868 l 694 0 l 521 0 l 521 347 l 174 347 l 174 0 l 0 0 l 0 694 l 174 694 l 174 868 l 694 868 z "}}}
